v -34.65100098 -4.999000072 3.500000477
vn -0.440358758 0.01496744901 0.8976971507
v -32.24799728 3.692749977 3.500000477
vn -0.1125116199 0.01023965236 0.9935976267
v -35.7338295 3.895953178 3.500000477
vn 0.04189963266 -0.001681881957 0.9991204143
v -22.98792458 2.942109346 2.400000334
vn -0.6816912293 0.3631169796 -0.635171771
v -25.39265633 2.295968533 2.400000334
vn 0.323838383 0.6067472696 -0.7259383202
v -24.94921875 2.112874985 2.400000334
vn 0.1573762149 0.6529370546 -0.7408818603
v -25.75479698 2.578656435 2.400000334
vn 0.4758777916 0.4770120382 -0.7389180064
v -24.22387505 2.075999975 3.500000477
vn -0.04530474171 0.3011466861 0.952500999
v -34.49750137 5.472500324 2.400000334
vn 0.2058354765 -0.6836951971 -0.7001376152
v -32.33262253 3.257375002 3.500000477
vn -0.2493465245 0.0949646011 0.9637468457
v -34.32099915 2.085187435 3.500000477
vn 0.04697931185 0.2826652229 0.9580674767
v -19.89999962 -3 3.500000477
vn 0.4064800441 -0.4582637548 0.7904228568
v -26.24684334 3.625468731 3.500000477
vn 0.0733659789 0.002766895806 0.9973012209
v -35.20401382 2.548343658 2.400000334
vn 0.4522834122 0.4847133458 -0.7486605644
v -32.27687836 4.115749836 3.500000477
vn -0.4688124955 -0.0927144587 0.878418386
v -32.83737564 5.113250256 2.400000334
vn -0.3612087071 -0.3841989636 -0.8496584296
v -35.66734314 4.293499947 3.500000477
vn 0.1925133169 -0.06638753414 0.9790461063
v -28.11700058 3.799999952 2.400000334
vn 0.8518441319 -0.1639176458 -0.4974862039
v -38.60099792 -3 2.614274308e-07
vn -0.7434597015 -0.198305577 -0.6387038231
v -26.31299973 0.6750000119 2.614274308e-07
vn 0.06250490248 0.1804541647 -0.9815953374
v -34.65100098 -4.999000072 2.614274308e-07
vn -0.8766658902 0.02979718708 -0.4801760614
v -32.97312546 2.382156372 2.400000334
vn -0.3875058591 0.5677736402 -0.726272881
v -33.84860992 5.536780834 3.500000477
vn -0.001502650906 -0.01341905445 0.9999088049
v -22.98917198 2.939546824 3.500000477
vn -0.0451676324 0.02778907679 0.9985928535
v -32.65481186 2.676968813 2.400000334
vn -0.5262066126 0.478675276 -0.7028346658
v -32.60464096 2.74471879 3.500000477
vn -0.02902660333 0.02000353672 0.9993784428
v -23.95049858 -5.000000477 2.614274308e-07
vn 0.6230883598 -0.02097037807 -0.7818702459
v -26.31299973 0.6750000119 2.400000334
vn 0.5668115616 0.6545088291 -0.5003427267
v -22.77507591 4.006374836 3.500000477
vn -0.5201009512 -0.07008265704 0.8512246609
v -32.76800156 -6.000999928 2.614274308e-07
vn 0 -0.513648212 -0.8580008745
v -30.38299942 3.789999962 2.614274308e-07
vn -0.5648764372 0.1103226021 -0.8177673817
v -34.80351639 5.347484589 2.400000334
vn 0.2367703468 -0.4496191144 -0.8612679243
v -22.76759338 3.642905951 3.500000477
vn -0.5040689111 0.0383499153 0.8628115654
v -26.31299973 6.925000191 2.400000334
vn 0.3775041699 -0.6538977027 -0.6556739807
v -22.70400047 0.6750000119 2.614274308e-07
vn -0.1634805351 0.283174485 -0.9450324178
v -26.31299973 6.925000191 2.614274308e-07
vn 0.0913843289 -0.1582922935 -0.9831543565
v -23.19887543 4.958687305 2.400000334
vn -0.5797809958 -0.5137251019 -0.6324084997
v -32.19599915 0.6700000167 2.614274308e-07
vn -0.08668162674 0.1510936916 -0.984711647
v -22.70400047 0.6750000119 2.400000334
vn -0.4554042518 0.7888332009 -0.4127337635
v -29.44000053 5.119999409 3.500000477
vn 0 6.123234263e-17 1
v -22.76068687 3.856937408 2.400000334
vn -0.6585554481 -0.03219837323 -0.7518430352
v -23.01698685 4.707140923 2.400000334
vn -0.1193737015 -0.06417760253 -0.9907730222
v -30.38299942 3.789999962 2.400000334
vn -0.8513039947 -0.1614578515 -0.4992122054
v -35.37132645 4.866093636 2.400000334
vn 0.190075174 -0.1446828544 -0.9710500836
v -22.83358002 4.279218197 2.400000334
vn -0.7309867144 -0.238621071 -0.6393108964
v -23.75150108 5.375 2.400000334
vn -0.2191273123 -0.4609605372 -0.8599410653
v -22.82796669 3.323125124 3.500000477
vn -0.585986197 0.1946694553 0.7865900993
v -19.89999962 -3 2.614274308e-07
vn 0.8535045385 -0.154508397 -0.4976516068
v -23.89999962 -3 2.614274308e-07
vn 0.07762233168 -0.312449187 -0.9467577934
v -35.0848732 5.163187981 2.400000334
vn 0.4130448401 -0.5428125262 -0.7312650084
v -32.17900085 6.920000076 2.614274308e-07
vn -0.1953875422 -0.2243685424 -0.9547159076
v -33.13999939 5.324999809 2.400000334
vn -0.3552841842 -0.6146813631 -0.7042300701
v -32.30515671 4.239218712 2.400000334
vn -0.6716169715 -0.21598427 -0.7087181807
v -23.84681129 2.182687521 2.400000334
vn -0.2853212059 0.6137364507 -0.7361517549
v -25.28099823 5.363718987 3.500000477
vn 0.02231546678 -0.04443499446 0.9987630248
v -23.89999962 -3 3.500000477
vn 0.1309293061 -0.1342352331 0.9822618961
v -32.89612579 2.439375162 3.500000477
vn -0.2863206863 0.3474559486 0.8929136395
v -24.48084259 5.547593117 2.400000334
vn -0.00296161836 -0.1246610284 -0.9921949506
v -25.59922028 5.160750389 2.400000334
vn 0.4486189485 -0.5544318557 -0.7009610534
v -22.85337448 3.235125065 2.400000334
vn -0.1044812575 0.03691739216 -0.9938414097
v -34.3215332 2.085343838 2.400000334
vn 0.1874883473 0.6872156858 -0.7018423676
v -26.20656204 4.154843807 3.500000477
vn 0.4045561254 -0.08019720763 0.9109899998
v -25.59625053 5.169187546 3.500000477
vn 0.2616826594 -0.3463595212 0.9008647203
v -25.97145271 4.746328354 2.400000334
vn 0.1904066205 -0.1292251348 -0.9731630087
v -24.82106209 5.518094063 3.500000477
vn 0.05814235285 -0.2665416598 0.9620680809
v -35.38687515 2.754468918 3.500000477
vn 0.2084901482 0.1477482915 0.966800034
v -35.08949661 5.159937859 3.500000477
vn 0.1418215781 -0.155346632 0.9776267409
v -35.80400085 0.6800000072 2.400000334
vn 0.5712545514 0.655985713 -0.49330616
v -22.78587341 3.513937473 2.400000334
vn -0.6672301888 0.108461082 -0.7369125485
v -23.22884369 2.611187696 2.400000334
vn -0.5830069184 0.5354485512 -0.6110628247
v -26.18537521 4.282593727 2.400000334
vn 0.6809653044 -0.2301737368 -0.6952023506
v -32.79207993 5.063734055 3.500000477
vn -0.04581011087 -0.04919485375 0.9977380633
v -33.65275192 2.086874962 2.400000334
vn -0.1676656157 0.7424173355 -0.6486175656
v -28.11700058 3.799999952 2.614274308e-07
vn 0.5654534101 0.1088083833 -0.8175715208
v -32.53970337 4.760625362 2.400000334
vn -0.2074232846 -0.1370766908 -0.9685997963
v -25.81274986 4.961968899 3.500000477
vn 0.4283611476 -0.3713195324 0.8237891197
v -23.5251236 2.356593609 3.500000477
vn -0.03676454723 0.05301740021 0.9979165792
v -23.95049858 -5.000000477 3.500000477
vn 0.1926398426 -0.006483398844 0.9812481403
v -25.49421883 2.360906363 3.500000477
vn 0.09492209554 0.1435575187 0.9850792289
v -24.50278091 2.053593636 2.400000334
vn 0.0004589732271 0.1995512247 -0.9798873067
v -35.65485764 3.288359404 3.500000477
vn 0.3460768163 0.1126764417 0.9314154983
v -26.03792381 4.644672394 3.500000477
vn 0.4218533039 -0.2017338872 0.8839362264
v -34.70199966 -6.000999928 3.500000477
vn -0.07713484764 -0.968727231 0.2358342856
v -35.10015488 2.448562622 3.500000477
vn 0.1674488485 0.2172981352 0.9616352916
v -35.63674927 3.214343786 2.400000334
vn 0.5211496353 0.1875946522 -0.832593143
v -24.97998428 2.122265816 3.500000477
vn 0.008725206368 0.02414351888 0.9996704459
v -26.23200035 3.535249949 2.400000334
vn 0.6326008439 0.1358038932 -0.7624784708
v -35.733284 3.940156221 2.400000334
vn 0.508900702 -0.05467630923 -0.85908705
v -24.58324814 2.054531336 3.500000477
vn 0.02890510485 0.3293288946 0.9437727332
v -24.12464142 5.50279665 2.400000334
vn -0.172584936 -0.7193112373 -0.6729084849
v -23.40028191 5.144124985 3.500000477
vn -0.123651877 -0.1420170814 0.9821106791
v -23.82585907 5.40620327 3.500000477
vn -0.09868741781 -0.2253450155 0.9692679644
v -35.7244072 3.579031467 2.400000334
vn 0.7304777503 0.09614555538 -0.6761348248
v -23.43021774 5.172688007 2.400000334
vn -0.407484889 -0.5875707269 -0.6990827322
v -23.5251236 2.356593609 2.400000334
vn -0.2912454307 0.4200247824 -0.8595087528
v -24.15365601 2.088749886 2.400000334
vn -0.1607787013 0.7044218779 -0.6913320422
v -24.00099945 -6.000999928 2.614274308e-07
vn 0.1085499078 -0.9561831355 -0.2719020844
v -19.89999962 12 3.500000477
vn 0.1057744101 0.5005281568 0.8592341542
v -25.1916256 5.405843258 2.400000334
vn 0.2597980499 -0.6291234493 -0.7326040268
v -37.59999847 3.809999943 2.400000334
vn 0.8446400166 -0.1649621129 -0.5092844963
v -20.89999771 3.799999952 2.614274308e-07
vn -0.4208106995 0.08097525686 -0.9035272002
v -38.60099792 12 3.500000477
vn -0.2618513405 0.3264588416 0.9082171917
v -24.3515625 5.534734249 3.500000477
vn -0.01972016878 -0.2593251169 0.9655887485
v -38.60099792 12 2.614274308e-07
vn -0.4317876697 0.5383241177 -0.7237171531
v -34.32049942 5.515000343 3.500000477
vn 0.03871792182 -0.2120129317 0.9764995575
v -32.19599915 0.6700000167 2.400000334
vn -0.4558454752 0.7945786715 -0.4010605812
v -34.59999847 -3 2.614274308e-07
vn -0.2532625198 -0.5004438162 -0.8278974295
v -34.70199966 -6.000999928 2.614274308e-07
vn -0.7231884599 -0.6611170769 -0.1998064518
v -32.45437622 2.967499971 2.400000334
vn -0.2041048855 0.1073774174 -0.9730423093
v -34.59999847 -3 3.500000477
vn -0.03841014951 -0.07589800656 0.9963755012
v -32.24522018 3.780062675 2.400000334
vn -0.6572669744 -0.0132052023 -0.7535421252
v -38.60099792 -3 3.500000477
vn -0.7959433198 -0.2123046964 0.5669223666
v -32.30750275 3.341546774 2.400000334
vn -0.6746789217 0.1588288844 -0.7208201885
v -22.70400047 6.925000191 2.400000334
vn -0.2847543359 -0.8220971823 -0.4930225313
v -33.28026581 5.391859531 3.500000477
vn -0.05208961293 -0.1214063317 0.9912351966
v -35.4266243 4.786797523 3.500000477
vn 0.2108795196 -0.1304569989 0.968767643
v -33.8583107 2.061156034 3.500000477
vn -0.03121446259 0.2827596366 0.9586827755
v -33.30746841 2.19806242 3.500000477
vn -0.1513302773 0.368901819 0.9170662761
v -19.89999962 12 2.614274308e-07
vn 0.4476575851 0.3655101955 -0.8160912991
v -19.89999962 4.096000195 3.500000477
vn 0.8972548246 2.703487962e-17 0.4415130913
v -35.80400085 0.6800000072 2.614274308e-07
vn 0.154175356 0.4410884678 -0.8841215372
v -22.84590721 4.342750072 3.500000477
vn -0.3551932871 -0.1264126301 0.9262059927
v -23.84681129 2.182687521 3.500000477
vn -0.1086403579 0.2916931808 0.9503222704
v -35.78699875 6.929999828 2.614274308e-07
vn 0.3173317611 -0.5531364083 -0.7702860832
v -23.03164101 4.727265835 3.500000477
vn -0.05452235788 -0.03386082128 0.9979382753
v -26.05500031 3.000484228 2.400000334
vn 0.2555285096 0.1347332895 -0.957367301
v -32.4659996 4.638999939 3.500000477
vn -0.4489614666 -0.2290802747 0.8636873364
v -34.74929428 2.230546951 2.400000334
vn 0.3109693229 0.5631754398 -0.7655922771
v -25.79709244 2.619312286 3.500000477
vn 0.13269867 0.109873116 0.985047698
v -34.74929428 2.230546951 3.500000477
vn 0.02163241431 0.05133634433 0.9984471202
v -35.78699875 6.929999828 2.400000334
vn 0.3805029988 -0.6632492542 -0.6444516182
v -37.59999847 3.809999943 2.614274308e-07
vn 0.4207454026 0.07979777455 -0.903662324
v -35.46587372 2.860812664 2.400000334
vn 0.2048003525 0.1196004972 -0.9714692831
v -33.98668671 2.05099988 2.400000334
vn 0.004027325194 0.2025226504 -0.9792693257
v -20.89999771 3.799999952 2.400000334
vn -0.8583724499 -0.1651738584 -0.4857101142
v -35.64006424 4.364062309 2.400000334
vn 0.7487085462 -0.2757653594 -0.6028175354
v -33.56329727 5.486875057 2.400000334
vn -0.1645185202 -0.6993060708 -0.6956325769
v -34.10552979 5.540937424 2.400000334
vn 0.005954208784 -0.2315622419 -0.9728018641
v -33.30793762 2.191781282 2.400000334
vn -0.2041144222 0.4697932005 -0.8588548303
v -26.18268776 3.29906249 3.500000477
vn 0.0316788815 0.01017212216 0.9994463325
v -24.00099945 -6.000999928 3.500000477
vn 0.09717344493 -0.9498441219 0.2972430885
v -26.03789139 2.958265543 3.500000477
vn 0.09154784679 0.05193148553 0.994445622
v -26.25418663 3.900781155 2.400000334
vn 0.70746243 -0.04815725237 -0.7051083446
v -23.22846794 2.611500025 3.500000477
vn -0.1276376694 0.1173466742 0.9848545194
v -32.17900085 6.920000076 2.400000334
vn -0.2862234116 -0.8188712001 -0.4975199401
v -34.74987411 5.369046688 3.500000477
vn 0.1096442342 -0.2238470912 0.9684371948
v -24.81718636 5.519249916 2.400000334
vn 0.0973430723 -0.7253730297 -0.6814383864
v -22.70400047 6.925000191 2.614274308e-07
vn -0.3498914242 -0.4040267169 -0.8451854587
# mm_gid 0
g mmGroup0
f 112//112 102//102 104//104 
f 104//104 19//19 112//112 
f 74//74 28//28 20//20 
f 18//18 28//28 74//74 
f 15//15 53//53 111//111 
f 15//15 111//111 2//2 
f 10//10 13//13 2//2 
f 148//148 135//135 114//114 
f 26//26 13//13 10//10 
f 110//110 140//140 26//26 
f 57//57 110//110 26//26 
f 92//92 91//91 98//98 
f 2//2 111//111 113//113 
f 111//111 53//53 43//43 
f 92//92 98//98 103//103 
f 10//10 2//2 113//113 
f 111//111 43//43 113//113 
f 109//109 10//10 113//113 
f 113//113 43//43 109//109 
f 10//10 109//109 26//26 
f 26//26 109//109 25//25 
f 120//120 98//98 125//125 
f 91//91 125//125 98//98 
f 109//109 106//106 25//25 
f 148//148 36//36 119//119 
f 119//119 101//101 148//148 
f 104//104 119//119 36//36 
f 119//119 48//48 101//101 
f 35//35 101//101 48//48 
f 36//36 51//51 104//104 
f 74//74 51//51 36//36 
f 35//35 49//49 20//20 
f 20//20 31//31 74//74 
f 31//31 51//51 74//74 
f 20//20 30//30 38//38 
f 31//31 20//20 38//38 
f 51//51 124//124 104//104 
f 132//132 104//104 124//124 
f 38//38 107//107 121//121 
f 121//121 19//19 132//132 
f 49//49 35//35 48//48 
f 49//49 27//27 30//30 
f 107//107 38//38 30//30 
f 20//20 49//49 30//30 
f 97//97 30//30 27//27 
f 107//107 19//19 121//121 
f 104//104 132//132 19//19 
f 30//30 108//108 21//21 
f 107//107 30//30 21//21 
f 122//122 120//120 125//125 
f 42//42 45//45 125//125 
f 31//31 38//38 106//106 
f 29//29 120//120 122//122 
f 106//106 43//43 31//31 
f 135//135 42//42 114//114 
f 103//103 90//90 92//92 
f 94//94 91//91 92//92 
f 104//104 102//102 98//98 
f 90//90 46//46 92//92 
f 46//46 90//90 114//114 
f 94//94 92//92 46//46 
f 94//94 46//46 114//114 
f 103//103 58//58 90//90 
f 114//114 90//90 58//58 
f 125//125 91//91 37//37 
f 122//122 125//125 45//45 
f 72//72 98//98 115//115 
f 37//37 94//94 114//114 
f 94//94 37//37 91//91 
f 37//37 42//42 125//125 
f 37//37 114//114 42//42 
f 135//135 45//45 42//42 
f 115//115 98//98 23//23 
f 98//98 102//102 23//23 
f 115//115 23//23 137//137 
f 29//29 122//122 45//45 
f 105//105 23//23 102//102 
f 138//138 23//23 105//105 
f 148//148 101//101 135//135 
f 34//34 36//36 114//114 
f 120//120 48//48 119//119 
f 146//146 105//105 102//102 
f 9//9 105//105 146//146 
f 32//32 9//9 146//146 
f 120//120 29//29 33//33 
f 41//41 33//33 29//29 
f 47//47 120//120 33//33 
f 52//52 72//72 115//115 
f 24//24 120//120 47//47 
f 52//52 145//145 16//16 
f 16//16 72//72 52//52 
f 144//144 12//12 24//24 
f 52//52 115//115 137//137 
f 52//52 137//137 145//145 
f 144//144 77//77 12//12 
f 56//56 12//12 77//77 
f 77//77 123//123 56//56 
f 8//8 56//56 123//123 
f 138//138 145//145 137//137 
f 137//137 23//23 138//138 
f 89//89 56//56 8//8 
f 9//9 138//138 105//105 
f 9//9 131//131 138//138 
f 145//145 138//138 131//131 
f 9//9 32//32 131//131 
f 102//102 67//67 146//146 
f 41//41 29//29 45//45 
f 67//67 102//102 116//116 
f 116//116 44//44 67//67 
f 47//47 33//33 69//69 
f 50//50 67//67 44//44 
f 41//41 45//45 135//135 
f 39//39 60//60 135//135 
f 69//69 33//33 41//41 
f 41//41 135//135 69//69 
f 69//69 135//135 60//60 
f 47//47 69//69 60//60 
f 4//4 60//60 39//39 
f 60//60 4//4 47//47 
f 116//116 102//102 17//17 
f 4//4 70//70 24//24 
f 144//144 24//24 70//70 
f 17//17 136//136 116//116 
f 144//144 70//70 77//77 
f 95//95 77//77 70//70 
f 24//24 47//47 4//4 
f 70//70 4//4 39//39 
f 67//67 50//50 146//146 
f 95//95 70//70 39//39 
f 32//32 50//50 131//131 
f 146//146 50//50 32//32 
f 123//123 96//96 8//8 
f 123//123 54//54 96//96 
f 123//123 77//77 54//54 
f 95//95 39//39 54//54 
f 95//95 54//54 77//77 
f 50//50 44//44 131//131 
f 96//96 39//39 80//80 
f 80//80 8//8 96//96 
f 89//89 8//8 80//80 
f 116//116 136//136 44//44 
f 136//136 100//100 44//44 
f 100//100 131//131 44//44 
f 131//131 100//100 124//124 
f 131//131 124//124 145//145 
f 51//51 145//145 124//124 
f 124//124 100//100 132//132 
f 28//28 80//80 39//39 
f 54//54 39//39 96//96 
f 101//101 35//35 39//39 
f 35//35 20//20 39//39 
f 28//28 39//39 20//20 
f 101//101 39//39 135//135 
f 26//26 25//25 57//57 
f 22//22 118//118 57//57 
f 34//34 18//18 36//36 
f 65//65 103//103 98//98 
f 117//117 110//110 118//118 
f 65//65 98//98 55//55 
f 99//99 147//147 65//65 
f 65//65 55//55 99//99 
f 11//11 110//110 117//117 
f 98//98 40//40 55//55 
f 63//63 55//55 40//40 
f 134//134 11//11 117//117 
f 11//11 130//130 110//110 
f 112//112 110//110 130//130 
f 76//76 63//63 40//40 
f 11//11 61//61 130//130 
f 76//76 40//40 82//82 
f 22//22 139//139 118//118 
f 118//118 73//73 117//117 
f 59//59 63//63 76//76 
f 82//82 40//40 62//62 
f 62//62 71//71 82//82 
f 57//57 25//25 22//22 
f 22//22 25//25 106//106 
f 147//147 103//103 65//65 
f 22//22 106//106 139//139 
f 139//139 106//106 73//73 
f 139//139 73//73 118//118 
f 55//55 63//63 59//59 
f 59//59 99//99 55//55 
f 147//147 99//99 34//34 
f 147//147 34//34 58//58 
f 103//103 147//147 58//58 
f 114//114 58//58 34//34 
f 117//117 73//73 134//134 
f 128//128 130//130 61//61 
f 73//73 106//106 134//134 
f 134//134 61//61 11//11 
f 61//61 134//134 68//68 
f 128//128 61//61 68//68 
f 112//112 3//3 102//102 
f 17//17 102//102 3//3 
f 81//81 3//3 112//112 
f 59//59 34//34 99//99 
f 59//59 64//64 34//34 
f 76//76 64//64 59//59 
f 82//82 64//64 76//76 
f 88//88 136//136 3//3 
f 66//66 81//81 112//112 
f 84//84 112//112 130//130 
f 66//66 112//112 84//84 
f 64//64 82//82 71//71 
f 71//71 18//18 64//64 
f 148//148 114//114 36//36 
f 74//74 36//36 18//18 
f 98//98 72//72 40//40 
f 130//130 128//128 84//84 
f 15//15 40//40 127//127 
f 17//17 3//3 136//136 
f 43//43 75//75 145//145 
f 85//85 93//93 81//81 
f 127//127 40//40 72//72 
f 136//136 88//88 100//100 
f 81//81 93//93 3//3 
f 15//15 2//2 40//40 
f 106//106 109//109 43//43 
f 88//88 3//3 93//93 
f 93//93 100//100 88//88 
f 93//93 85//85 100//100 
f 85//85 133//133 100//100 
f 72//72 75//75 127//127 
f 66//66 133//133 81//81 
f 14//14 133//133 66//66 
f 14//14 84//84 128//128 
f 53//53 15//15 127//127 
f 75//75 16//16 145//145 
f 72//72 16//16 75//75 
f 75//75 43//43 53//53 
f 75//75 53//53 127//127 
f 66//66 84//84 14//14 
f 81//81 133//133 85//85 
f 68//68 100//100 133//133 
f 51//51 31//31 43//43 
f 51//51 43//43 145//145 
f 143//143 71//71 62//62 
f 2//2 13//13 40//40 
f 62//62 40//40 13//13 
f 14//14 68//68 133//133 
f 14//14 128//128 68//68 
f 57//57 118//118 110//110 
f 68//68 134//134 106//106 
f 13//13 26//26 140//140 
f 140//140 110//110 142//142 
f 106//106 121//121 68//68 
f 38//38 121//121 106//106 
f 100//100 68//68 132//132 
f 68//68 121//121 132//132 
f 89//89 86//86 56//56 
f 80//80 6//6 89//89 
f 110//110 56//56 86//86 
f 79//79 110//110 86//86 
f 48//48 120//120 12//12 
f 120//120 24//24 12//12 
f 86//86 5//5 79//79 
f 142//142 110//110 129//129 
f 129//129 110//110 79//79 
f 49//49 12//12 56//56 
f 1//1 78//78 110//110 
f 56//56 110//110 78//78 
f 78//78 27//27 56//56 
f 12//12 49//49 48//48 
f 27//27 78//78 141//141 
f 27//27 141//141 97//97 
f 49//49 56//56 27//27 
f 78//78 1//1 141//141 
f 83//83 30//30 141//141 
f 97//97 141//141 30//30 
f 83//83 141//141 1//1 
f 143//143 18//18 71//71 
f 34//34 64//64 18//18 
f 143//143 62//62 13//13 
f 13//13 87//87 143//143 
f 143//143 87//87 18//18 
f 107//107 112//112 19//19 
f 110//110 112//112 107//107 
f 1//1 21//21 108//108 
f 1//1 108//108 83//83 
f 1//1 107//107 21//21 
f 110//110 107//107 1//1 
f 30//30 83//83 108//108 
f 87//87 13//13 140//140 
f 87//87 126//126 18//18 
f 87//87 140//140 126//126 
f 140//140 142//142 126//126 
f 6//6 86//86 89//89 
f 6//6 80//80 28//28 
f 79//79 5//5 7//7 
f 6//6 28//28 5//5 
f 5//5 86//86 6//6 
f 142//142 129//129 126//126 
f 28//28 18//18 126//126 
f 120//120 119//119 98//98 
f 104//104 98//98 119//119 
f 126//126 7//7 28//28 
f 126//126 129//129 7//7 
f 79//79 7//7 129//129 
f 7//7 5//5 28//28 
