<?xml version="1.0" encoding="UTF-8"?>
<svg xmlns="http://www.w3.org/2000/svg" xmlns:xlink="http://www.w3.org/1999/xlink" width="2193.28pt" height="198.66pt" viewBox="0 0 2193.28 198.66" version="1.1">
<defs>
<clipPath id="clip1">
  <path d="M 1817 0 L 2120 0 L 2120 198.660156 L 1817 198.660156 Z M 1817 0 "/>
</clipPath>
<clipPath id="clip2">
  <path d="M 2142 0 L 2193.28125 0 L 2193.28125 51 L 2142 51 Z M 2142 0 "/>
</clipPath>
</defs>
<g id="surface1">
<path style=" stroke:none;fill-rule:nonzero;fill:rgb(0%,0%,0%);fill-opacity:1;" d="M 710.128906 57.839844 C 705.351563 71.769531 700.816406 84.976563 696.289063 98.183594 C 685.328125 130.167969 674.355469 162.144531 663.429688 194.136719 C 662.742188 196.148438 662.113281 197.539063 659.445313 197.527344 C 638.070313 197.410156 616.695313 197.460938 595.324219 197.449219 C 594.59375 197.449219 593.859375 197.296875 592.636719 197.164063 C 593.132813 195.699219 593.507813 194.441406 593.980469 193.21875 C 618.210938 130.488281 642.464844 67.765625 666.628906 5.011719 C 667.675781 2.285156 668.917969 1.292969 671.960938 1.3125 C 698.082031 1.457031 724.207031 1.394531 750.332031 1.394531 C 761.238281 1.398438 764.90625 3.925781 769.003906 14.035156 C 785.550781 54.851563 802.117188 95.660156 818.679688 136.472656 C 819.195313 137.738281 819.777344 138.972656 820.632813 140.910156 C 821.625 138.203125 822.449219 136.074219 823.191406 133.914063 C 837.992188 90.722656 852.769531 47.519531 867.652344 4.355469 C 868.0625 3.164063 869.636719 1.53125 870.675781 1.527344 C 893.039063 1.363281 915.40625 1.402344 938.234375 1.402344 C 937.863281 2.65625 937.648438 3.671875 937.277344 4.628906 C 912.871094 67.828125 888.4375 131.019531 864.09375 194.246094 C 863.109375 196.800781 861.769531 197.527344 859.148438 197.515625 C 829.777344 197.433594 800.402344 197.402344 771.027344 197.550781 C 767.785156 197.566406 766.535156 196.332031 765.410156 193.554688 C 747.609375 149.476563 729.710938 105.4375 711.820313 61.394531 C 711.449219 60.484375 710.976563 59.613281 710.128906 57.839844 "/>
<path style=" stroke:none;fill-rule:nonzero;fill:rgb(0%,0%,0%);fill-opacity:1;" d="M 1812.328125 1.550781 C 1809.160156 9.785156 1806.078125 17.789063 1802.988281 25.792969 C 1800.339844 32.660156 1797.539063 39.46875 1795.101563 46.410156 C 1794.109375 49.246094 1792.699219 50.082031 1789.710938 50.078125 C 1738.339844 49.972656 1686.96875 50.0625 1635.609375 49.886719 C 1631.589844 49.871094 1629.921875 51.179688 1628.710938 54.753906 C 1626.441406 61.449219 1623.730469 67.996094 1621.058594 74.972656 L 1783.929688 74.972656 C 1780.71875 83.34375 1777.660156 91.351563 1774.570313 99.351563 C 1772.019531 105.984375 1769.160156 112.519531 1766.960938 119.269531 C 1765.761719 122.957031 1763.871094 123.746094 1760.230469 123.734375 C 1721.109375 123.589844 1681.988281 123.636719 1642.871094 123.648438 C 1630.5 123.652344 1618.128906 123.785156 1605.761719 123.695313 C 1603.160156 123.679688 1601.730469 124.304688 1600.800781 126.933594 C 1598.269531 134.085938 1595.421875 141.121094 1592.46875 148.78125 L 1755.160156 148.78125 C 1754.558594 150.621094 1754.210938 151.890625 1753.738281 153.109375 C 1748.488281 166.730469 1743.148438 180.316406 1738.03125 193.980469 C 1737.039063 196.636719 1735.730469 197.527344 1732.890625 197.527344 C 1657.910156 197.449219 1582.921875 197.464844 1507.929688 197.464844 L 1503.96875 197.464844 C 1504.488281 195.925781 1504.808594 194.816406 1505.21875 193.742188 C 1529.589844 130.671875 1553.980469 67.605469 1578.289063 4.507813 C 1579.199219 2.136719 1580.289063 1.335938 1582.839844 1.335938 C 1658.210938 1.410156 1733.570313 1.394531 1808.929688 1.402344 C 1809.921875 1.402344 1810.910156 1.484375 1812.328125 1.550781 "/>
<g clip-path="url(#clip1)" clip-rule="nonzero">
<path style=" stroke:none;fill-rule:nonzero;fill:rgb(0%,0%,0%);fill-opacity:1;" d="M 2062.371094 148.644531 C 2055.78125 165.699219 2049.460938 182.078125 2043.058594 198.644531 C 2041.488281 198.644531 2040 198.644531 2038.511719 198.644531 C 1985.390625 198.644531 1932.269531 198.695313 1879.148438 198.605469 C 1867.019531 198.585938 1854.921875 197.675781 1843.230469 194.085938 C 1830.601563 190.214844 1821 183.148438 1818.628906 169.203125 C 1817.25 161.074219 1817.921875 152.882813 1820.46875 145.113281 C 1824.699219 132.207031 1829.269531 119.390625 1834.179688 106.726563 C 1840.941406 89.285156 1847.328125 71.632813 1855.339844 54.761719 C 1870.121094 23.652344 1895.539063 6.484375 1929.558594 2.300781 C 1940.441406 0.960938 1951.460938 0.285156 1962.421875 0.238281 C 2013.160156 0.0273438 2063.910156 0.144531 2114.648438 0.144531 L 2119.609375 0.144531 C 2118.769531 2.515625 2118.121094 4.492188 2117.378906 6.425781 C 2112.210938 19.808594 2106.921875 33.148438 2101.921875 46.59375 C 2100.859375 49.464844 2099.460938 50.222656 2096.519531 50.214844 C 2051.398438 50.113281 2006.28125 50.183594 1961.160156 50.128906 C 1939.710938 50.101563 1923.449219 58.832031 1915.011719 78.917969 C 1908.210938 95.089844 1902.140625 111.640625 1896.941406 128.394531 C 1893.511719 139.449219 1898.558594 145.914063 1909.910156 147.792969 C 1913.339844 148.359375 1916.859375 148.605469 1920.339844 148.609375 C 1965.960938 148.664063 2011.578125 148.644531 2057.199219 148.644531 "/>
</g>
<path style=" stroke:none;fill-rule:nonzero;fill:rgb(0%,0%,0%);fill-opacity:1;" d="M 1203.78125 197.273438 C 1202.269531 197.339844 1200.929688 197.457031 1199.601563 197.457031 C 1178.351563 197.46875 1157.109375 197.402344 1135.859375 197.53125 C 1132.660156 197.550781 1131.320313 196.726563 1130.820313 193.386719 C 1126.609375 164.988281 1122.191406 136.625 1117.890625 108.242188 C 1115.71875 93.929688 1113.679688 79.597656 1111.46875 64.519531 C 1110.308594 65.65625 1109.449219 66.398438 1108.699219 67.246094 C 1071.539063 109.75 1034.390625 152.277344 997.144531 194.710938 C 995.933594 196.09375 993.6875 197.335938 991.914063 197.347656 C 966.296875 197.515625 940.675781 197.464844 915.058594 197.453125 C 914.121094 197.453125 913.1875 197.285156 911.539063 197.132813 C 917.359375 190.820313 922.726563 184.972656 928.128906 179.15625 C 979.472656 123.886719 1030.800781 68.605469 1082.191406 13.386719 C 1089.558594 5.464844 1098.46875 1.035156 1109.730469 1.300781 C 1125.71875 1.675781 1141.71875 1.378906 1157.71875 1.402344 C 1167.859375 1.417969 1172.511719 5.441406 1174.160156 15.519531 C 1183.820313 74.390625 1193.488281 133.257813 1203.140625 192.128906 C 1203.398438 193.710938 1203.539063 195.3125 1203.78125 197.273438 "/>
<path style=" stroke:none;fill-rule:nonzero;fill:rgb(0%,0%,0%);fill-opacity:1;" d="M 549.449219 197.25 C 547.847656 197.332031 546.625 197.453125 545.402344 197.453125 C 524.15625 197.464844 502.90625 197.371094 481.664063 197.550781 C 478.070313 197.582031 477.066406 196.265625 476.585938 193.003906 C 470.386719 151.144531 464.074219 109.300781 457.773438 67.457031 C 457.648438 66.628906 457.324219 65.835938 456.9375 64.472656 C 449.644531 72.8125 442.675781 80.785156 435.707031 88.753906 C 404.621094 124.300781 373.546875 159.859375 342.398438 195.351563 C 341.464844 196.414063 339.730469 197.367188 338.367188 197.371094 C 312.121094 197.488281 285.875 197.453125 259.628906 197.441406 C 259.144531 197.441406 258.65625 197.316406 257.449219 197.152344 C 259.089844 195.292969 260.402344 193.742188 261.785156 192.253906 C 317.203125 132.582031 372.601563 72.890625 428.089844 13.277344 C 435.347656 5.476563 444.175781 1.058594 455.300781 1.304688 C 471.289063 1.660156 487.292969 1.382813 503.289063 1.402344 C 513.75 1.414063 518.4375 5.710938 520.09375 16.046875 C 524.835938 45.625 529.726563 75.179688 534.570313 104.742188 C 539.4375 134.425781 544.324219 164.109375 549.1875 193.792969 C 549.347656 194.769531 549.34375 195.773438 549.449219 197.25 "/>
<path style=" stroke:none;fill-rule:nonzero;fill:rgb(0%,0%,0%);fill-opacity:1;" d="M 1346.320313 51.625 L 1256.109375 51.625 C 1257.101563 49.011719 1257.921875 46.816406 1258.761719 44.628906 C 1263.921875 31.242188 1269.140625 17.875 1274.210938 4.453125 C 1275.019531 2.3125 1275.929688 1.335938 1278.429688 1.335938 C 1361.171875 1.410156 1443.921875 1.394531 1526.671875 1.40625 C 1527.511719 1.40625 1528.351563 1.523438 1529.570313 1.617188 C 1526.28125 10.105469 1523.089844 18.34375 1519.910156 26.582031 C 1517.078125 33.917969 1514.171875 41.21875 1511.5 48.613281 C 1510.628906 51.015625 1509.410156 51.71875 1506.878906 51.710938 C 1479.25 51.605469 1451.628906 51.695313 1424.011719 51.570313 C 1421.128906 51.558594 1419.96875 52.5 1418.96875 55.113281 C 1401.191406 101.34375 1383.269531 147.519531 1365.5 193.753906 C 1364.429688 196.535156 1363.191406 197.558594 1360.148438 197.539063 C 1338.160156 197.398438 1316.160156 197.464844 1294.160156 197.457031 C 1293.050781 197.457031 1291.929688 197.363281 1290.058594 197.28125 C 1308.839844 148.648438 1327.488281 100.378906 1346.320313 51.625 "/>
<path style=" stroke:none;fill-rule:nonzero;fill:rgb(0%,0%,0%);fill-opacity:1;" d="M 0 197.117188 C 3.039063 189.179688 5.90625 181.625 8.816406 174.089844 C 20.246094 144.53125 31.714844 114.988281 43.070313 85.398438 C 43.960938 83.070313 45.015625 82.125 47.617188 82.128906 C 121.238281 82.199219 194.863281 82.183594 268.488281 82.195313 C 269.46875 82.195313 270.449219 82.324219 271.832031 82.421875 C 268.648438 90.691406 265.574219 98.703125 262.484375 106.710938 C 259.652344 114.042969 256.613281 121.300781 254.042969 128.722656 C 252.96875 131.835938 251.527344 132.84375 248.207031 132.835938 C 199.457031 132.714844 150.707031 132.8125 101.957031 132.644531 C 97.875 132.628906 96.171875 133.960938 94.792969 137.644531 C 87.699219 156.570313 80.304688 175.382813 73.058594 194.25 C 72.355469 196.078125 71.796875 197.523438 69.28125 197.511719 C 46.90625 197.414063 24.53125 197.449219 2.15625 197.433594 C 1.671875 197.433594 1.1875 197.296875 0 197.117188 "/>
<path style=" stroke:none;fill-rule:nonzero;fill:rgb(0%,0%,0%);fill-opacity:1;" d="M 55.132813 53.8125 C 59.8125 42.285156 63.386719 30.863281 68.929688 20.488281 C 75.609375 7.992188 86.800781 1.375 101.4375 1.382813 C 171.933594 1.414063 242.425781 1.394531 312.921875 1.394531 C 314.285156 1.394531 315.652344 1.394531 317.324219 1.394531 C 316.992188 2.582031 316.8125 3.523438 316.472656 4.398438 C 310.503906 19.882813 304.496094 35.347656 298.566406 50.847656 C 297.789063 52.878906 296.992188 54.070313 294.402344 54.066406 C 215.535156 53.984375 136.671875 54 57.800781 53.996094 C 57.191406 53.996094 56.578125 53.914063 55.132813 53.8125 "/>
<g clip-path="url(#clip2)" clip-rule="nonzero">
<path style=" stroke:none;fill-rule:nonzero;fill:rgb(0%,0%,0%);fill-opacity:1;" d="M 2168.179688 44.980469 C 2178.980469 44.90625 2187.96875 35.769531 2187.808594 25.011719 C 2187.648438 14.078125 2178.671875 5.308594 2167.800781 5.46875 C 2157.128906 5.621094 2148.28125 14.574219 2148.289063 25.191406 C 2148.308594 35.960938 2157.449219 45.050781 2168.179688 44.980469 M 2168.210938 50.40625 C 2154.21875 50.492188 2142.96875 39.355469 2142.859375 25.304688 C 2142.75 11.464844 2153.878906 0.0820313 2167.601563 0.00390625 C 2181.839844 -0.078125 2193.171875 10.816406 2193.28125 24.691406 C 2193.390625 39.09375 2182.441406 50.320313 2168.210938 50.40625 "/>
</g>
<path style=" stroke:none;fill-rule:nonzero;fill:rgb(100%,100%,100%);fill-opacity:1;" d="M 2174.210938 26.828125 C 2178.390625 25.269531 2179.769531 21.820313 2180.859375 18.183594 C 2181.921875 14.628906 2180.839844 12.9375 2177.070313 12.753906 C 2172.960938 12.554688 2168.828125 12.601563 2164.71875 12.71875 C 2163.949219 12.738281 2162.789063 13.421875 2162.511719 14.089844 C 2159.53125 21.191406 2156.691406 28.351563 2153.640625 35.910156 C 2156.511719 35.503906 2159.390625 37.585938 2160.929688 33.707031 C 2162.710938 29.246094 2163.339844 29.105469 2168.910156 30.570313 C 2168.53125 32.273438 2168.140625 33.988281 2167.539063 36.6875 C 2170.171875 35.894531 2172.921875 35.894531 2173.878906 34.585938 C 2175.359375 32.539063 2177.390625 29.714844 2174.210938 26.828125 M 2168.179688 44.980469 C 2157.449219 45.050781 2148.308594 35.960938 2148.300781 25.191406 C 2148.28125 14.574219 2157.128906 5.621094 2167.800781 5.46875 C 2178.671875 5.308594 2187.648438 14.078125 2187.808594 25.011719 C 2187.96875 35.769531 2178.980469 44.90625 2168.179688 44.980469 "/>
<path style=" stroke:none;fill-rule:nonzero;fill:rgb(0%,0%,0%);fill-opacity:1;" d="M 2165.011719 24.027344 C 2171.550781 25.039063 2173.160156 23.972656 2173.480469 18.632813 C 2167.640625 16.964844 2167.089844 17.296875 2165.011719 24.027344 M 2174.210938 26.828125 C 2177.390625 29.71875 2175.359375 32.539063 2173.878906 34.585938 C 2172.921875 35.894531 2170.171875 35.894531 2167.539063 36.691406 C 2168.140625 33.988281 2168.53125 32.273438 2168.910156 30.570313 C 2163.339844 29.105469 2162.710938 29.25 2160.929688 33.703125 C 2159.390625 37.585938 2156.511719 35.503906 2153.640625 35.910156 C 2156.691406 28.351563 2159.53125 21.191406 2162.511719 14.089844 C 2162.789063 13.421875 2163.949219 12.738281 2164.71875 12.71875 C 2168.828125 12.601563 2172.960938 12.554688 2177.070313 12.753906 C 2180.839844 12.9375 2181.921875 14.628906 2180.859375 18.183594 C 2179.769531 21.820313 2178.390625 25.269531 2174.210938 26.828125 "/>
<path style=" stroke:none;fill-rule:nonzero;fill:rgb(100%,100%,100%);fill-opacity:1;" d="M 2165.011719 24.027344 C 2167.089844 17.296875 2167.640625 16.964844 2173.480469 18.632813 C 2173.160156 23.972656 2171.550781 25.039063 2165.011719 24.027344 "/>
</g>
</svg>
