999
"DXF R12 Output" (www.mydxf.blogspot.com)
 0 
SECTION
 2 
HEADER
 9 
$ACADVER
 1 
AC1009
 9 
$EXTMIN
 10 
 0 
 20 
 0 
 9 
$EXTMAX
 10 
 8.5 
 20 
 11 
 0 
ENDSEC
 0 
SECTION
 2 
ENTITIES
0
LINE
8
Image
10
20.633200
20
33.546400
11
30.143430
21
58.029200
0
LINE
8
Image
10
30.143430
20
58.029200
11
36.493820
21
74.398100
0
LINE
8
Image
10
36.493820
20
74.398100
11
49.455820
21
107.841400
0
LINE
8
Image
10
49.455820
20
107.841400
11
51.748480
21
113.768060
0
LINE
8
Image
10
51.748480
20
113.768060
11
111.360380
21
113.839265
0
LINE
8
Image
10
111.360380
20
113.839265
11
153.461205
21
113.827214
0
LINE
8
Image
10
153.461205
20
113.827214
11
170.972080
21
113.698154
0
LINE
8
Image
10
170.972080
20
113.698154
11
169.678939
21
110.121605
0
LINE
8
Image
10
169.678939
20
110.121605
11
159.799080
21
84.628654
0
LINE
8
Image
10
159.799080
20
84.628654
11
140.443380
21
34.675354
0
LINE
8
Image
10
140.443380
20
34.675354
11
139.887290
21
33.193684
0
LINE
8
Image
10
139.887290
20
33.193684
11
80.187400
21
33.193600
0
LINE
8
Image
10
80.187400
20
33.193600
11
32.498125
21
33.264399
0
LINE
8
Image
10
32.498125
20
33.264399
11
23.188769
21
33.372468
0
LINE
8
Image
10
23.188769
20
33.372468
11
20.633200
21
33.546378
0
LINE
8
Image
10
20.633200
20
33.546378
11
20.633200
21
33.546400
0
LINE
8
Image
10
71.912300
20
165.546000
11
73.725040
21
170.599740
0
LINE
8
Image
10
73.725040
20
170.599740
11
81.218340
21
189.968240
0
LINE
8
Image
10
81.218340
20
189.968240
11
90.106780
21
212.969340
0
LINE
8
Image
10
90.106780
20
212.969340
11
98.021920
21
233.430440
0
LINE
8
Image
10
98.021920
20
233.430440
11
103.286550
21
247.047640
0
LINE
8
Image
10
103.286550
20
247.047640
11
103.843938
21
248.529310
0
LINE
8
Image
10
103.843938
20
248.529310
11
296.440000
21
248.529000
0
LINE
8
Image
10
296.440000
20
248.529000
11
489.036000
21
248.396477
0
LINE
8
Image
10
489.036000
20
248.396477
11
474.911600
21
211.699077
0
LINE
8
Image
10
474.911600
20
211.699077
11
457.393600
21
166.485577
0
LINE
8
Image
10
457.393600
20
166.485577
11
457.003767
21
165.580951
0
LINE
8
Image
10
457.003767
20
165.580951
11
264.457767
21
165.382947
0
LINE
8
Image
10
264.457767
20
165.382947
11
109.601517
21
165.294319
0
LINE
8
Image
10
109.601517
20
165.294319
11
80.028361
21
165.374196
0
LINE
8
Image
10
80.028361
20
165.374196
11
71.911767
21
165.545696
0
LINE
8
Image
10
71.911767
20
165.545696
11
71.912300
21
165.546000
0
LINE
8
Image
10
123.841100
20
300.069000
11
126.695100
21
307.618640
0
LINE
8
Image
10
126.695100
20
307.618640
11
134.564320
21
327.974740
0
LINE
8
Image
10
134.564320
20
327.974740
11
140.172224
21
342.423957
0
LINE
8
Image
10
140.172224
20
342.423957
11
143.446295
21
350.460553
0
LINE
8
Image
10
143.446295
20
350.460553
11
145.588428
21
354.839642
0
LINE
8
Image
10
145.588428
20
354.839642
11
147.800520
21
358.316340
0
LINE
8
Image
10
147.800520
20
358.316340
11
149.672366
21
360.962218
0
LINE
8
Image
10
149.672366
20
360.962218
11
151.663436
21
363.504173
0
LINE
8
Image
10
151.663436
20
363.504173
11
153.768079
21
365.938394
0
LINE
8
Image
10
153.768079
20
365.938394
11
155.980646
21
368.261068
0
LINE
8
Image
10
155.980646
20
368.261068
11
158.295489
21
370.468384
0
LINE
8
Image
10
158.295489
20
370.468384
11
160.706957
21
372.556530
0
LINE
8
Image
10
160.706957
20
372.556530
11
163.209402
21
374.521694
0
LINE
8
Image
10
163.209402
20
374.521694
11
165.797174
21
376.360065
0
LINE
8
Image
10
165.797174
20
376.360065
11
168.464624
21
378.067830
0
LINE
8
Image
10
168.464624
20
378.067830
11
171.206103
21
379.641178
0
LINE
8
Image
10
171.206103
20
379.641178
11
174.015961
21
381.076297
0
LINE
8
Image
10
174.015961
20
381.076297
11
176.888550
21
382.369374
0
LINE
8
Image
10
176.888550
20
382.369374
11
179.818219
21
383.516599
0
LINE
8
Image
10
179.818219
20
383.516599
11
182.799320
21
384.514160
0
LINE
8
Image
10
182.799320
20
384.514160
11
185.826203
21
385.358244
0
LINE
8
Image
10
185.826203
20
385.358244
11
188.893220
21
386.045040
0
LINE
8
Image
10
188.893220
20
386.045040
11
191.997660
21
386.655706
0
LINE
8
Image
10
191.997660
20
386.655706
11
367.076660
21
386.739771
0
LINE
8
Image
10
367.076660
20
386.739771
11
507.365410
21
386.736516
0
LINE
8
Image
10
507.365410
20
386.736516
11
534.522222
21
386.640713
0
LINE
8
Image
10
534.522222
20
386.640713
11
542.019660
21
386.468161
0
LINE
8
Image
10
542.019660
20
386.468161
11
538.492420
21
377.363601
0
LINE
8
Image
10
538.492420
20
377.363601
11
512.043420
21
308.924801
0
LINE
8
Image
10
512.043420
20
308.924801
11
508.617780
21
300.034811
0
LINE
8
Image
10
508.617780
20
300.034811
11
316.229780
21
299.964050
0
LINE
8
Image
10
316.229780
20
299.964050
11
123.841780
21
300.069056
0
LINE
8
Image
10
123.841780
20
300.069056
11
123.841100
21
300.069000
 0 
ENDSEC
 0 
EOF