999
"DXF R12 Output" (www.mydxf.blogspot.com)
 0 
SECTION
 2 
HEADER
 9 
$ACADVER
 1 
AC1009
 9 
$EXTMIN
 10 
 0 
 20 
 0 
 9 
$EXTMAX
 10 
 8.5 
 20 
 11 
 0 
ENDSEC
 0 
SECTION
 2 
ENTITIES
0
LINE
8
Image
10
715.595000
20
49.812800
11
711.633007
21
50.226464
0
LINE
8
Image
10
711.633007
20
50.226464
11
708.196091
21
50.867723
0
LINE
8
Image
10
708.196091
20
50.867723
11
705.261661
21
51.749446
0
LINE
8
Image
10
705.261661
20
51.749446
11
702.807125
21
52.884505
0
LINE
8
Image
10
702.807125
20
52.884505
11
700.809893
21
54.285769
0
LINE
8
Image
10
700.809893
20
54.285769
11
699.247372
21
55.966109
0
LINE
8
Image
10
699.247372
20
55.966109
11
698.096971
21
57.938396
0
LINE
8
Image
10
698.096971
20
57.938396
11
697.336100
21
60.215500
0
LINE
8
Image
10
697.336100
20
60.215500
11
697.105045
21
62.206648
0
LINE
8
Image
10
697.105045
20
62.206648
11
697.161309
21
64.728685
0
LINE
8
Image
10
697.161309
20
64.728685
11
697.482479
21
67.469092
0
LINE
8
Image
10
697.482479
20
67.469092
11
698.046142
21
70.115350
0
LINE
8
Image
10
698.046142
20
70.115350
11
698.677765
21
72.325949
0
LINE
8
Image
10
698.677765
20
72.325949
11
699.592423
21
74.997350
0
LINE
8
Image
10
699.592423
20
74.997350
11
704.517582
21
87.895350
0
LINE
8
Image
10
704.517582
20
87.895350
11
708.504913
21
97.906667
0
LINE
8
Image
10
708.504913
20
97.906667
11
711.561452
21
104.587263
0
LINE
8
Image
10
711.561452
20
104.587263
11
712.938950
21
107.062302
0
LINE
8
Image
10
712.938950
20
107.062302
11
714.321681
21
109.165177
0
LINE
8
Image
10
714.321681
20
109.165177
11
715.788955
21
111.049391
0
LINE
8
Image
10
715.788955
20
111.049391
11
717.420082
21
112.868450
0
LINE
8
Image
10
717.420082
20
112.868450
11
719.586541
21
115.008617
0
LINE
8
Image
10
719.586541
20
115.008617
11
721.700937
21
116.756270
0
LINE
8
Image
10
721.700937
20
116.756270
11
723.956678
21
118.255088
0
LINE
8
Image
10
723.956678
20
118.255088
11
726.547172
21
119.648750
0
LINE
8
Image
10
726.547172
20
119.648750
11
729.074458
21
120.785287
0
LINE
8
Image
10
729.074458
20
120.785287
11
731.679008
21
121.724590
0
LINE
8
Image
10
731.679008
20
121.724590
11
734.539865
21
122.523606
0
LINE
8
Image
10
734.539865
20
122.523606
11
737.836072
21
123.239280
0
LINE
8
Image
10
737.836072
20
123.239280
11
740.238946
21
123.584376
0
LINE
8
Image
10
740.238946
20
123.584376
11
745.104693
21
123.774977
0
LINE
8
Image
10
745.104693
20
123.774977
11
775.583272
21
123.941036
0
LINE
8
Image
10
775.583272
20
123.941036
11
810.226072
21
123.901680
0
LINE
8
Image
10
810.226072
20
123.901680
11
803.250702
21
105.753580
0
LINE
8
Image
10
803.250702
20
105.753580
11
801.843524
21
105.582901
0
LINE
8
Image
10
801.843524
20
105.582901
11
797.186472
21
105.464196
0
LINE
8
Image
10
797.186472
20
105.464196
11
774.568302
21
105.330247
0
LINE
8
Image
10
774.568302
20
105.330247
11
746.020602
21
105.251976
0
LINE
8
Image
10
746.020602
20
105.251976
11
744.045052
21
104.592200
0
LINE
8
Image
10
744.045052
20
104.592200
11
742.320299
21
103.929993
0
LINE
8
Image
10
742.320299
20
103.929993
11
740.735022
21
103.137771
0
LINE
8
Image
10
740.735022
20
103.137771
11
739.278113
21
102.205497
0
LINE
8
Image
10
739.278113
20
102.205497
11
737.938466
21
101.123137
0
LINE
8
Image
10
737.938466
20
101.123137
11
736.704973
21
99.880655
0
LINE
8
Image
10
736.704973
20
99.880655
11
735.566527
21
98.468015
0
LINE
8
Image
10
735.566527
20
98.468015
11
734.512023
21
96.875181
0
LINE
8
Image
10
734.512023
20
96.875181
11
733.530352
21
95.092120
0
LINE
8
Image
10
733.530352
20
95.092120
11
731.994895
21
91.562747
0
LINE
8
Image
10
731.994895
20
91.562747
11
729.898051
21
86.245730
0
LINE
8
Image
10
729.898051
20
86.245730
11
727.943795
21
80.980058
0
LINE
8
Image
10
727.943795
20
80.980058
11
726.836102
21
77.604720
0
LINE
8
Image
10
726.836102
20
77.604720
11
726.399712
21
74.994482
0
LINE
8
Image
10
726.399712
20
74.994482
11
726.465686
21
72.790390
0
LINE
8
Image
10
726.465686
20
72.790390
11
726.683860
21
71.860836
0
LINE
8
Image
10
726.683860
20
71.860836
11
727.023786
21
71.057043
0
LINE
8
Image
10
727.023786
20
71.057043
11
727.484183
21
70.387086
0
LINE
8
Image
10
727.484183
20
70.387086
11
728.063772
21
69.859040
0
LINE
8
Image
10
728.063772
20
69.859040
11
730.357302
21
68.813470
0
LINE
8
Image
10
730.357302
20
68.813470
11
731.912776
21
68.524288
0
LINE
8
Image
10
731.912776
20
68.524288
11
735.910262
21
68.350422
0
LINE
8
Image
10
735.910262
20
68.350422
11
760.288702
21
68.146946
0
LINE
8
Image
10
760.288702
20
68.146946
11
788.667902
21
67.998633
0
LINE
8
Image
10
788.667902
20
67.998633
11
785.121392
21
58.826423
0
LINE
8
Image
10
785.121392
20
58.826423
11
781.574852
21
49.654203
0
LINE
8
Image
10
781.574852
20
49.654203
11
750.109952
21
49.623886
0
LINE
8
Image
10
750.109952
20
49.623886
11
726.991927
21
49.666864
0
LINE
8
Image
10
726.991927
20
49.666864
11
715.595052
21
49.812772
0
LINE
8
Image
10
715.595052
20
49.812772
11
715.595000
21
49.812800
0
LINE
8
Image
10
12.948800
20
50.160700
11
21.234850
21
71.682900
0
LINE
8
Image
10
21.234850
20
71.682900
11
29.520900
21
93.116400
0
LINE
8
Image
10
29.520900
20
93.116400
11
72.280700
21
93.187861
0
LINE
8
Image
10
72.280700
20
93.187861
11
115.040500
21
93.259320
0
LINE
8
Image
10
115.040500
20
93.259320
11
112.665080
21
87.120090
0
LINE
8
Image
10
112.665080
20
87.120090
11
108.999530
21
77.664750
0
LINE
8
Image
10
108.999530
20
77.664750
11
107.709400
21
74.348640
0
LINE
8
Image
10
107.709400
20
74.348640
11
78.439200
21
74.348600
0
LINE
8
Image
10
78.439200
20
74.348600
11
49.168900
21
74.348600
0
LINE
8
Image
10
49.168900
20
74.348600
11
44.502810
21
62.283600
0
LINE
8
Image
10
44.502810
20
62.283600
11
39.836720
21
50.218600
0
LINE
8
Image
10
39.836720
20
50.218600
11
26.392820
21
50.145307
0
LINE
8
Image
10
26.392820
20
50.145307
11
12.948920
21
50.160688
0
LINE
8
Image
10
12.948920
20
50.160688
11
12.948800
21
50.160700
0
LINE
8
Image
10
111.338300
20
51.841390
11
144.092000
21
87.071290
0
LINE
8
Image
10
144.092000
20
87.071290
11
167.623575
21
112.260215
0
LINE
8
Image
10
167.623575
20
112.260215
11
173.957769
21
118.894474
0
LINE
8
Image
10
173.957769
20
118.894474
11
176.540800
21
121.417590
0
LINE
8
Image
10
176.540800
20
121.417590
11
179.321230
21
122.947130
0
LINE
8
Image
10
179.321230
20
122.947130
11
180.329474
21
123.319234
0
LINE
8
Image
10
180.329474
20
123.319234
11
182.030266
21
123.522691
0
LINE
8
Image
10
182.030266
20
123.522691
11
192.018630
21
123.686078
0
LINE
8
Image
10
192.018630
20
123.686078
11
199.021258
21
123.711157
0
LINE
8
Image
10
199.021258
20
123.711157
11
203.013855
21
123.586237
0
LINE
8
Image
10
203.013855
20
123.586237
11
205.098414
21
123.222752
0
LINE
8
Image
10
205.098414
20
123.222752
11
206.376930
21
122.532138
0
LINE
8
Image
10
206.376930
20
122.532138
11
207.101335
21
121.782836
0
LINE
8
Image
10
207.101335
20
121.782836
11
207.703170
21
120.791768
0
LINE
8
Image
10
207.703170
20
120.791768
11
209.574953
21
110.813505
0
LINE
8
Image
10
209.574953
20
110.813505
11
213.876480
21
85.054468
0
LINE
8
Image
10
213.876480
20
85.054468
11
219.535230
21
50.278968
0
LINE
8
Image
10
219.535230
20
50.278968
11
215.555893
21
50.136708
0
LINE
8
Image
10
215.555893
20
50.136708
11
205.988530
21
50.077538
0
LINE
8
Image
10
205.988530
20
50.077538
11
196.420583
21
50.139715
0
LINE
8
Image
10
196.420583
20
50.139715
11
192.439730
21
50.289205
0
LINE
8
Image
10
192.439730
20
50.289205
11
190.070400
21
65.882005
0
LINE
8
Image
10
190.070400
20
65.882005
11
186.349730
21
90.647005
0
LINE
8
Image
10
186.349730
20
90.647005
11
184.831390
21
100.030885
0
LINE
8
Image
10
184.831390
20
100.030885
11
162.833990
21
75.054285
0
LINE
8
Image
10
162.833990
20
75.054285
11
141.001490
21
50.077685
0
LINE
8
Image
10
141.001490
20
50.077685
11
125.332000
21
50.077500
0
LINE
8
Image
10
125.332000
20
50.077500
11
109.662000
21
50.077500
0
LINE
8
Image
10
109.662000
20
50.077500
11
111.338300
21
51.841390
0
LINE
8
Image
10
235.951300
20
50.345460
11
250.156500
21
87.168760
0
LINE
8
Image
10
250.156500
20
87.168760
11
264.267600
21
123.724160
0
LINE
8
Image
10
264.267600
20
123.724160
11
280.514700
21
123.730820
0
LINE
8
Image
10
280.514700
20
123.730820
11
290.907209
21
123.703780
0
LINE
8
Image
10
290.907209
20
123.703780
11
296.528350
21
123.517370
0
LINE
8
Image
10
296.528350
20
123.517370
11
298.087272
21
123.320186
0
LINE
8
Image
10
298.087272
20
123.320186
11
299.098491
21
123.030102
0
LINE
8
Image
10
299.098491
20
123.030102
11
299.777051
21
122.629432
0
LINE
8
Image
10
299.777051
20
122.629432
11
300.338000
21
122.100490
0
LINE
8
Image
10
300.338000
20
122.100490
11
300.965090
21
121.302584
0
LINE
8
Image
10
300.965090
20
121.302584
11
302.311994
21
118.353668
0
LINE
8
Image
10
302.311994
20
118.353668
11
312.246800
21
94.021190
0
LINE
8
Image
10
312.246800
20
94.021190
11
318.848734
21
77.983215
0
LINE
8
Image
10
318.848734
20
77.983215
11
321.719920
21
71.443390
0
LINE
8
Image
10
321.719920
20
71.443390
11
330.821330
21
97.631990
0
LINE
8
Image
10
330.821330
20
97.631990
11
339.708330
21
123.596390
0
LINE
8
Image
10
339.708330
20
123.596390
11
352.751030
21
123.669788
0
LINE
8
Image
10
352.751030
20
123.669788
11
363.877667
21
123.660280
0
LINE
8
Image
10
363.877667
20
123.660280
11
365.430525
21
123.520511
0
LINE
8
Image
10
365.430525
20
123.520511
11
365.647336
21
123.402344
0
LINE
8
Image
10
365.647336
20
123.402344
11
365.659830
21
123.246455
0
LINE
8
Image
10
365.659830
20
123.246455
11
352.045830
21
87.895355
0
LINE
8
Image
10
352.045830
20
87.895355
11
337.995830
21
51.559255
0
LINE
8
Image
10
337.995830
20
51.559255
11
337.425911
21
50.077585
0
LINE
8
Image
10
337.425911
20
50.077585
11
319.471000
21
50.077500
0
LINE
8
Image
10
319.471000
20
50.077500
11
301.516000
21
50.077500
0
LINE
8
Image
10
301.516000
20
50.077500
11
290.960700
21
76.112500
0
LINE
8
Image
10
290.960700
20
76.112500
11
280.205700
21
102.378100
0
LINE
8
Image
10
280.205700
20
102.378100
11
280.098388
21
102.376087
0
LINE
8
Image
10
280.098388
20
102.376087
11
279.872966
21
101.952760
0
LINE
8
Image
10
279.872966
20
101.952760
11
278.607900
21
98.538002
0
LINE
8
Image
10
278.607900
20
98.538002
11
269.601600
21
72.306900
0
LINE
8
Image
10
269.601600
20
72.306900
11
262.009900
21
50.086400
0
LINE
8
Image
10
262.009900
20
50.086400
11
248.933600
21
50.081941
0
LINE
8
Image
10
248.933600
20
50.081941
11
239.370586
21
50.150131
0
LINE
8
Image
10
239.370586
20
50.150131
11
235.951400
21
50.345438
0
LINE
8
Image
10
235.951400
20
50.345438
11
235.951300
21
50.345460
0
LINE
8
Image
10
356.131300
20
50.213487
11
387.946000
21
84.631354
0
LINE
8
Image
10
387.946000
20
84.631354
11
420.975400
21
119.983787
0
LINE
8
Image
10
420.975400
20
119.983787
11
422.377054
21
121.153009
0
LINE
8
Image
10
422.377054
20
121.153009
11
423.808604
21
122.100422
0
LINE
8
Image
10
423.808604
20
122.100422
11
425.276099
21
122.829525
0
LINE
8
Image
10
425.276099
20
122.829525
11
426.785590
21
123.343817
0
LINE
8
Image
10
426.785590
20
123.343817
11
431.053882
21
123.627801
0
LINE
8
Image
10
431.053882
20
123.627801
11
438.808939
21
123.748645
0
LINE
8
Image
10
438.808939
20
123.748645
11
446.540271
21
123.691835
0
LINE
8
Image
10
446.540271
20
123.691835
11
450.737390
21
123.442854
0
LINE
8
Image
10
450.737390
20
123.442854
11
451.744951
21
123.023560
0
LINE
8
Image
10
451.744951
20
123.023560
11
452.675612
21
122.378462
0
LINE
8
Image
10
452.675612
20
122.378462
11
453.446010
21
121.578385
0
LINE
8
Image
10
453.446010
20
121.578385
11
453.972780
21
120.694154
0
LINE
8
Image
10
453.972780
20
120.694154
11
459.930545
21
85.759282
0
LINE
8
Image
10
459.930545
20
85.759282
11
465.633380
21
50.510254
0
LINE
8
Image
10
465.633380
20
50.510254
11
465.547596
21
50.379629
0
LINE
8
Image
10
465.547596
20
50.379629
11
465.219012
21
50.279083
0
LINE
8
Image
10
465.219012
20
50.279083
11
463.406040
21
50.156649
0
LINE
8
Image
10
463.406040
20
50.156649
11
452.165080
21
50.145352
0
LINE
8
Image
10
452.165080
20
50.145352
11
438.696780
21
50.218645
0
LINE
8
Image
10
438.696780
20
50.218645
11
438.477296
21
51.488645
0
LINE
8
Image
10
438.477296
20
51.488645
11
433.323976
21
85.214145
0
LINE
8
Image
10
433.323976
20
85.214145
11
431.425426
21
97.899945
0
LINE
8
Image
10
431.425426
20
97.899945
11
431.091343
21
99.678777
0
LINE
8
Image
10
431.091343
20
99.678777
11
430.913296
21
99.970245
0
LINE
8
Image
10
430.913296
20
99.970245
11
408.938596
21
74.983645
0
LINE
8
Image
10
408.938596
20
74.983645
11
387.171496
21
50.077545
0
LINE
8
Image
10
387.171496
20
50.077545
11
371.651000
21
50.077500
0
LINE
8
Image
10
371.651000
20
50.077500
11
356.130900
21
50.213483
0
LINE
8
Image
10
356.130900
20
50.213483
11
356.131300
21
50.213487
0
LINE
8
Image
10
498.937300
20
51.556507
11
509.484400
21
78.864107
0
LINE
8
Image
10
509.484400
20
78.864107
11
519.471140
21
104.687407
0
LINE
8
Image
10
519.471140
20
104.687407
11
502.541740
21
104.760178
0
LINE
8
Image
10
502.541740
20
104.760178
11
488.119440
21
104.894358
0
LINE
8
Image
10
488.119440
20
104.894358
11
486.091118
21
105.050592
0
LINE
8
Image
10
486.091118
20
105.050592
11
485.804130
21
105.170147
0
LINE
8
Image
10
485.804130
20
105.170147
11
485.785340
21
105.324622
0
LINE
8
Image
10
485.785340
20
105.324622
11
489.400270
21
114.776842
0
LINE
8
Image
10
489.400270
20
114.776842
11
492.842110
21
123.737392
0
LINE
8
Image
10
492.842110
20
123.737392
11
540.592000
21
123.737000
0
LINE
8
Image
10
540.592000
20
123.737000
11
588.341000
21
123.737000
0
LINE
8
Image
10
588.341000
20
123.737000
11
585.962070
21
117.598670
0
LINE
8
Image
10
585.962070
20
117.598670
11
582.299340
21
108.146430
0
LINE
8
Image
10
582.299340
20
108.146430
11
581.015540
21
104.832520
0
LINE
8
Image
10
581.015540
20
104.832520
11
564.081940
21
104.759769
0
LINE
8
Image
10
564.081940
20
104.759769
11
547.148340
21
104.687020
0
LINE
8
Image
10
547.148340
20
104.687020
11
536.621540
21
77.452620
0
LINE
8
Image
10
536.621540
20
77.452620
11
526.094640
21
50.218220
0
LINE
8
Image
10
526.094640
20
50.218220
11
512.235340
21
50.145006
0
LINE
8
Image
10
512.235340
20
50.145006
11
498.376040
21
50.071795
0
LINE
8
Image
10
498.376040
20
50.071795
11
498.937300
21
51.556507
0
LINE
8
Image
10
579.390900
20
51.559047
11
593.595100
21
88.318447
0
LINE
8
Image
10
593.595100
20
88.318447
11
607.231900
21
123.596147
0
LINE
8
Image
10
607.231900
20
123.596147
11
650.982500
21
123.667589
0
LINE
8
Image
10
650.982500
20
123.667589
11
694.733200
21
123.739028
0
LINE
8
Image
10
694.733200
20
123.739028
11
691.271320
21
114.777598
0
LINE
8
Image
10
691.271320
20
114.777598
11
687.809470
21
105.816168
0
LINE
8
Image
10
687.809470
20
105.816168
11
657.094070
21
105.675057
0
LINE
8
Image
10
657.094070
20
105.675057
11
626.378670
21
105.533946
0
LINE
8
Image
10
626.378670
20
105.533946
11
624.614700
21
101.018396
0
LINE
8
Image
10
624.614700
20
101.018396
11
622.840820
21
96.292426
0
LINE
8
Image
10
622.840820
20
96.292426
11
631.817647
21
96.122729
0
LINE
8
Image
10
631.817647
20
96.122729
11
653.414020
21
96.010204
0
LINE
8
Image
10
653.414020
20
96.010204
11
683.997120
21
95.938395
0
LINE
8
Image
10
683.997120
20
95.938395
11
680.468240
21
86.836735
0
LINE
8
Image
10
680.468240
20
86.836735
11
676.939360
21
77.735075
0
LINE
8
Image
10
676.939360
20
77.735075
11
646.267000
21
77.735200
0
LINE
8
Image
10
646.267000
20
77.735200
11
615.595000
21
77.735200
0
LINE
8
Image
10
615.595000
20
77.735200
11
613.843110
21
73.149090
0
LINE
8
Image
10
613.843110
20
73.149090
11
612.098530
21
68.351320
0
LINE
8
Image
10
612.098530
20
68.351320
11
621.057162
21
68.201831
0
LINE
8
Image
10
621.057162
20
68.201831
11
642.585830
21
68.139654
0
LINE
8
Image
10
642.585830
20
68.139654
11
664.112330
21
68.075968
0
LINE
8
Image
10
664.112330
20
68.075968
11
673.065830
21
67.922851
0
LINE
8
Image
10
673.065830
20
67.922851
11
670.219250
21
60.373411
0
LINE
8
Image
10
670.219250
20
60.373411
11
666.812290
21
51.559111
0
LINE
8
Image
10
666.812290
20
51.559111
11
666.251938
21
50.077441
0
LINE
8
Image
10
666.251938
20
50.077441
11
622.538000
21
50.077400
0
LINE
8
Image
10
622.538000
20
50.077400
11
578.823000
21
50.077400
0
LINE
8
Image
10
578.823000
20
50.077400
11
579.390900
21
51.559047
0
LINE
8
Image
10
33.996200
20
104.617000
11
36.654930
21
111.527265
0
LINE
8
Image
10
36.654930
20
111.527265
11
39.216680
21
117.279500
0
LINE
8
Image
10
39.216680
20
117.279500
11
40.239036
21
118.615429
0
LINE
8
Image
10
40.239036
20
118.615429
11
41.554718
21
119.958684
0
LINE
8
Image
10
41.554718
20
119.958684
11
43.011260
21
121.168835
0
LINE
8
Image
10
43.011260
20
121.168835
11
44.456200
21
122.105450
0
LINE
8
Image
10
44.456200
20
122.105450
11
45.488215
21
122.667651
0
LINE
8
Image
10
45.488215
20
122.667651
11
46.630261
21
123.083507
0
LINE
8
Image
10
46.630261
20
123.083507
11
48.506034
21
123.375018
0
LINE
8
Image
10
48.506034
20
123.375018
11
51.739231
21
123.564189
0
LINE
8
Image
10
51.739231
20
123.564189
11
64.772686
21
123.723516
0
LINE
8
Image
10
64.772686
20
123.723516
11
90.720200
21
123.737510
0
LINE
8
Image
10
90.720200
20
123.737510
11
132.249000
21
123.737000
0
LINE
8
Image
10
132.249000
20
123.737000
11
128.431260
21
113.859230
0
LINE
8
Image
10
128.431260
20
113.859230
11
124.613520
21
103.981460
0
LINE
8
Image
10
124.613520
20
103.981460
11
79.204200
21
103.982000
0
LINE
8
Image
10
79.204200
20
103.982000
11
33.795200
21
103.982000
0
LINE
8
Image
10
33.795200
20
103.982000
11
33.996200
21
104.617000
 0 
ENDSEC
 0 
EOF