<svg id="Layer_1" data-name="Layer 1" xmlns="http://www.w3.org/2000/svg" viewBox="0 0 216.6 208.81"><defs><style>.cls-1{fill:#fff;}.cls-2{fill:none;stroke:#000;stroke-miterlimit:10;stroke-width:0.25px;}</style></defs><title>pilogo</title><path class="cls-1" d="M332.36,357.65c-3,9.61-6.1,18.88-8.8,28.26-5,17.25,1.05,32.47,9.53,47,3.28,5.61,7.57,7,12.11,4.78,8.27-4.08,16.13-9,21.33-16.79a23.87,23.87,0,0,0,3.54-11.11c.42-5.63-2.79-7.53-7.49-4.46-4.38,2.87-7.95,7-12.2,10.07-1.62,1.19-4.65,2.15-6.1,1.39s-2.77-3.82-2.61-5.75a49.62,49.62,0,0,1,2.71-11.09q8-24.1,16.36-48.12c.5-1.44,2.13-2.69,3.52-3.57,14.73-9.37,29.59-18.53,44.21-28.05,2.5-1.62,4.08-4.66,6.08-7.05l-1.17-1.68c-3.84.74-7.8,1.12-11.51,2.28-31.6,9.86-63.14,19.87-94.72,29.78-5.46,1.71-11,3.13-17.1,4.85,1.29-6.5,2.37-12.18,3.54-17.84,2.12-10.27,2.66-20-3.55-29.63-5.65-8.73-14.35-9.91-20.32-1.2a45.57,45.57,0,0,0-6.52,13.9c-3.45,13.18-6.26,26.53-9.17,39.85-.59,2.73-1.42,4.16-4.54,4.8-13,2.7-25.92,3.92-39.14,1.27-6.62-1.32-9.92.61-11.55,5.12-1.54,4.28,0,10.42,4.75,12.43,5.45,2.34,11.65,4.31,17.46,4.14,9.36-.28,18.67-2.44,28.82-3.92a59.4,59.4,0,0,1-1.42,6.39c-6.29,17.88-12.49,35.79-19,53.58-5.79,15.76-12,31.38-18,47.07-1.28,3.34-1.54,6.55,1.61,9.06,3.43,2.72,7.11,2.6,10.69.42a13.5,13.5,0,0,0,3.69-3.33c4-5.34,8.28-10.51,11.58-16.24,18.46-32,35.1-64.91,45-100.78a3.8,3.8,0,0,1,2.31-2.1C301.72,366.7,317.17,362.15,332.36,357.65Zm56.36-48.71c6.87-.09,8.82-3.05,6-7.77-4.85-8.28-12.88-12.07-21.83-14.14-3.09-.71-5,1.18-3.12,3.88a108.78,108.78,0,0,0,11.92,14.3C383.8,307.3,387.13,308.13,388.72,308.94Z" transform="translate(-198.11 -286.76)"/><path class="cls-2" d="M332.36,357.65c-15.19,4.5-30.64,9.05-46.05,13.71a3.8,3.8,0,0,0-2.31,2.1c-9.92,35.87-26.56,68.74-45,100.78-3.3,5.73-7.61,10.9-11.58,16.24a13.5,13.5,0,0,1-3.69,3.33c-3.58,2.18-7.26,2.3-10.69-.42-3.15-2.51-2.89-5.72-1.61-9.06,6-15.69,12.19-31.31,18-47.07,6.53-17.79,12.73-35.7,19-53.58a59.4,59.4,0,0,0,1.42-6.39c-10.15,1.48-19.46,3.64-28.82,3.92-5.81.17-12-1.8-17.46-4.14-4.7-2-6.29-8.15-4.75-12.43,1.63-4.51,4.93-6.44,11.55-5.12,13.22,2.65,26.14,1.43,39.14-1.27,3.12-.64,3.95-2.07,4.54-4.8,2.91-13.32,5.72-26.67,9.17-39.85a45.57,45.57,0,0,1,6.52-13.9c6-8.71,14.67-7.53,20.32,1.2,6.21,9.58,5.67,19.36,3.55,29.63-1.17,5.66-2.25,11.34-3.54,17.84,6.09-1.72,11.64-3.14,17.1-4.85,31.58-9.91,63.12-19.92,94.72-29.78,3.71-1.16,7.67-1.54,11.51-2.28l1.17,1.68c-2,2.39-3.58,5.43-6.08,7.05-14.62,9.52-29.48,18.68-44.21,28.05-1.39.88-3,2.13-3.52,3.57q-8.37,24-16.36,48.12A49.62,49.62,0,0,0,341.67,411c-.16,1.93,1.09,5,2.61,5.75s4.48-.2,6.1-1.39c4.25-3.11,7.82-7.2,12.2-10.07,4.7-3.07,7.91-1.17,7.49,4.46a23.87,23.87,0,0,1-3.54,11.11c-5.2,7.81-13.06,12.71-21.33,16.79-4.54,2.24-8.83.83-12.11-4.78-8.48-14.51-14.51-29.73-9.53-47C326.26,376.53,329.36,367.26,332.36,357.65Z" transform="translate(-198.11 -286.76)"/><path class="cls-2" d="M388.72,308.94c-1.59-.81-4.92-1.64-7-3.73a108.78,108.78,0,0,1-11.92-14.3c-1.88-2.7,0-4.59,3.12-3.88,8.95,2.07,17,5.86,21.83,14.14C397.54,305.89,395.59,308.85,388.72,308.94Z" transform="translate(-198.11 -286.76)"/></svg>