999
dxflib 2.2.0.0
  0
SECTION
  2
HEADER
  9
$ACADVER
  1
AC1015
  9
$HANDSEED
  5
FFFF
  9
$INSUNITS
 70
4
  9
$DIMEXE
 40
1.25
  9
$TEXTSTYLE
  7
Standard
  9
$LIMMIN
 10
0.0
 20
0.0
  0
ENDSEC
  0
SECTION
  2
TABLES
  0
TABLE
  2
VPORT
  5
8
100
AcDbSymbolTable
 70
1
  0
VPORT
  5
30
100
AcDbSymbolTableRecord
100
AcDbViewportTableRecord
  2
*Active
 70
0
 10
0.0
 20
0.0
 11
1.0
 21
1.0
 12
286.30555555555549
 22
148.5
 13
0.0
 23
0.0
 14
10.0
 24
10.0
 15
10.0
 25
10.0
 16
0.0
 26
0.0
 36
1.0
 17
0.0
 27
0.0
 37
0.0
 40
297.0
 41
1.92798353909465
 42
50.0
 43
0.0
 44
0.0
 50
0.0
 51
0.0
 71
0
 72
100
 73
1
 74
3
 75
1
 76
1
 77
0
 78
0
281
0
 65
1
110
0.0
120
0.0
130
0.0
111
1.0
121
0.0
131
0.0
112
0.0
122
1.0
132
0.0
 79
0
146
0.0
  0
ENDTAB
  0
TABLE
  2
LTYPE
  5
5
100
AcDbSymbolTable
 70
25
  0
LTYPE
  5
14
100
AcDbSymbolTableRecord
100
AcDbLinetypeTableRecord
  2
BYBLOCK
 70
0
  3

 72
65
 73
0
 40
0.0
  0
LTYPE
  5
15
100
AcDbSymbolTableRecord
100
AcDbLinetypeTableRecord
  2
BYLAYER
 70
0
  3

 72
65
 73
0
 40
0.0
  0
LTYPE
  5
16
100
AcDbSymbolTableRecord
100
AcDbLinetypeTableRecord
  2
CONTINUOUS
 70
0
  3
Solid line
 72
65
 73
0
 40
0.0
  0
LTYPE
  5
31
100
AcDbSymbolTableRecord
100
AcDbLinetypeTableRecord
  2
ACAD_ISO02W100
 70
0
  3
ISO Dashed __ __ __ __ __ __ __ __ __ __ _
 72
65
 73
2
 40
15.0
 49
12.0
 74
0
 49
-3.0
 74
0
  0
LTYPE
  5
32
100
AcDbSymbolTableRecord
100
AcDbLinetypeTableRecord
  2
ACAD_ISO03W100
 70
0
  3
ISO Dashed with Distance __    __    __    _
 72
65
 73
2
 40
30.0
 49
12.0
 74
0
 49
-18.0
 74
0
  0
LTYPE
  5
33
100
AcDbSymbolTableRecord
100
AcDbLinetypeTableRecord
  2
ACAD_ISO04W100
 70
0
  3
ISO Long Dashed Dotted ____ . ____ . __
 72
65
 73
4
 40
30.0
 49
24.0
 74
0
 49
-3.0
 74
0
 49
0.0
 74
0
 49
-3.0
 74
0
  0
LTYPE
  5
34
100
AcDbSymbolTableRecord
100
AcDbLinetypeTableRecord
  2
ACAD_ISO05W100
 70
0
  3
ISO Long Dashed Double Dotted ____ .. __
 72
65
 73
6
 40
33.0
 49
24.0
 74
0
 49
-3.0
 74
0
 49
0.0
 74
0
 49
-3.0
 74
0
 49
0.0
 74
0
 49
-3.0
 74
0
  0
LTYPE
  5
35
100
AcDbSymbolTableRecord
100
AcDbLinetypeTableRecord
  2
BORDER
 70
0
  3
Border __ __ . __ __ . __ __ . __ __ . __ __ .
 72
65
 73
6
 40
44.450000000000003
 49
12.699999999999999
 74
0
 49
-6.3499999999999996
 74
0
 49
12.699999999999999
 74
0
 49
-6.3499999999999996
 74
0
 49
0.0
 74
0
 49
-6.3499999999999996
 74
0
  0
LTYPE
  5
36
100
AcDbSymbolTableRecord
100
AcDbLinetypeTableRecord
  2
BORDER2
 70
0
  3
Border (.5x) __.__.__.__.__.__.__.__.__.__.__.
 72
65
 73
6
 40
22.225000000000001
 49
6.3499999999999996
 74
0
 49
-3.1749999999999998
 74
0
 49
6.3499999999999996
 74
0
 49
-3.1749999999999998
 74
0
 49
0.0
 74
0
 49
-3.1749999999999998
 74
0
  0
LTYPE
  5
37
100
AcDbSymbolTableRecord
100
AcDbLinetypeTableRecord
  2
BORDERX2
 70
0
  3
Border (2x) ____  ____  .  ____  ____  .  ___
 72
65
 73
6
 40
88.900000000000006
 49
25.399999999999999
 74
0
 49
-12.699999999999999
 74
0
 49
25.399999999999999
 74
0
 49
-12.699999999999999
 74
0
 49
0.0
 74
0
 49
-12.699999999999999
 74
0
  0
LTYPE
  5
38
100
AcDbSymbolTableRecord
100
AcDbLinetypeTableRecord
  2
CENTER
 70
0
  3
Center ____ _ ____ _ ____ _ ____ _ ____ _ ____
 72
65
 73
4
 40
50.799999999999997
 49
31.75
 74
0
 49
-6.3499999999999996
 74
0
 49
6.3499999999999996
 74
0
 49
-6.3499999999999996
 74
0
  0
LTYPE
  5
39
100
AcDbSymbolTableRecord
100
AcDbLinetypeTableRecord
  2
CENTER2
 70
0
  3
Center (.5x) ___ _ ___ _ ___ _ ___ _ ___ _ ___
 72
65
 73
4
 40
28.574999999999999
 49
19.050000000000001
 74
0
 49
-3.1749999999999998
 74
0
 49
3.1749999999999998
 74
0
 49
-3.1749999999999998
 74
0
  0
LTYPE
  5
3A
100
AcDbSymbolTableRecord
100
AcDbLinetypeTableRecord
  2
CENTERX2
 70
0
  3
Center (2x) ________  __  ________  __  _____
 72
65
 73
4
 40
101.59999999999999
 49
63.5
 74
0
 49
-12.699999999999999
 74
0
 49
12.699999999999999
 74
0
 49
-12.699999999999999
 74
0
  0
LTYPE
  5
3B
100
AcDbSymbolTableRecord
100
AcDbLinetypeTableRecord
  2
DASHDOT
 70
0
  3
Dash dot __ . __ . __ . __ . __ . __ . __ . __
 72
65
 73
4
 40
25.399999999999999
 49
12.699999999999999
 74
0
 49
-6.3499999999999996
 74
0
 49
0.0
 74
0
 49
-6.3499999999999996
 74
0
  0
LTYPE
  5
3C
100
AcDbSymbolTableRecord
100
AcDbLinetypeTableRecord
  2
DASHDOT2
 70
0
  3
Dash dot (.5x) _._._._._._._._._._._._._._._.
 72
65
 73
4
 40
12.699999999999999
 49
6.3499999999999996
 74
0
 49
-3.1749999999999998
 74
0
 49
0.0
 74
0
 49
-3.1749999999999998
 74
0
  0
LTYPE
  5
3D
100
AcDbSymbolTableRecord
100
AcDbLinetypeTableRecord
  2
DASHDOTX2
 70
0
  3
Dash dot (2x) ____  .  ____  .  ____  .  ___
 72
65
 73
4
 40
50.799999999999997
 49
25.399999999999999
 74
0
 49
-12.699999999999999
 74
0
 49
0.0
 74
0
 49
-12.699999999999999
 74
0
  0
LTYPE
  5
3E
100
AcDbSymbolTableRecord
100
AcDbLinetypeTableRecord
  2
DASHED
 70
0
  3
Dashed __ __ __ __ __ __ __ __ __ __ __ __ __ _
 72
65
 73
2
 40
19.050000000000001
 49
12.699999999999999
 74
0
 49
-6.3499999999999996
 74
0
  0
LTYPE
  5
3F
100
AcDbSymbolTableRecord
100
AcDbLinetypeTableRecord
  2
DASHED2
 70
0
  3
Dashed (.5x) _ _ _ _ _ _ _ _ _ _ _ _ _ _ _ _ _
 72
65
 73
2
 40
9.5250000000000004
 49
6.3499999999999996
 74
0
 49
-3.1749999999999998
 74
0
  0
LTYPE
  5
40
100
AcDbSymbolTableRecord
100
AcDbLinetypeTableRecord
  2
DASHEDX2
 70
0
  3
Dashed (2x) ____  ____  ____  ____  ____  ___
 72
65
 73
2
 40
38.100000000000001
 49
25.399999999999999
 74
0
 49
-12.699999999999999
 74
0
  0
LTYPE
  5
41
100
AcDbSymbolTableRecord
100
AcDbLinetypeTableRecord
  2
DIVIDE
 70
0
  3
Divide ____ . . ____ . . ____ . . ____ . . ____
 72
65
 73
6
 40
31.75
 49
12.699999999999999
 74
0
 49
-6.3499999999999996
 74
0
 49
0.0
 74
0
 49
-6.3499999999999996
 74
0
 49
0.0
 74
0
 49
-6.3499999999999996
 74
0
  0
LTYPE
  5
42
100
AcDbSymbolTableRecord
100
AcDbLinetypeTableRecord
  2
DIVIDE2
 70
0
  3
Divide (.5x) __..__..__..__..__..__..__..__.._
 72
65
 73
6
 40
15.875
 49
6.3499999999999996
 74
0
 49
-3.1749999999999998
 74
0
 49
0.0
 74
0
 49
-3.1749999999999998
 74
0
 49
0.0
 74
0
 49
-3.1749999999999998
 74
0
  0
LTYPE
  5
43
100
AcDbSymbolTableRecord
100
AcDbLinetypeTableRecord
  2
DIVIDEX2
 70
0
  3
Divide (2x) ________  .  .  ________  .  .  _
 72
65
 73
6
 40
63.5
 49
25.399999999999999
 74
0
 49
-12.699999999999999
 74
0
 49
0.0
 74
0
 49
-12.699999999999999
 74
0
 49
0.0
 74
0
 49
-12.699999999999999
 74
0
  0
LTYPE
  5
44
100
AcDbSymbolTableRecord
100
AcDbLinetypeTableRecord
  2
DOT
 70
0
  3
Dot . . . . . . . . . . . . . . . . . . . . . .
 72
65
 73
2
 40
6.3499999999999996
 49
0.0
 74
0
 49
-6.3499999999999996
 74
0
  0
LTYPE
  5
45
100
AcDbSymbolTableRecord
100
AcDbLinetypeTableRecord
  2
DOT2
 70
0
  3
Dot (.5x) .....................................
 72
65
 73
2
 40
3.1749999999999998
 49
0.0
 74
0
 49
-3.1749999999999998
 74
0
  0
LTYPE
  5
46
100
AcDbSymbolTableRecord
100
AcDbLinetypeTableRecord
  2
DOTX2
 70
0
  3
Dot (2x) .  .  .  .  .  .  .  .  .  .  .  .  .
 72
65
 73
2
 40
12.699999999999999
 49
0.0
 74
0
 49
-12.699999999999999
 74
0
  0
ENDTAB
  0
TABLE
  2
LAYER
  5
2
100
AcDbSymbolTable
 70
3
  0
LAYER
  5
10
100
AcDbSymbolTableRecord
100
AcDbLayerTableRecord
  2
0
 70
0
 62
250
  6
CONTINUOUS
370
100
390
F
  0
LAYER
  5
47
100
AcDbSymbolTableRecord
100
AcDbLayerTableRecord
  2
color#00000000
 70
0
 62
7
  6
CONTINUOUS
370
100
390
F
  0
LAYER
  5
48
100
AcDbSymbolTableRecord
100
AcDbLayerTableRecord
  2
color#ffffffff
 70
0
 62
7
  6
CONTINUOUS
370
100
390
F
  0
ENDTAB
  0
TABLE
  2
STYLE
  5
3
100
AcDbSymbolTable
 70
1
  0
STYLE
  5
11
100
AcDbSymbolTableRecord
100
AcDbTextStyleTableRecord
  2
Standard
 70
0
 40
0.0
 41
0.75
 50
0.0
 71
0
 42
2.5
  3
txt
  4

  0
ENDTAB
  0
TABLE
  2
VIEW
  5
6
100
AcDbSymbolTable
 70
0
  0
ENDTAB
  0
TABLE
  2
UCS
  5
7
100
AcDbSymbolTable
 70
0
  0
ENDTAB
  0
TABLE
  2
APPID
  5
9
100
AcDbSymbolTable
 70
1
  0
APPID
  5
12
100
AcDbSymbolTableRecord
100
AcDbRegAppTableRecord
  2
ACAD
 70
0
  0
ENDTAB
  0
TABLE
  2
DIMSTYLE
  5
A
100
AcDbSymbolTable
 70
1
100
AcDbDimStyleTable
 71
0
  0
DIMSTYLE
105
27
100
AcDbSymbolTableRecord
100
AcDbDimStyleTableRecord
  2
Standard
 41
1.0
 42
1.0
 43
3.75
 44
1.0
 70
0
 73
0
 74
0
 77
1
 78
8
140
1.0
141
2.5
143
0.03937007874016
147
1.0
171
3
172
1
271
2
272
2
274
3
278
44
283
0
284
8
340
11
  0
ENDTAB
  0
TABLE
  2
BLOCK_RECORD
  5
1
100
AcDbSymbolTable
 70
1
  0
BLOCK_RECORD
  5
1F
100
AcDbSymbolTableRecord
100
AcDbBlockTableRecord
  2
*Model_Space
340
22
  0
BLOCK_RECORD
  5
1B
100
AcDbSymbolTableRecord
100
AcDbBlockTableRecord
  2
*Paper_Space
340
1E
  0
BLOCK_RECORD
  5
23
100
AcDbSymbolTableRecord
100
AcDbBlockTableRecord
  2
*Paper_Space0
340
26
  0
ENDTAB
  0
ENDSEC
  0
SECTION
  2
BLOCKS
  0
BLOCK
  5
20
100
AcDbEntity
  8
0
100
AcDbBlockBegin
  2
*Model_Space
 70
0
 10
0.0
 20
0.0
 30
0.0
  3
*Model_Space
  1

  0
ENDBLK
  5
21
100
AcDbEntity
  8
0
100
AcDbBlockEnd
  0
BLOCK
  5
1C
100
AcDbEntity
 67
1
  8
0
100
AcDbBlockBegin
  2
*Paper_Space
 70
0
 10
0.0
 20
0.0
 30
0.0
  3
*Paper_Space
  1

  0
ENDBLK
  5
1D
100
AcDbEntity
 67
1
  8
0
100
AcDbBlockEnd
  0
BLOCK
  5
24
100
AcDbEntity
  8
0
100
AcDbBlockBegin
  2
*Paper_Space0
 70
0
 10
0.0
 20
0.0
 30
0.0
  3
*Paper_Space0
  1

  0
ENDBLK
  5
25
100
AcDbEntity
  8
0
100
AcDbBlockEnd
  0
ENDSEC
  0
SECTION
  2
ENTITIES
  0
LINE
  5
49
100
AcDbEntity
100
AcDbLine
  8
color#ffffffff
 62
256
370
-1
  6
BYLAYER
 10
0.5812420080957482
 20
3.2107705639307649
 30
0.0
 11
0.6002659524653289
 21
3.2352843326555214
 31
0.0
  0
LINE
  5
4A
100
AcDbEntity
100
AcDbLine
  8
color#ffffffff
 62
256
370
-1
  6
BYLAYER
 10
0.6002659524653289
 20
3.2352843326555214
 30
0.0
 11
0.6202070199000473
 21
3.2590765680400522
 31
0.0
  0
LINE
  5
4B
100
AcDbEntity
100
AcDbLine
  8
color#ffffffff
 62
256
370
-1
  6
BYLAYER
 10
0.6202070199000473
 20
3.2590765680400522
 30
0.0
 11
0.6410289852539499
 21
3.2821243679994319
 31
0.0
  0
LINE
  5
4C
100
AcDbEntity
100
AcDbLine
  8
color#ffffffff
 62
256
370
-1
  6
BYLAYER
 10
0.6410289852539499
 20
3.2821243679994319
 30
0.0
 11
0.6626956233810826
 21
3.3044048304487377
 31
0.0
  0
LINE
  5
4D
100
AcDbEntity
100
AcDbLine
  8
color#ffffffff
 62
256
370
-1
  6
BYLAYER
 10
0.6626956233810826
 20
3.3044048304487377
 30
0.0
 11
0.6851707091354915
 21
3.3258950533030442
 31
0.0
  0
LINE
  5
4E
100
AcDbEntity
100
AcDbLine
  8
color#ffffffff
 62
256
370
-1
  6
BYLAYER
 10
0.6851707091354915
 20
3.3258950533030442
 30
0.0
 11
0.7084180173712229
 21
3.3465721344774275
 31
0.0
  0
LINE
  5
4F
100
AcDbEntity
100
AcDbLine
  8
color#ffffffff
 62
256
370
-1
  6
BYLAYER
 10
0.7084180173712229
 20
3.3465721344774275
 30
0.0
 11
0.732401322942323
 21
3.366413171886963
 31
0.0
  0
LINE
  5
50
100
AcDbEntity
100
AcDbLine
  8
color#ffffffff
 62
256
370
-1
  6
BYLAYER
 10
0.732401322942323
 20
3.366413171886963
 30
0.0
 11
0.7570844007028376
 21
3.3853952634467266
 31
0.0
  0
LINE
  5
51
100
AcDbEntity
100
AcDbLine
  8
color#ffffffff
 62
256
370
-1
  6
BYLAYER
 10
0.7570844007028376
 20
3.3853952634467266
 30
0.0
 11
0.7824310255068132
 21
3.4034955070717934
 31
0.0
  0
LINE
  5
52
100
AcDbEntity
100
AcDbLine
  8
color#ffffffff
 62
256
370
-1
  6
BYLAYER
 10
0.7824310255068132
 20
3.4034955070717934
 30
0.0
 11
0.808404972208296
 21
3.4206910006772397
 31
0.0
  0
LINE
  5
53
100
AcDbEntity
100
AcDbLine
  8
color#ffffffff
 62
256
370
-1
  6
BYLAYER
 10
0.808404972208296
 20
3.4206910006772397
 30
0.0
 11
0.8349700156613318
 21
3.4369588421781416
 31
0.0
  0
LINE
  5
54
100
AcDbEntity
100
AcDbLine
  8
color#ffffffff
 62
256
370
-1
  6
BYLAYER
 10
0.8349700156613318
 20
3.4369588421781416
 30
0.0
 11
0.8620899307199671
 21
3.4522761294895741
 31
0.0
  0
LINE
  5
55
100
AcDbEntity
100
AcDbLine
  8
color#ffffffff
 62
256
370
-1
  6
BYLAYER
 10
0.8620899307199671
 20
3.4522761294895741
 30
0.0
 11
0.8897284922382478
 21
3.466619960526613
 31
0.0
  0
LINE
  5
56
100
AcDbEntity
100
AcDbLine
  8
color#ffffffff
 62
256
370
-1
  6
BYLAYER
 10
0.8897284922382478
 20
3.466619960526613
 30
0.0
 11
0.91784947507022
 21
3.4799674332043344
 31
0.0
  0
LINE
  5
57
100
AcDbEntity
100
AcDbLine
  8
color#ffffffff
 62
256
370
-1
  6
BYLAYER
 10
0.91784947507022
 20
3.4799674332043344
 30
0.0
 11
0.9464166540699301
 21
3.4922956454378129
 31
0.0
  0
LINE
  5
58
100
AcDbEntity
100
AcDbLine
  8
color#ffffffff
 62
256
370
-1
  6
BYLAYER
 10
0.9464166540699301
 20
3.4922956454378129
 30
0.0
 11
0.975393804091424
 21
3.5035816951421253
 31
0.0
  0
LINE
  5
59
100
AcDbEntity
100
AcDbLine
  8
color#ffffffff
 62
256
370
-1
  6
BYLAYER
 10
0.975393804091424
 20
3.5035816951421253
 30
0.0
 11
1.0047446999887484
 21
3.513802680232347
 31
0.0
  0
LINE
  5
5A
100
AcDbEntity
100
AcDbLine
  8
color#ffffffff
 62
256
370
-1
  6
BYLAYER
 10
1.0047446999887484
 20
3.513802680232347
 30
0.0
 11
1.0344331166159484
 21
3.5229356986235532
 31
0.0
  0
LINE
  5
5B
100
AcDbEntity
100
AcDbLine
  8
color#ffffffff
 62
256
370
-1
  6
BYLAYER
 10
1.0344331166159484
 20
3.5229356986235532
 30
0.0
 11
1.0644228288270707
 21
3.5309578482308202
 31
0.0
  0
LINE
  5
5C
100
AcDbEntity
100
AcDbLine
  8
color#ffffffff
 62
256
370
-1
  6
BYLAYER
 10
1.0644228288270707
 20
3.5309578482308202
 30
0.0
 11
1.0946776114761623
 21
3.537846226969223
 31
0.0
  0
LINE
  5
5D
100
AcDbEntity
100
AcDbLine
  8
color#ffffffff
 62
256
370
-1
  6
BYLAYER
 10
1.0946776114761623
 20
3.537846226969223
 30
0.0
 11
1.1251612394172676
 21
3.5435779327538381
 31
0.0
  0
LINE
  5
5E
100
AcDbEntity
100
AcDbLine
  8
color#ffffffff
 62
256
370
-1
  6
BYLAYER
 10
1.1251612394172676
 20
3.5435779327538381
 30
0.0
 11
1.1558374875044342
 21
3.5481300634997406
 31
0.0
  0
LINE
  5
5F
100
AcDbEntity
100
AcDbLine
  8
color#ffffffff
 62
256
370
-1
  6
BYLAYER
 10
1.1558374875044342
 20
3.5481300634997406
 30
0.0
 11
1.186670130591708
 21
3.5514797171220067
 31
0.0
  0
LINE
  5
60
100
AcDbEntity
100
AcDbLine
  8
color#ffffffff
 62
256
370
-1
  6
BYLAYER
 10
1.186670130591708
 20
3.5514797171220067
 30
0.0
 11
1.2176229435331343
 21
3.5536039915357112
 31
0.0
  0
LINE
  5
61
100
AcDbEntity
100
AcDbLine
  8
color#ffffffff
 62
256
370
-1
  6
BYLAYER
 10
1.2176229435331343
 20
3.5536039915357112
 30
0.0
 11
1.2486597011827598
 21
3.5544799846559307
 31
0.0
  0
LINE
  5
62
100
AcDbEntity
100
AcDbLine
  8
color#ffffffff
 62
256
370
-1
  6
BYLAYER
 10
1.2486597011827598
 20
3.5544799846559307
 30
0.0
 11
1.2797441783946313
 21
3.5540847943977405
 31
0.0
  0
LINE
  5
63
100
AcDbEntity
100
AcDbLine
  8
color#ffffffff
 62
256
370
-1
  6
BYLAYER
 10
1.2797441783946313
 20
3.5540847943977405
 30
0.0
 11
1.310840150022794
 21
3.5523955186762164
 31
0.0
  0
LINE
  5
64
100
AcDbEntity
100
AcDbLine
  8
color#ffffffff
 62
256
370
-1
  6
BYLAYER
 10
1.310840150022794
 20
3.5523955186762164
 30
0.0
 11
1.3419113909212943
 21
3.5493892554064339
 31
0.0
  0
LINE
  5
65
100
AcDbEntity
100
AcDbLine
  8
color#ffffffff
 62
256
370
-1
  6
BYLAYER
 10
1.3419113909212943
 20
3.5493892554064339
 30
0.0
 11
1.3729216759441782
 21
3.5450431025034685
 31
0.0
  0
LINE
  5
66
100
AcDbEntity
100
AcDbLine
  8
color#ffffffff
 62
256
370
-1
  6
BYLAYER
 10
1.3729216759441782
 20
3.5450431025034685
 30
0.0
 11
1.3924815489846627
 21
3.5414435099196346
 31
0.0
  0
LINE
  5
67
100
AcDbEntity
100
AcDbLine
  8
color#ffffffff
 62
256
370
-1
  6
BYLAYER
 10
1.3924815489846627
 20
3.5414435099196346
 30
0.0
 11
1.4316776695001885
 21
3.5333559528568941
 31
0.0
  0
LINE
  5
68
100
AcDbEntity
100
AcDbLine
  8
color#ffffffff
 62
256
370
-1
  6
BYLAYER
 10
1.4316776695001885
 20
3.5333559528568941
 30
0.0
 11
1.4512745738305948
 21
3.5288477449753866
 31
0.0
  0
LINE
  5
69
100
AcDbEntity
100
AcDbLine
  8
color#ffffffff
 62
256
370
-1
  6
BYLAYER
 10
1.4512745738305948
 20
3.5288477449753866
 30
0.0
 11
1.4708444787796735
 21
3.5240164219253867
 31
0.0
  0
LINE
  5
6A
100
AcDbEntity
100
AcDbLine
  8
color#ffffffff
 62
256
370
-1
  6
BYLAYER
 10
1.4708444787796735
 20
3.5240164219253867
 30
0.0
 11
1.4903677127751065
 21
3.5188518620055942
 31
0.0
  0
LINE
  5
6B
100
AcDbEntity
100
AcDbLine
  8
color#ffffffff
 62
256
370
-1
  6
BYLAYER
 10
1.4903677127751065
 20
3.5188518620055942
 30
0.0
 11
1.5098246042445764
 21
3.5133439435147076
 31
0.0
  0
LINE
  5
6C
100
AcDbEntity
100
AcDbLine
  8
color#ffffffff
 62
256
370
-1
  6
BYLAYER
 10
1.5098246042445764
 20
3.5133439435147076
 30
0.0
 11
1.5291954816157656
 21
3.5074825447514275
 31
0.0
  0
LINE
  5
6D
100
AcDbEntity
100
AcDbLine
  8
color#ffffffff
 62
256
370
-1
  6
BYLAYER
 10
1.5291954816157656
 20
3.5074825447514275
 30
0.0
 11
1.5484606733163562
 21
3.5012575440144524
 31
0.0
  0
LINE
  5
6E
100
AcDbEntity
100
AcDbLine
  8
color#ffffffff
 62
256
370
-1
  6
BYLAYER
 10
1.5484606733163562
 20
3.5012575440144524
 30
0.0
 11
1.5676005077740309
 21
3.4946588196024826
 31
0.0
  0
LINE
  5
6F
100
AcDbEntity
100
AcDbLine
  8
color#ffffffff
 62
256
370
-1
  6
BYLAYER
 10
1.5676005077740309
 20
3.4946588196024826
 30
0.0
 11
1.5865953134164721
 21
3.487676249814216
 31
0.0
  0
LINE
  5
70
100
AcDbEntity
100
AcDbLine
  8
color#ffffffff
 62
256
370
-1
  6
BYLAYER
 10
1.5865953134164721
 20
3.487676249814216
 30
0.0
 11
1.6054254186713619
 21
3.4802997129483533
 31
0.0
  0
LINE
  5
71
100
AcDbEntity
100
AcDbLine
  8
color#ffffffff
 62
256
370
-1
  6
BYLAYER
 10
1.6054254186713619
 20
3.4802997129483533
 30
0.0
 11
1.6240711519663833
 21
3.4725190873035938
 31
0.0
  0
LINE
  5
72
100
AcDbEntity
100
AcDbLine
  8
color#ffffffff
 62
256
370
-1
  6
BYLAYER
 10
1.6240711519663833
 20
3.4725190873035938
 30
0.0
 11
1.6425128417292176
 21
3.4643242511786365
 31
0.0
  0
LINE
  5
73
100
AcDbEntity
100
AcDbLine
  8
color#ffffffff
 62
256
370
-1
  6
BYLAYER
 10
1.6425128417292176
 20
3.4643242511786365
 30
0.0
 11
1.660730816387548
 21
3.4557050828721807
 31
0.0
  0
LINE
  5
74
100
AcDbEntity
100
AcDbLine
  8
color#ffffffff
 62
256
370
-1
  6
BYLAYER
 10
1.660730816387548
 20
3.4557050828721807
 30
0.0
 11
1.6787054043690568
 21
3.4466514606829266
 31
0.0
  0
LINE
  5
75
100
AcDbEntity
100
AcDbLine
  8
color#ffffffff
 62
256
370
-1
  6
BYLAYER
 10
1.6787054043690568
 20
3.4466514606829266
 30
0.0
 11
1.6964169341014261
 21
3.4371532629095727
 31
0.0
  0
LINE
  5
76
100
AcDbEntity
100
AcDbLine
  8
color#ffffffff
 62
256
370
-1
  6
BYLAYER
 10
1.6964169341014261
 20
3.4371532629095727
 30
0.0
 11
1.7138457340123383
 21
3.4272003678508187
 31
0.0
  0
LINE
  5
77
100
AcDbEntity
100
AcDbLine
  8
color#ffffffff
 62
256
370
-1
  6
BYLAYER
 10
1.7138457340123383
 20
3.4272003678508187
 30
0.0
 11
1.7309721325294756
 21
3.4167826538053641
 31
0.0
  0
LINE
  5
78
100
AcDbEntity
100
AcDbLine
  8
color#ffffffff
 62
256
370
-1
  6
BYLAYER
 10
1.7309721325294756
 20
3.4167826538053641
 30
0.0
 11
1.7477764580805215
 21
3.405889999071908
 31
0.0
  0
LINE
  5
79
100
AcDbEntity
100
AcDbLine
  8
color#ffffffff
 62
256
370
-1
  6
BYLAYER
 10
1.7477764580805215
 20
3.405889999071908
 30
0.0
 11
1.7642390390931566
 21
3.39451228194915
 31
0.0
  0
LINE
  5
7A
100
AcDbEntity
100
AcDbLine
  8
color#ffffffff
 62
256
370
-1
  6
BYLAYER
 10
1.7642390390931566
 20
3.39451228194915
 30
0.0
 11
1.7803402039950638
 21
3.3826393807357902
 31
0.0
  0
LINE
  5
7B
100
AcDbEntity
100
AcDbLine
  8
color#ffffffff
 62
256
370
-1
  6
BYLAYER
 10
1.7803402039950638
 20
3.3826393807357902
 30
0.0
 11
1.7960602812139268
 21
3.370261173730527
 31
0.0
  0
LINE
  5
7C
100
AcDbEntity
100
AcDbLine
  8
color#ffffffff
 62
256
370
-1
  6
BYLAYER
 10
1.7960602812139268
 20
3.370261173730527
 30
0.0
 11
1.8113795991774271
 21
3.3573675392320599
 31
0.0
  0
LINE
  5
7D
100
AcDbEntity
100
AcDbLine
  8
color#ffffffff
 62
256
370
-1
  6
BYLAYER
 10
1.8113795991774271
 20
3.3573675392320599
 30
0.0
 11
1.826278486313246
 21
3.343948355539089
 31
0.0
  0
LINE
  5
7E
100
AcDbEntity
100
AcDbLine
  8
color#ffffffff
 62
256
370
-1
  6
BYLAYER
 10
1.826278486313246
 20
3.343948355539089
 30
0.0
 11
1.8407372710490679
 21
3.3299935009503128
 31
0.0
  0
LINE
  5
7F
100
AcDbEntity
100
AcDbLine
  8
color#ffffffff
 62
256
370
-1
  6
BYLAYER
 10
1.8407372710490679
 20
3.3299935009503128
 30
0.0
 11
1.8547362818125737
 21
3.315492853764431
 31
0.0
  0
LINE
  5
80
100
AcDbEntity
100
AcDbLine
  8
color#ffffffff
 62
256
370
-1
  6
BYLAYER
 10
1.8547362818125737
 20
3.315492853764431
 30
0.0
 11
1.868255847031447
 21
3.3004362922801436
 31
0.0
  0
LINE
  5
81
100
AcDbEntity
100
AcDbLine
  8
color#ffffffff
 62
256
370
-1
  6
BYLAYER
 10
1.868255847031447
 20
3.3004362922801436
 30
0.0
 11
1.8812762951333677
 21
3.2848136947961497
 31
0.0
  0
LINE
  5
82
100
AcDbEntity
100
AcDbLine
  8
color#ffffffff
 62
256
370
-1
  6
BYLAYER
 10
1.8812762951333677
 20
3.2848136947961497
 30
0.0
 11
1.883742919764575
 21
3.2457622026420023
 31
0.0
  0
LINE
  5
83
100
AcDbEntity
100
AcDbLine
  8
color#ffffffff
 62
256
370
-1
  6
BYLAYER
 10
1.883742919764575
 20
3.2457622026420023
 30
0.0
 11
1.8820864391872287
 21
3.2059086943711197
 31
0.0
  0
LINE
  5
84
100
AcDbEntity
100
AcDbLine
  8
color#ffffffff
 62
256
370
-1
  6
BYLAYER
 10
1.8820864391872287
 20
3.2059086943711197
 30
0.0
 11
1.8779577419455633
 21
3.1797216824664236
 31
0.0
  0
LINE
  5
85
100
AcDbEntity
100
AcDbLine
  8
color#ffffffff
 62
256
370
-1
  6
BYLAYER
 10
1.8779577419455633
 20
3.1797216824664236
 30
0.0
 11
1.8729604254479473
 21
3.1606349754426768
 31
0.0
  0
LINE
  5
86
100
AcDbEntity
100
AcDbLine
  8
color#ffffffff
 62
256
370
-1
  6
BYLAYER
 10
1.8729604254479473
 20
3.1606349754426768
 30
0.0
 11
1.8686205559216316
 21
3.1482904755990599
 31
0.0
  0
LINE
  5
87
100
AcDbEntity
100
AcDbLine
  8
color#ffffffff
 62
256
370
-1
  6
BYLAYER
 10
1.8686205559216316
 20
3.1482904755990599
 30
0.0
 11
1.8634098219901061
 21
3.1363223642952534
 31
0.0
  0
LINE
  5
88
100
AcDbEntity
100
AcDbLine
  8
color#ffffffff
 62
256
370
-1
  6
BYLAYER
 10
1.8634098219901061
 20
3.1363223642952534
 30
0.0
 11
1.8572731914394696
 21
3.124792708390145
 31
0.0
  0
LINE
  5
89
100
AcDbEntity
100
AcDbLine
  8
color#ffffffff
 62
256
370
-1
  6
BYLAYER
 10
1.8572731914394696
 20
3.124792708390145
 30
0.0
 11
1.8501556320558217
 21
3.1137635747426251
 31
0.0
  0
LINE
  5
8A
100
AcDbEntity
100
AcDbLine
  8
color#ffffffff
 62
256
370
-1
  6
BYLAYER
 10
1.8501556320558217
 20
3.1137635747426251
 30
0.0
 11
1.8420021116252603
 21
3.1032970302115812
 31
0.0
  0
LINE
  5
8B
100
AcDbEntity
100
AcDbLine
  8
color#ffffffff
 62
256
370
-1
  6
BYLAYER
 10
1.8420021116252603
 20
3.1032970302115812
 30
0.0
 11
1.8372666780581521
 21
3.0988271959845921
 31
0.0
  0
LINE
  5
8C
100
AcDbEntity
100
AcDbLine
  8
color#ffffffff
 62
256
370
-1
  6
BYLAYER
 10
1.8372666780581521
 20
3.0988271959845921
 30
0.0
 11
1.8323559766247592
 21
3.0948408862263621
 31
0.0
  0
LINE
  5
8D
100
AcDbEntity
100
AcDbLine
  8
color#ffffffff
 62
256
370
-1
  6
BYLAYER
 10
1.8323559766247592
 20
3.0948408862263621
 30
0.0
 11
1.827282034353011
 21
3.0913213565588959
 31
0.0
  0
LINE
  5
8E
100
AcDbEntity
100
AcDbLine
  8
color#ffffffff
 62
256
370
-1
  6
BYLAYER
 10
1.827282034353011
 20
3.0913213565588959
 30
0.0
 11
1.8220568782708344
 21
3.0882518626041979
 31
0.0
  0
LINE
  5
8F
100
AcDbEntity
100
AcDbLine
  8
color#ffffffff
 62
256
370
-1
  6
BYLAYER
 10
1.8220568782708344
 20
3.0882518626041979
 30
0.0
 11
1.8166925354061592
 21
3.0856156599842723
 31
0.0
  0
LINE
  5
90
100
AcDbEntity
100
AcDbLine
  8
color#ffffffff
 62
256
370
-1
  6
BYLAYER
 10
1.8166925354061592
 20
3.0856156599842723
 30
0.0
 11
1.811201032786913
 21
3.083396004321123
 31
0.0
  0
LINE
  5
91
100
AcDbEntity
100
AcDbLine
  8
color#ffffffff
 62
256
370
-1
  6
BYLAYER
 10
1.811201032786913
 20
3.083396004321123
 30
0.0
 11
1.8055943974410245
 21
3.0815761512367539
 31
0.0
  0
LINE
  5
92
100
AcDbEntity
100
AcDbLine
  8
color#ffffffff
 62
256
370
-1
  6
BYLAYER
 10
1.8055943974410245
 20
3.0815761512367539
 30
0.0
 11
1.7998846563964221
 21
3.0801393563531692
 31
0.0
  0
LINE
  5
93
100
AcDbEntity
100
AcDbLine
  8
color#ffffffff
 62
256
370
-1
  6
BYLAYER
 10
1.7998846563964221
 20
3.0801393563531692
 30
0.0
 11
1.7940838366810345
 21
3.0790688752923732
 31
0.0
  0
LINE
  5
94
100
AcDbEntity
100
AcDbLine
  8
color#ffffffff
 62
256
370
-1
  6
BYLAYER
 10
1.7940838366810345
 20
3.0790688752923732
 30
0.0
 11
1.7882039653227899
 21
3.0783479636763693
 31
0.0
  0
LINE
  5
95
100
AcDbEntity
100
AcDbLine
  8
color#ffffffff
 62
256
370
-1
  6
BYLAYER
 10
1.7882039653227899
 20
3.0783479636763693
 30
0.0
 11
1.7822570693496169
 21
3.0779598771271619
 31
0.0
  0
LINE
  5
96
100
AcDbEntity
100
AcDbLine
  8
color#ffffffff
 62
256
370
-1
  6
BYLAYER
 10
1.7822570693496169
 20
3.0779598771271619
 30
0.0
 11
1.770210311670199
 21
3.0781152017171545
 31
0.0
  0
LINE
  5
97
100
AcDbEntity
100
AcDbLine
  8
color#ffffffff
 62
256
370
-1
  6
BYLAYER
 10
1.770210311670199
 20
3.0781152017171545
 30
0.0
 11
1.7580397798662086
 21
3.079400894038383
 31
0.0
  0
LINE
  5
98
100
AcDbEntity
100
AcDbLine
  8
color#ffffffff
 62
256
370
-1
  6
BYLAYER
 10
1.7580397798662086
 20
3.079400894038383
 30
0.0
 11
1.7458416901610734
 21
3.0816829990668801
 31
0.0
  0
LINE
  5
99
100
AcDbEntity
100
AcDbLine
  8
color#ffffffff
 62
256
370
-1
  6
BYLAYER
 10
1.7458416901610734
 20
3.0816829990668801
 30
0.0
 11
1.7277033575274703
 21
3.0866814038208266
 31
0.0
  0
LINE
  5
9A
100
AcDbEntity
100
AcDbLine
  8
color#ffffffff
 62
256
370
-1
  6
BYLAYER
 10
1.7277033575274703
 20
3.0866814038208266
 30
0.0
 11
1.7043204794473157
 21
3.0955831410778356
 31
0.0
  0
LINE
  5
9B
100
AcDbEntity
100
AcDbLine
  8
color#ffffffff
 62
256
370
-1
  6
BYLAYER
 10
1.7043204794473157
 20
3.0955831410778356
 30
0.0
 11
1.6774625445181532
 21
3.1087988147483432
 31
0.0
  0
LINE
  5
9C
100
AcDbEntity
100
AcDbLine
  8
color#ffffffff
 62
256
370
-1
  6
BYLAYER
 10
1.6774625445181532
 20
3.1087988147483432
 30
0.0
 11
1.5664533156407217
 21
3.1788941306995864
 31
0.0
  0
LINE
  5
9D
100
AcDbEntity
100
AcDbLine
  8
color#ffffffff
 62
256
370
-1
  6
BYLAYER
 10
1.5664533156407217
 20
3.1788941306995864
 30
0.0
 11
1.5206201507139792
 21
3.2011180256787357
 31
0.0
  0
LINE
  5
9E
100
AcDbEntity
100
AcDbLine
  8
color#ffffffff
 62
256
370
-1
  6
BYLAYER
 10
1.5206201507139792
 20
3.2011180256787357
 30
0.0
 11
1.4930350629887623
 21
3.2110397816694967
 31
0.0
  0
LINE
  5
9F
100
AcDbEntity
100
AcDbLine
  8
color#ffffffff
 62
256
370
-1
  6
BYLAYER
 10
1.4930350629887623
 20
3.2110397816694967
 30
0.0
 11
1.4759212210261268
 21
3.2165743541695049
 31
0.0
  0
LINE
  5
A0
100
AcDbEntity
100
AcDbLine
  8
color#ffffffff
 62
256
370
-1
  6
BYLAYER
 10
1.4759212210261268
 20
3.2165743541695049
 30
0.0
 11
1.4586604763724036
 21
3.2214009084065895
 31
0.0
  0
LINE
  5
A1
100
AcDbEntity
100
AcDbLine
  8
color#ffffffff
 62
256
370
-1
  6
BYLAYER
 10
1.4586604763724036
 20
3.2214009084065895
 30
0.0
 11
1.4412708632556277
 21
3.2255299270608058
 31
0.0
  0
LINE
  5
A2
100
AcDbEntity
100
AcDbLine
  8
color#ffffffff
 62
256
370
-1
  6
BYLAYER
 10
1.4412708632556277
 20
3.2255299270608058
 30
0.0
 11
1.423770415903834
 21
3.2289718928122095
 31
0.0
  0
LINE
  5
A3
100
AcDbEntity
100
AcDbLine
  8
color#ffffffff
 62
256
370
-1
  6
BYLAYER
 10
1.423770415903834
 20
3.2289718928122095
 30
0.0
 11
1.406177168545059
 21
3.2317372883408573
 31
0.0
  0
LINE
  5
A4
100
AcDbEntity
100
AcDbLine
  8
color#ffffffff
 62
256
370
-1
  6
BYLAYER
 10
1.406177168545059
 20
3.2317372883408573
 30
0.0
 11
1.3885091554073368
 21
3.2338365963268041
 31
0.0
  0
LINE
  5
A5
100
AcDbEntity
100
AcDbLine
  8
color#ffffffff
 62
256
370
-1
  6
BYLAYER
 10
1.3885091554073368
 20
3.2338365963268041
 30
0.0
 11
1.3707844107187035
 21
3.2352802994501064
 31
0.0
  0
LINE
  5
A6
100
AcDbEntity
100
AcDbLine
  8
color#ffffffff
 62
256
370
-1
  6
BYLAYER
 10
1.3707844107187035
 20
3.2352802994501064
 30
0.0
 11
1.3530209687071941
 21
3.2360788803908194
 31
0.0
  0
LINE
  5
A7
100
AcDbEntity
100
AcDbLine
  8
color#ffffffff
 62
256
370
-1
  6
BYLAYER
 10
1.3530209687071941
 20
3.2360788803908194
 30
0.0
 11
1.3352368636008434
 21
3.2362428218290002
 31
0.0
  0
LINE
  5
A8
100
AcDbEntity
100
AcDbLine
  8
color#ffffffff
 62
256
370
-1
  6
BYLAYER
 10
1.3352368636008434
 20
3.2362428218290002
 30
0.0
 11
1.3174501296276873
 21
3.2357826064447033
 31
0.0
  0
LINE
  5
A9
100
AcDbEntity
100
AcDbLine
  8
color#ffffffff
 62
256
370
-1
  6
BYLAYER
 10
1.3174501296276873
 20
3.2357826064447033
 30
0.0
 11
1.2996788010157609
 21
3.2347087169179853
 31
0.0
  0
LINE
  5
AA
100
AcDbEntity
100
AcDbLine
  8
color#ffffffff
 62
256
370
-1
  6
BYLAYER
 10
1.2996788010157609
 20
3.2347087169179853
 30
0.0
 11
1.2819409119930993
 21
3.233031635928902
 31
0.0
  0
LINE
  5
AB
100
AcDbEntity
100
AcDbLine
  8
color#ffffffff
 62
256
370
-1
  6
BYLAYER
 10
1.2819409119930993
 20
3.233031635928902
 30
0.0
 11
1.2642544967877385
 21
3.2307618461575092
 31
0.0
  0
LINE
  5
AC
100
AcDbEntity
100
AcDbLine
  8
color#ffffffff
 62
256
370
-1
  6
BYLAYER
 10
1.2642544967877385
 20
3.2307618461575092
 30
0.0
 11
1.2466375896277131
 21
3.2279098302838629
 31
0.0
  0
LINE
  5
AD
100
AcDbEntity
100
AcDbLine
  8
color#ffffffff
 62
256
370
-1
  6
BYLAYER
 10
1.2466375896277131
 20
3.2279098302838629
 30
0.0
 11
1.2291082247410583
 21
3.2244860709880188
 31
0.0
  0
LINE
  5
AE
100
AcDbEntity
100
AcDbLine
  8
color#ffffffff
 62
256
370
-1
  6
BYLAYER
 10
1.2291082247410583
 20
3.2244860709880188
 30
0.0
 11
1.2116844363558097
 21
3.2205010509500327
 31
0.0
  0
LINE
  5
AF
100
AcDbEntity
100
AcDbLine
  8
color#ffffffff
 62
256
370
-1
  6
BYLAYER
 10
1.2116844363558097
 20
3.2205010509500327
 30
0.0
 11
1.1943842587000026
 21
3.2159652528499607
 31
0.0
  0
LINE
  5
B0
100
AcDbEntity
100
AcDbLine
  8
color#ffffffff
 62
256
370
-1
  6
BYLAYER
 10
1.1943842587000026
 20
3.2159652528499607
 30
0.0
 11
1.1772257260016721
 21
3.2108891593678588
 31
0.0
  0
LINE
  5
B1
100
AcDbEntity
100
AcDbLine
  8
color#ffffffff
 62
256
370
-1
  6
BYLAYER
 10
1.1772257260016721
 20
3.2108891593678588
 30
0.0
 11
1.1602268724888536
 21
3.2052832531837825
 31
0.0
  0
LINE
  5
B2
100
AcDbEntity
100
AcDbLine
  8
color#ffffffff
 62
256
370
-1
  6
BYLAYER
 10
1.1602268724888536
 20
3.2052832531837825
 30
0.0
 11
1.143405732389583
 21
3.1991580169777873
 31
0.0
  0
LINE
  5
B3
100
AcDbEntity
100
AcDbLine
  8
color#ffffffff
 62
256
370
-1
  6
BYLAYER
 10
1.143405732389583
 20
3.1991580169777873
 30
0.0
 11
1.1267803399318941
 21
3.1925239334299302
 31
0.0
  0
LINE
  5
B4
100
AcDbEntity
100
AcDbLine
  8
color#ffffffff
 62
256
370
-1
  6
BYLAYER
 10
1.1267803399318941
 20
3.1925239334299302
 30
0.0
 11
1.1103687293438231
 21
3.1853914852202667
 31
0.0
  0
LINE
  5
B5
100
AcDbEntity
100
AcDbLine
  8
color#ffffffff
 62
256
370
-1
  6
BYLAYER
 10
1.1103687293438231
 20
3.1853914852202667
 30
0.0
 11
1.094188934853406
 21
3.1777711550288519
 31
0.0
  0
LINE
  5
B6
100
AcDbEntity
100
AcDbLine
  8
color#ffffffff
 62
256
370
-1
  6
BYLAYER
 10
1.094188934853406
 20
3.1777711550288519
 30
0.0
 11
1.0782589906886768
 21
3.1696734255357422
 31
0.0
  0
LINE
  5
B7
100
AcDbEntity
100
AcDbLine
  8
color#ffffffff
 62
256
370
-1
  6
BYLAYER
 10
1.0782589906886768
 20
3.1696734255357422
 30
0.0
 11
1.0625969310776715
 21
3.161108779420994
 31
0.0
  0
LINE
  5
B8
100
AcDbEntity
100
AcDbLine
  8
color#ffffffff
 62
256
370
-1
  6
BYLAYER
 10
1.0625969310776715
 20
3.161108779420994
 30
0.0
 11
1.0472207902484252
 21
3.152087699364662
 31
0.0
  0
LINE
  5
B9
100
AcDbEntity
100
AcDbLine
  8
color#ffffffff
 62
256
370
-1
  6
BYLAYER
 10
1.0472207902484252
 20
3.152087699364662
 30
0.0
 11
1.032148602428973
 21
3.1426206680468027
 31
0.0
  0
LINE
  5
BA
100
AcDbEntity
100
AcDbLine
  8
color#ffffffff
 62
256
370
-1
  6
BYLAYER
 10
1.032148602428973
 20
3.1426206680468027
 30
0.0
 11
1.017398401847351
 21
3.1327181681474721
 31
0.0
  0
LINE
  5
BB
100
AcDbEntity
100
AcDbLine
  8
color#ffffffff
 62
256
370
-1
  6
BYLAYER
 10
1.017398401847351
 20
3.1327181681474721
 30
0.0
 11
1.0029882227315932
 21
3.1223906823467265
 31
0.0
  0
LINE
  5
BC
100
AcDbEntity
100
AcDbLine
  8
color#ffffffff
 62
256
370
-1
  6
BYLAYER
 10
1.0029882227315932
 20
3.1223906823467265
 30
0.0
 11
0.987490778165226
 21
3.1063105082580997
 31
0.0
  0
LINE
  5
BD
100
AcDbEntity
100
AcDbLine
  8
color#ffffffff
 62
256
370
-1
  6
BYLAYER
 10
0.987490778165226
 20
3.1063105082580997
 30
0.0
 11
0.9726241296227742
 21
3.0894952144345678
 31
0.0
  0
LINE
  5
BE
100
AcDbEntity
100
AcDbLine
  8
color#ffffffff
 62
256
370
-1
  6
BYLAYER
 10
0.9726241296227742
 20
3.0894952144345678
 30
0.0
 11
0.9584642161844497
 21
3.0719846593146158
 31
0.0
  0
LINE
  5
BF
100
AcDbEntity
100
AcDbLine
  8
color#ffffffff
 62
256
370
-1
  6
BYLAYER
 10
0.9584642161844497
 20
3.0719846593146158
 30
0.0
 11
0.945086976930463
 21
3.0538187013367288
 31
0.0
  0
LINE
  5
C0
100
AcDbEntity
100
AcDbLine
  8
color#ffffffff
 62
256
370
-1
  6
BYLAYER
 10
0.945086976930463
 20
3.0538187013367288
 30
0.0
 11
0.9325683509410262
 21
3.0350371989393925
 31
0.0
  0
LINE
  5
C1
100
AcDbEntity
100
AcDbLine
  8
color#ffffffff
 62
256
370
-1
  6
BYLAYER
 10
0.9325683509410262
 20
3.0350371989393925
 30
0.0
 11
0.9209842772963507
 21
3.0156800105610913
 31
0.0
  0
LINE
  5
C2
100
AcDbEntity
100
AcDbLine
  8
color#ffffffff
 62
256
370
-1
  6
BYLAYER
 10
0.9209842772963507
 20
3.0156800105610913
 30
0.0
 11
0.9104106950766477
 21
2.9957869946403104
 31
0.0
  0
LINE
  5
C3
100
AcDbEntity
100
AcDbLine
  8
color#ffffffff
 62
256
370
-1
  6
BYLAYER
 10
0.9104106950766477
 20
2.9957869946403104
 30
0.0
 11
0.9009235433621287
 21
2.9753980096155361
 31
0.0
  0
LINE
  5
C4
100
AcDbEntity
100
AcDbLine
  8
color#ffffffff
 62
256
370
-1
  6
BYLAYER
 10
0.9009235433621287
 20
2.9753980096155361
 30
0.0
 11
0.8966111099068795
 21
2.9650299844511769
 31
0.0
  0
LINE
  5
C5
100
AcDbEntity
100
AcDbLine
  8
color#ffffffff
 62
256
370
-1
  6
BYLAYER
 10
0.8966111099068795
 20
2.9650299844511769
 30
0.0
 11
0.8925987612330051
 21
2.9545529139252524
 31
0.0
  0
LINE
  5
C6
100
AcDbEntity
100
AcDbLine
  8
color#ffffffff
 62
256
370
-1
  6
BYLAYER
 10
0.8925987612330051
 20
2.9545529139252524
 30
0.0
 11
0.8888959897255327
 21
2.9439717803425709
 31
0.0
  0
LINE
  5
C7
100
AcDbEntity
100
AcDbLine
  8
color#ffffffff
 62
256
370
-1
  6
BYLAYER
 10
0.8888959897255327
 20
2.9439717803425709
 30
0.0
 11
0.8855122877694887
 21
2.9332915660079446
 31
0.0
  0
LINE
  5
C8
100
AcDbEntity
100
AcDbLine
  8
color#ffffffff
 62
256
370
-1
  6
BYLAYER
 10
0.8855122877694887
 20
2.9332915660079446
 30
0.0
 11
0.8824571477498989
 21
2.9225172532261836
 31
0.0
  0
LINE
  5
C9
100
AcDbEntity
100
AcDbLine
  8
color#ffffffff
 62
256
370
-1
  6
BYLAYER
 10
0.8824571477498989
 20
2.9225172532261836
 30
0.0
 11
0.8797400620517899
 21
2.9116538243020984
 31
0.0
  0
LINE
  5
CA
100
AcDbEntity
100
AcDbLine
  8
color#ffffffff
 62
256
370
-1
  6
BYLAYER
 10
0.8797400620517899
 20
2.9116538243020984
 30
0.0
 11
0.877370523060189
 21
2.9007062615404999
 31
0.0
  0
LINE
  5
CB
100
AcDbEntity
100
AcDbLine
  8
color#ffffffff
 62
256
370
-1
  6
BYLAYER
 10
0.877370523060189
 20
2.9007062615404999
 30
0.0
 11
0.8753580231601216
 21
2.8896795472461987
 31
0.0
  0
LINE
  5
CC
100
AcDbEntity
100
AcDbLine
  8
color#ffffffff
 62
256
370
-1
  6
BYLAYER
 10
0.8753580231601216
 20
2.8896795472461987
 30
0.0
 11
0.8737120547366142
 21
2.8785786637240056
 31
0.0
  0
LINE
  5
CD
100
AcDbEntity
100
AcDbLine
  8
color#ffffffff
 62
256
370
-1
  6
BYLAYER
 10
0.8737120547366142
 20
2.8785786637240056
 30
0.0
 11
0.8724421101746941
 21
2.8674085932787303
 31
0.0
  0
LINE
  5
CE
100
AcDbEntity
100
AcDbLine
  8
color#ffffffff
 62
256
370
-1
  6
BYLAYER
 10
0.8724421101746941
 20
2.8674085932787303
 30
0.0
 11
0.8715576818593867
 21
2.8561743182151851
 31
0.0
  0
LINE
  5
CF
100
AcDbEntity
100
AcDbLine
  8
color#ffffffff
 62
256
370
-1
  6
BYLAYER
 10
0.8715576818593867
 20
2.8561743182151851
 30
0.0
 11
0.8710682621757192
 21
2.8448808208381795
 31
0.0
  0
LINE
  5
D0
100
AcDbEntity
100
AcDbLine
  8
color#ffffffff
 62
256
370
-1
  6
BYLAYER
 10
0.8710682621757192
 20
2.8448808208381795
 30
0.0
 11
0.8709833435087173
 21
2.8335330834525241
 31
0.0
  0
LINE
  5
D1
100
AcDbEntity
100
AcDbLine
  8
color#ffffffff
 62
256
370
-1
  6
BYLAYER
 10
0.8709833435087173
 20
2.8335330834525241
 30
0.0
 11
0.8709717423736353
 21
2.8235807308460323
 31
0.0
  0
LINE
  5
D2
100
AcDbEntity
100
AcDbLine
  8
color#ffffffff
 62
256
370
-1
  6
BYLAYER
 10
0.8709717423736353
 20
2.8235807308460323
 30
0.0
 11
0.8713095347656544
 21
2.8136851439243356
 31
0.0
  0
LINE
  5
D3
100
AcDbEntity
100
AcDbLine
  8
color#ffffffff
 62
256
370
-1
  6
BYLAYER
 10
0.8713095347656544
 20
2.8136851439243356
 30
0.0
 11
0.8719870871315746
 21
2.803848417658994
 31
0.0
  0
LINE
  5
D4
100
AcDbEntity
100
AcDbLine
  8
color#ffffffff
 62
256
370
-1
  6
BYLAYER
 10
0.8719870871315746
 20
2.803848417658994
 30
0.0
 11
0.8729947659181958
 21
2.794072647021566
 31
0.0
  0
LINE
  5
D5
100
AcDbEntity
100
AcDbLine
  8
color#ffffffff
 62
256
370
-1
  6
BYLAYER
 10
0.8729947659181958
 20
2.794072647021566
 30
0.0
 11
0.8743229375723181
 21
2.784359926983611
 31
0.0
  0
LINE
  5
D6
100
AcDbEntity
100
AcDbLine
  8
color#ffffffff
 62
256
370
-1
  6
BYLAYER
 10
0.8743229375723181
 20
2.784359926983611
 30
0.0
 11
0.877902225270265
 21
2.7651320185923569
 31
0.0
  0
LINE
  5
D7
100
AcDbEntity
100
AcDbLine
  8
color#ffffffff
 62
256
370
-1
  6
BYLAYER
 10
0.877902225270265
 20
2.7651320185923569
 30
0.0
 11
0.8826478817998145
 21
2.7461814522577055
 31
0.0
  0
LINE
  5
D8
100
AcDbEntity
100
AcDbLine
  8
color#ffffffff
 62
256
370
-1
  6
BYLAYER
 10
0.8826478817998145
 20
2.7461814522577055
 30
0.0
 11
0.8884828387353658
 21
2.7275249877521293
 31
0.0
  0
LINE
  5
D9
100
AcDbEntity
100
AcDbLine
  8
color#ffffffff
 62
256
370
-1
  6
BYLAYER
 10
0.8884828387353658
 20
2.7275249877521293
 30
0.0
 11
0.8953300276513184
 21
2.7091793848481029
 31
0.0
  0
LINE
  5
DA
100
AcDbEntity
100
AcDbLine
  8
color#ffffffff
 62
256
370
-1
  6
BYLAYER
 10
0.8953300276513184
 20
2.7091793848481029
 30
0.0
 11
0.9031123801220716
 21
2.6911614033180982
 31
0.0
  0
LINE
  5
DB
100
AcDbEntity
100
AcDbLine
  8
color#ffffffff
 62
256
370
-1
  6
BYLAYER
 10
0.9031123801220716
 20
2.6911614033180982
 30
0.0
 11
0.9117528277220244
 21
2.6734878029345897
 31
0.0
  0
LINE
  5
DC
100
AcDbEntity
100
AcDbLine
  8
color#ffffffff
 62
256
370
-1
  6
BYLAYER
 10
0.9117528277220244
 20
2.6734878029345897
 30
0.0
 11
0.9261538403082016
 21
2.6476597790112937
 31
0.0
  0
LINE
  5
DD
100
AcDbEntity
100
AcDbLine
  8
color#ffffffff
 62
256
370
-1
  6
BYLAYER
 10
0.9261538403082016
 20
2.6476597790112937
 30
0.0
 11
0.9476392180696966
 21
2.6145841723360519
 31
0.0
  0
LINE
  5
DE
100
AcDbEntity
100
AcDbLine
  8
color#ffffffff
 62
256
370
-1
  6
BYLAYER
 10
0.9476392180696966
 20
2.6145841723360519
 30
0.0
 11
0.9772996792012951
 21
2.5756167519684676
 31
0.0
  0
LINE
  5
DF
100
AcDbEntity
100
AcDbLine
  8
color#ffffffff
 62
256
370
-1
  6
BYLAYER
 10
0.9772996792012951
 20
2.5756167519684676
 30
0.0
 11
0.9998077870821464
 21
2.585129318180881
 31
0.0
  0
LINE
  5
E0
100
AcDbEntity
100
AcDbLine
  8
color#ffffffff
 62
256
370
-1
  6
BYLAYER
 10
0.9998077870821464
 20
2.585129318180881
 30
0.0
 11
1.0225557627259472
 21
2.5939507408552376
 31
0.0
  0
LINE
  5
E1
100
AcDbEntity
100
AcDbLine
  8
color#ffffffff
 62
256
370
-1
  6
BYLAYER
 10
1.0225557627259472
 20
2.5939507408552376
 30
0.0
 11
1.045525779063698
 21
2.602081915844177
 31
0.0
  0
LINE
  5
E2
100
AcDbEntity
100
AcDbLine
  8
color#ffffffff
 62
256
370
-1
  6
BYLAYER
 10
1.045525779063698
 20
2.602081915844177
 30
0.0
 11
1.0687000090263994
 21
2.6095237390003416
 31
0.0
  0
LINE
  5
E3
100
AcDbEntity
100
AcDbLine
  8
color#ffffffff
 62
256
370
-1
  6
BYLAYER
 10
1.0687000090263994
 20
2.6095237390003416
 30
0.0
 11
1.0920606255450518
 21
2.616277106176371
 31
0.0
  0
LINE
  5
E4
100
AcDbEntity
100
AcDbLine
  8
color#ffffffff
 62
256
370
-1
  6
BYLAYER
 10
1.0920606255450518
 20
2.616277106176371
 30
0.0
 11
1.1155898015506558
 21
2.6223429132249065
 31
0.0
  0
LINE
  5
E5
100
AcDbEntity
100
AcDbLine
  8
color#ffffffff
 62
256
370
-1
  6
BYLAYER
 10
1.1155898015506558
 20
2.6223429132249065
 30
0.0
 11
1.1392697099742122
 21
2.6277220559985888
 31
0.0
  0
LINE
  5
E6
100
AcDbEntity
100
AcDbLine
  8
color#ffffffff
 62
256
370
-1
  6
BYLAYER
 10
1.1392697099742122
 20
2.6277220559985888
 30
0.0
 11
1.1630825237467208
 21
2.6324154303500586
 31
0.0
  0
LINE
  5
E7
100
AcDbEntity
100
AcDbLine
  8
color#ffffffff
 62
256
370
-1
  6
BYLAYER
 10
1.1630825237467208
 20
2.6324154303500586
 30
0.0
 11
1.1870104157991825
 21
2.6364239321319571
 31
0.0
  0
LINE
  5
E8
100
AcDbEntity
100
AcDbLine
  8
color#ffffffff
 62
256
370
-1
  6
BYLAYER
 10
1.1870104157991825
 20
2.6364239321319571
 30
0.0
 11
1.2110355590625983
 21
2.6397484571969247
 31
0.0
  0
LINE
  5
E9
100
AcDbEntity
100
AcDbLine
  8
color#ffffffff
 62
256
370
-1
  6
BYLAYER
 10
1.2110355590625983
 20
2.6397484571969247
 30
0.0
 11
1.2351401264679678
 21
2.6423899013976029
 31
0.0
  0
LINE
  5
EA
100
AcDbEntity
100
AcDbLine
  8
color#ffffffff
 62
256
370
-1
  6
BYLAYER
 10
1.2351401264679678
 20
2.6423899013976029
 30
0.0
 11
1.2593062909462924
 21
2.6443491605866312
 31
0.0
  0
LINE
  5
EB
100
AcDbEntity
100
AcDbLine
  8
color#ffffffff
 62
256
370
-1
  6
BYLAYER
 10
1.2593062909462924
 20
2.6443491605866312
 30
0.0
 11
1.2835162254285724
 21
2.6456271306166514
 31
0.0
  0
LINE
  5
EC
100
AcDbEntity
100
AcDbLine
  8
color#ffffffff
 62
256
370
-1
  6
BYLAYER
 10
1.2835162254285724
 20
2.6456271306166514
 30
0.0
 11
1.3077521028458079
 21
2.6462247073403042
 31
0.0
  0
LINE
  5
ED
100
AcDbEntity
100
AcDbLine
  8
color#ffffffff
 62
256
370
-1
  6
BYLAYER
 10
1.3077521028458079
 20
2.6462247073403042
 30
0.0
 11
1.3319960961289998
 21
2.6461427866102305
 31
0.0
  0
LINE
  5
EE
100
AcDbEntity
100
AcDbLine
  8
color#ffffffff
 62
256
370
-1
  6
BYLAYER
 10
1.3319960961289998
 20
2.6461427866102305
 30
0.0
 11
1.3562303782091485
 21
2.6453822642790707
 31
0.0
  0
LINE
  5
EF
100
AcDbEntity
100
AcDbLine
  8
color#ffffffff
 62
256
370
-1
  6
BYLAYER
 10
1.3562303782091485
 20
2.6453822642790707
 30
0.0
 11
1.3804371220172549
 21
2.6439440361994659
 31
0.0
  0
LINE
  5
F0
100
AcDbEntity
100
AcDbLine
  8
color#ffffffff
 62
256
370
-1
  6
BYLAYER
 10
1.3804371220172549
 20
2.6439440361994659
 30
0.0
 11
1.4045985004843187
 21
2.6418289982240566
 31
0.0
  0
LINE
  5
F1
100
AcDbEntity
100
AcDbLine
  8
color#ffffffff
 62
256
370
-1
  6
BYLAYER
 10
1.4045985004843187
 20
2.6418289982240566
 30
0.0
 11
1.4286966865413409
 21
2.6390380462054841
 31
0.0
  0
LINE
  5
F2
100
AcDbEntity
100
AcDbLine
  8
color#ffffffff
 62
256
370
-1
  6
BYLAYER
 10
1.4286966865413409
 20
2.6390380462054841
 30
0.0
 11
1.4527138531193229
 21
2.6355720759963885
 31
0.0
  0
LINE
  5
F3
100
AcDbEntity
100
AcDbLine
  8
color#ffffffff
 62
256
370
-1
  6
BYLAYER
 10
1.4527138531193229
 20
2.6355720759963885
 30
0.0
 11
1.4766321731492631
 21
2.6314319834494118
 31
0.0
  0
LINE
  5
F4
100
AcDbEntity
100
AcDbLine
  8
color#ffffffff
 62
256
370
-1
  6
BYLAYER
 10
1.4766321731492631
 20
2.6314319834494118
 30
0.0
 11
1.5004338195621636
 21
2.6266186644171938
 31
0.0
  0
LINE
  5
F5
100
AcDbEntity
100
AcDbLine
  8
color#ffffffff
 62
256
370
-1
  6
BYLAYER
 10
1.5004338195621636
 20
2.6266186644171938
 30
0.0
 11
1.5241009652890252
 21
2.6211330147523753
 31
0.0
  0
LINE
  5
F6
100
AcDbEntity
100
AcDbLine
  8
color#ffffffff
 62
256
370
-1
  6
BYLAYER
 10
1.5241009652890252
 20
2.6211330147523753
 30
0.0
 11
1.5476157832608473
 21
2.6149759303075975
 31
0.0
  0
LINE
  5
F7
100
AcDbEntity
100
AcDbLine
  8
color#ffffffff
 62
256
370
-1
  6
BYLAYER
 10
1.5476157832608473
 20
2.6149759303075975
 30
0.0
 11
1.5709604464086306
 21
2.6081483069355014
 31
0.0
  0
LINE
  5
F8
100
AcDbEntity
100
AcDbLine
  8
color#ffffffff
 62
256
370
-1
  6
BYLAYER
 10
1.5709604464086306
 20
2.6081483069355014
 30
0.0
 11
1.594117127663377
 21
2.6006510404887266
 31
0.0
  0
LINE
  5
F9
100
AcDbEntity
100
AcDbLine
  8
color#ffffffff
 62
256
370
-1
  6
BYLAYER
 10
1.594117127663377
 20
2.6006510404887266
 30
0.0
 11
1.6170679999560853
 21
2.592485026819916
 31
0.0
  0
LINE
  5
FA
100
AcDbEntity
100
AcDbLine
  8
color#ffffffff
 62
256
370
-1
  6
BYLAYER
 10
1.6170679999560853
 20
2.592485026819916
 30
0.0
 11
1.639795236217757
 21
2.5836511617817077
 31
0.0
  0
LINE
  5
FB
100
AcDbEntity
100
AcDbLine
  8
color#ffffffff
 62
256
370
-1
  6
BYLAYER
 10
1.639795236217757
 20
2.5836511617817077
 30
0.0
 11
1.662281009379392
 21
2.5741503412267455
 31
0.0
  0
LINE
  5
FC
100
AcDbEntity
100
AcDbLine
  8
color#ffffffff
 62
256
370
-1
  6
BYLAYER
 10
1.662281009379392
 20
2.5741503412267455
 30
0.0
 11
1.6557109164336095
 21
2.5476015585746343
 31
0.0
  0
LINE
  5
FD
100
AcDbEntity
100
AcDbLine
  8
color#ffffffff
 62
256
370
-1
  6
BYLAYER
 10
1.6557109164336095
 20
2.5476015585746343
 30
0.0
 11
1.6389454717333294
 21
2.4672376405680523
 31
0.0
  0
LINE
  5
FE
100
AcDbEntity
100
AcDbLine
  8
color#ffffffff
 62
256
370
-1
  6
BYLAYER
 10
1.6389454717333294
 20
2.4672376405680523
 30
0.0
 11
1.62864635483682
 21
2.3996063448824807
 31
0.0
  0
LINE
  5
FF
100
AcDbEntity
100
AcDbLine
  8
color#ffffffff
 62
256
370
-1
  6
BYLAYER
 10
1.62864635483682
 20
2.3996063448824807
 30
0.0
 11
1.6220186993210861
 21
2.3315537830802731
 31
0.0
  0
LINE
  5
100
100
AcDbEntity
100
AcDbLine
  8
color#ffffffff
 62
256
370
-1
  6
BYLAYER
 10
1.6220186993210861
 20
2.3315537830802731
 30
0.0
 11
1.6195699433881408
 21
2.2769218055887328
 31
0.0
  0
LINE
  5
101
100
AcDbEntity
100
AcDbLine
  8
color#ffffffff
 62
256
370
-1
  6
BYLAYER
 10
1.6195699433881408
 20
2.2769218055887328
 30
0.0
 11
1.6198307792282929
 21
2.2222145895897509
 31
0.0
  0
LINE
  5
102
100
AcDbEntity
100
AcDbLine
  8
color#ffffffff
 62
256
370
-1
  6
BYLAYER
 10
1.6198307792282929
 20
2.2222145895897509
 30
0.0
 11
1.621900787340347
 21
2.181186769782351
 31
0.0
  0
LINE
  5
103
100
AcDbEntity
100
AcDbLine
  8
color#ffffffff
 62
256
370
-1
  6
BYLAYER
 10
1.621900787340347
 20
2.181186769782351
 30
0.0
 11
1.6232131317143057
 21
2.1631287938448986
 31
0.0
  0
LINE
  5
104
100
AcDbEntity
100
AcDbLine
  8
color#ffffffff
 62
256
370
-1
  6
BYLAYER
 10
1.6232131317143057
 20
2.1631287938448986
 30
0.0
 11
1.6248995254253045
 21
2.1450896216320272
 31
0.0
  0
LINE
  5
105
100
AcDbEntity
100
AcDbLine
  8
color#ffffffff
 62
256
370
-1
  6
BYLAYER
 10
1.6248995254253045
 20
2.1450896216320272
 30
0.0
 11
1.6269610769726193
 21
2.1270797978212981
 31
0.0
  0
LINE
  5
106
100
AcDbEntity
100
AcDbLine
  8
color#ffffffff
 62
256
370
-1
  6
BYLAYER
 10
1.6269610769726193
 20
2.1270797978212981
 30
0.0
 11
1.6293988948555251
 21
2.1091098670902744
 31
0.0
  0
LINE
  5
107
100
AcDbEntity
100
AcDbLine
  8
color#ffffffff
 62
256
370
-1
  6
BYLAYER
 10
1.6293988948555251
 20
2.1091098670902744
 30
0.0
 11
1.6322140875732971
 21
2.0911903741165188
 31
0.0
  0
LINE
  5
108
100
AcDbEntity
100
AcDbLine
  8
color#ffffffff
 62
256
370
-1
  6
BYLAYER
 10
1.6322140875732971
 20
2.0911903741165188
 30
0.0
 11
1.6354077636252109
 21
2.0733318635775939
 31
0.0
  0
LINE
  5
109
100
AcDbEntity
100
AcDbLine
  8
color#ffffffff
 62
256
370
-1
  6
BYLAYER
 10
1.6354077636252109
 20
2.0733318635775939
 30
0.0
 11
1.6389810315105413
 21
2.0555448801510621
 31
0.0
  0
LINE
  5
10A
100
AcDbEntity
100
AcDbLine
  8
color#ffffffff
 62
256
370
-1
  6
BYLAYER
 10
1.6389810315105413
 20
2.0555448801510621
 30
0.0
 11
1.6429349997285638
 21
2.0378399685144859
 31
0.0
  0
LINE
  5
10B
100
AcDbEntity
100
AcDbLine
  8
color#ffffffff
 62
256
370
-1
  6
BYLAYER
 10
1.6429349997285638
 20
2.0378399685144859
 30
0.0
 11
1.6472707767785535
 21
2.0202276733454281
 31
0.0
  0
LINE
  5
10C
100
AcDbEntity
100
AcDbLine
  8
color#ffffffff
 62
256
370
-1
  6
BYLAYER
 10
1.6472707767785535
 20
2.0202276733454281
 30
0.0
 11
1.6519894711597858
 21
2.0027185393214517
 31
0.0
  0
LINE
  5
10D
100
AcDbEntity
100
AcDbLine
  8
color#ffffffff
 62
256
370
-1
  6
BYLAYER
 10
1.6519894711597858
 20
2.0027185393214517
 30
0.0
 11
1.657092191371536
 21
1.9853231111201184
 31
0.0
  0
LINE
  5
10E
100
AcDbEntity
100
AcDbLine
  8
color#ffffffff
 62
256
370
-1
  6
BYLAYER
 10
1.657092191371536
 20
1.9853231111201184
 30
0.0
 11
1.6625800459130788
 21
1.9680519334189921
 31
0.0
  0
LINE
  5
10F
100
AcDbEntity
100
AcDbLine
  8
color#ffffffff
 62
256
370
-1
  6
BYLAYER
 10
1.6625800459130788
 20
1.9680519334189921
 30
0.0
 11
1.6684541432836903
 21
1.9509155508956344
 31
0.0
  0
LINE
  5
110
100
AcDbEntity
100
AcDbLine
  8
color#ffffffff
 62
256
370
-1
  6
BYLAYER
 10
1.6684541432836903
 20
1.9509155508956344
 30
0.0
 11
1.6747155919826451
 21
1.9339245082276082
 31
0.0
  0
LINE
  5
111
100
AcDbEntity
100
AcDbLine
  8
color#ffffffff
 62
256
370
-1
  6
BYLAYER
 10
1.6747155919826451
 20
1.9339245082276082
 30
0.0
 11
1.6813655005092185
 21
1.9170893500924764
 31
0.0
  0
LINE
  5
112
100
AcDbEntity
100
AcDbLine
  8
color#ffffffff
 62
256
370
-1
  6
BYLAYER
 10
1.6813655005092185
 20
1.9170893500924764
 30
0.0
 11
1.6884049773626857
 21
1.9004206211678014
 31
0.0
  0
LINE
  5
113
100
AcDbEntity
100
AcDbLine
  8
color#ffffffff
 62
256
370
-1
  6
BYLAYER
 10
1.6884049773626857
 20
1.9004206211678014
 30
0.0
 11
1.6958351310423225
 21
1.8839288661311455
 31
0.0
  0
LINE
  5
114
100
AcDbEntity
100
AcDbLine
  8
color#ffffffff
 62
256
370
-1
  6
BYLAYER
 10
1.6958351310423225
 20
1.8839288661311455
 30
0.0
 11
1.7036570700474034
 21
1.867624629660072
 31
0.0
  0
LINE
  5
115
100
AcDbEntity
100
AcDbLine
  8
color#ffffffff
 62
256
370
-1
  6
BYLAYER
 10
1.7036570700474034
 20
1.867624629660072
 30
0.0
 11
1.7118719028772038
 21
1.8515184564321432
 31
0.0
  0
LINE
  5
116
100
AcDbEntity
100
AcDbLine
  8
color#ffffffff
 62
256
370
-1
  6
BYLAYER
 10
1.7118719028772038
 20
1.8515184564321432
 30
0.0
 11
1.7204807380309999
 21
1.8356208911249214
 31
0.0
  0
LINE
  5
117
100
AcDbEntity
100
AcDbLine
  8
color#ffffffff
 62
256
370
-1
  6
BYLAYER
 10
1.7204807380309999
 20
1.8356208911249214
 30
0.0
 11
1.7294846840080653
 21
1.8199424784159699
 31
0.0
  0
LINE
  5
118
100
AcDbEntity
100
AcDbLine
  8
color#ffffffff
 62
256
370
-1
  6
BYLAYER
 10
1.7294846840080653
 20
1.8199424784159699
 30
0.0
 11
1.7388848493076761
 21
1.804493762982851
 31
0.0
  0
LINE
  5
119
100
AcDbEntity
100
AcDbLine
  8
color#ffffffff
 62
256
370
-1
  6
BYLAYER
 10
1.7388848493076761
 20
1.804493762982851
 30
0.0
 11
1.7486823424291085
 21
1.7892852895031268
 31
0.0
  0
LINE
  5
11A
100
AcDbEntity
100
AcDbLine
  8
color#ffffffff
 62
256
370
-1
  6
BYLAYER
 10
1.7486823424291085
 20
1.7892852895031268
 30
0.0
 11
1.7588782718716358
 21
1.7743276026543606
 31
0.0
  0
LINE
  5
11B
100
AcDbEntity
100
AcDbLine
  8
color#ffffffff
 62
256
370
-1
  6
BYLAYER
 10
1.7588782718716358
 20
1.7743276026543606
 30
0.0
 11
1.769473746134534
 21
1.7596312471141151
 31
0.0
  0
LINE
  5
11C
100
AcDbEntity
100
AcDbLine
  8
color#ffffffff
 62
256
370
-1
  6
BYLAYER
 10
1.769473746134534
 20
1.7596312471141151
 30
0.0
 11
1.7804698737170799
 21
1.7452067675599519
 31
0.0
  0
LINE
  5
11D
100
AcDbEntity
100
AcDbLine
  8
color#ffffffff
 62
256
370
-1
  6
BYLAYER
 10
1.7804698737170799
 20
1.7452067675599519
 30
0.0
 11
1.7918677631185456
 21
1.7310647086694351
 31
0.0
  0
LINE
  5
11E
100
AcDbEntity
100
AcDbLine
  8
color#ffffffff
 62
256
370
-1
  6
BYLAYER
 10
1.7918677631185456
 20
1.7310647086694351
 30
0.0
 11
1.8036685228382094
 21
1.7172156151201261
 31
0.0
  0
LINE
  5
11F
100
AcDbEntity
100
AcDbLine
  8
color#ffffffff
 62
256
370
-1
  6
BYLAYER
 10
1.8036685228382094
 20
1.7172156151201261
 30
0.0
 11
1.8158732613753448
 21
1.7036700315895885
 31
0.0
  0
LINE
  5
120
100
AcDbEntity
100
AcDbLine
  8
color#ffffffff
 62
256
370
-1
  6
BYLAYER
 10
1.8158732613753448
 20
1.7036700315895885
 30
0.0
 11
1.8283647882431697
 21
1.6881294119096222
 31
0.0
  0
LINE
  5
121
100
AcDbEntity
100
AcDbLine
  8
color#ffffffff
 62
256
370
-1
  6
BYLAYER
 10
1.8283647882431697
 20
1.6881294119096222
 30
0.0
 11
1.8414429891728743
 21
1.6729762882365062
 31
0.0
  0
LINE
  5
122
100
AcDbEntity
100
AcDbLine
  8
color#ffffffff
 62
256
370
-1
  6
BYLAYER
 10
1.8414429891728743
 20
1.6729762882365062
 30
0.0
 11
1.8550840995497961
 21
1.6582381396736747
 31
0.0
  0
LINE
  5
123
100
AcDbEntity
100
AcDbLine
  8
color#ffffffff
 62
256
370
-1
  6
BYLAYER
 10
1.8550840995497961
 20
1.6582381396736747
 30
0.0
 11
1.8692643547592727
 21
1.643942445324563
 31
0.0
  0
LINE
  5
124
100
AcDbEntity
100
AcDbLine
  8
color#ffffffff
 62
256
370
-1
  6
BYLAYER
 10
1.8692643547592727
 20
1.643942445324563
 30
0.0
 11
1.8839599901866408
 21
1.6301166842926047
 31
0.0
  0
LINE
  5
125
100
AcDbEntity
100
AcDbLine
  8
color#ffffffff
 62
256
370
-1
  6
BYLAYER
 10
1.8839599901866408
 20
1.6301166842926047
 30
0.0
 11
1.8991472412172392
 21
1.6167883356812345
 31
0.0
  0
LINE
  5
126
100
AcDbEntity
100
AcDbLine
  8
color#ffffffff
 62
256
370
-1
  6
BYLAYER
 10
1.8991472412172392
 20
1.6167883356812345
 30
0.0
 11
1.9148023432364047
 21
1.6039848785938875
 31
0.0
  0
LINE
  5
127
100
AcDbEntity
100
AcDbLine
  8
color#ffffffff
 62
256
370
-1
  6
BYLAYER
 10
1.9148023432364047
 20
1.6039848785938875
 30
0.0
 11
1.9309015316294749
 21
1.5917337921339982
 31
0.0
  0
LINE
  5
128
100
AcDbEntity
100
AcDbLine
  8
color#ffffffff
 62
256
370
-1
  6
BYLAYER
 10
1.9309015316294749
 20
1.5917337921339982
 30
0.0
 11
1.9474210417817872
 21
1.5800625554050016
 31
0.0
  0
LINE
  5
129
100
AcDbEntity
100
AcDbLine
  8
color#ffffffff
 62
256
370
-1
  6
BYLAYER
 10
1.9474210417817872
 20
1.5800625554050016
 30
0.0
 11
1.9643371090786788
 21
1.5689986475103315
 31
0.0
  0
LINE
  5
12A
100
AcDbEntity
100
AcDbLine
  8
color#ffffffff
 62
256
370
-1
  6
BYLAYER
 10
1.9643371090786788
 20
1.5689986475103315
 30
0.0
 11
1.9816259689054883
 21
1.5585695475534231
 31
0.0
  0
LINE
  5
12B
100
AcDbEntity
100
AcDbLine
  8
color#ffffffff
 62
256
370
-1
  6
BYLAYER
 10
1.9816259689054883
 20
1.5585695475534231
 30
0.0
 11
1.9992638566475525
 21
1.5488027346377109
 31
0.0
  0
LINE
  5
12C
100
AcDbEntity
100
AcDbLine
  8
color#ffffffff
 62
256
370
-1
  6
BYLAYER
 10
1.9992638566475525
 20
1.5488027346377109
 30
0.0
 11
2.0172270076902086
 21
1.5397256878666292
 31
0.0
  0
LINE
  5
12D
100
AcDbEntity
100
AcDbLine
  8
color#ffffffff
 62
256
370
-1
  6
BYLAYER
 10
2.0172270076902086
 20
1.5397256878666292
 30
0.0
 11
2.0354916574187953
 21
1.531365886343613
 31
0.0
  0
LINE
  5
12E
100
AcDbEntity
100
AcDbLine
  8
color#ffffffff
 62
256
370
-1
  6
BYLAYER
 10
2.0354916574187953
 20
1.531365886343613
 30
0.0
 11
2.0540340412186482
 21
1.5237508091720966
 31
0.0
  0
LINE
  5
12F
100
AcDbEntity
100
AcDbLine
  8
color#ffffffff
 62
256
370
-1
  6
BYLAYER
 10
2.0540340412186482
 20
1.5237508091720966
 30
0.0
 11
2.072830394475107
 21
1.5169079354555148
 31
0.0
  0
LINE
  5
130
100
AcDbEntity
100
AcDbLine
  8
color#ffffffff
 62
256
370
-1
  6
BYLAYER
 10
2.072830394475107
 20
1.5169079354555148
 30
0.0
 11
2.0918569525735085
 21
1.510864744297302
 31
0.0
  0
LINE
  5
131
100
AcDbEntity
100
AcDbLine
  8
color#ffffffff
 62
256
370
-1
  6
BYLAYER
 10
2.0918569525735085
 20
1.510864744297302
 30
0.0
 11
2.1110899508991876
 21
1.5056487148008939
 31
0.0
  0
LINE
  5
132
100
AcDbEntity
100
AcDbLine
  8
color#ffffffff
 62
256
370
-1
  6
BYLAYER
 10
2.1110899508991876
 20
1.5056487148008939
 30
0.0
 11
2.1305056248374856
 21
1.5012873260697235
 31
0.0
  0
LINE
  5
133
100
AcDbEntity
100
AcDbLine
  8
color#ffffffff
 62
256
370
-1
  6
BYLAYER
 10
2.1305056248374856
 20
1.5012873260697235
 30
0.0
 11
2.1500802097737388
 21
1.4978080572072254
 31
0.0
  0
LINE
  5
134
100
AcDbEntity
100
AcDbLine
  8
color#ffffffff
 62
256
370
-1
  6
BYLAYER
 10
2.1500802097737388
 20
1.4978080572072254
 30
0.0
 11
2.1697899410932839
 21
1.4952383873168367
 31
0.0
  0
LINE
  5
135
100
AcDbEntity
100
AcDbLine
  8
color#ffffffff
 62
256
370
-1
  6
BYLAYER
 10
2.1697899410932839
 20
1.4952383873168367
 30
0.0
 11
2.1896110541814591
 21
1.4936057955019895
 31
0.0
  0
LINE
  5
136
100
AcDbEntity
100
AcDbLine
  8
color#ffffffff
 62
256
370
-1
  6
BYLAYER
 10
2.1896110541814591
 20
1.4936057955019895
 30
0.0
 11
2.2095197844236019
 21
1.4929377608661187
 31
0.0
  0
LINE
  5
137
100
AcDbEntity
100
AcDbLine
  8
color#ffffffff
 62
256
370
-1
  6
BYLAYER
 10
2.2095197844236019
 20
1.4929377608661187
 30
0.0
 11
2.22949236720505
 21
1.4932617625126596
 31
0.0
  0
LINE
  5
138
100
AcDbEntity
100
AcDbLine
  8
color#ffffffff
 62
256
370
-1
  6
BYLAYER
 10
2.22949236720505
 20
1.4932617625126596
 30
0.0
 11
2.2495050379111392
 21
1.4946052795450473
 31
0.0
  0
LINE
  5
139
100
AcDbEntity
100
AcDbLine
  8
color#ffffffff
 62
256
370
-1
  6
BYLAYER
 10
2.2495050379111392
 20
1.4946052795450473
 30
0.0
 11
2.2695340319272099
 21
1.4969957910667147
 31
0.0
  0
LINE
  5
13A
100
AcDbEntity
100
AcDbLine
  8
color#ffffffff
 62
256
370
-1
  6
BYLAYER
 10
2.2695340319272099
 20
1.4969957910667147
 30
0.0
 11
2.2895555846385971
 21
1.5004607761810982
 31
0.0
  0
LINE
  5
13B
100
AcDbEntity
100
AcDbLine
  8
color#ffffffff
 62
256
370
-1
  6
BYLAYER
 10
2.2895555846385971
 20
1.5004607761810982
 30
0.0
 11
2.3095459314306406
 21
1.5050277139916304
 31
0.0
  0
LINE
  5
13C
100
AcDbEntity
100
AcDbLine
  8
color#ffffffff
 62
256
370
-1
  6
BYLAYER
 10
2.3095459314306406
 20
1.5050277139916304
 30
0.0
 11
2.3294813076886753
 21
1.510724083601749
 31
0.0
  0
LINE
  5
13D
100
AcDbEntity
100
AcDbLine
  8
color#ffffffff
 62
256
370
-1
  6
BYLAYER
 10
2.3294813076886753
 20
1.510724083601749
 30
0.0
 11
2.2909408919848828
 21
1.5214697474792247
 31
0.0
  0
LINE
  5
13E
100
AcDbEntity
100
AcDbLine
  8
color#ffffffff
 62
256
370
-1
  6
BYLAYER
 10
2.2909408919848828
 20
1.5214697474792247
 30
0.0
 11
2.243676488727063
 21
1.5380235688463084
 31
0.0
  0
LINE
  5
13F
100
AcDbEntity
100
AcDbLine
  8
color#ffffffff
 62
256
370
-1
  6
BYLAYER
 10
2.243676488727063
 20
1.5380235688463084
 30
0.0
 11
2.2068975290697481
 21
1.5538699110737457
 31
0.0
  0
LINE
  5
140
100
AcDbEntity
100
AcDbLine
  8
color#ffffffff
 62
256
370
-1
  6
BYLAYER
 10
2.2068975290697481
 20
1.5538699110737457
 30
0.0
 11
2.1713063319016279
 21
1.5721244106801591
 31
0.0
  0
LINE
  5
141
100
AcDbEntity
100
AcDbLine
  8
color#ffffffff
 62
256
370
-1
  6
BYLAYER
 10
2.1713063319016279
 20
1.5721244106801591
 30
0.0
 11
2.1455422914831619
 21
1.5874479058293691
 31
0.0
  0
LINE
  5
142
100
AcDbEntity
100
AcDbLine
  8
color#ffffffff
 62
256
370
-1
  6
BYLAYER
 10
2.1455422914831619
 20
1.5874479058293691
 30
0.0
 11
2.1206916392679243
 21
1.6042115175915288
 31
0.0
  0
LINE
  5
143
100
AcDbEntity
100
AcDbLine
  8
color#ffffffff
 62
256
370
-1
  6
BYLAYER
 10
2.1206916392679243
 20
1.6042115175915288
 30
0.0
 11
2.09685949174294
 21
1.6224519008611848
 31
0.0
  0
LINE
  5
144
100
AcDbEntity
100
AcDbLine
  8
color#ffffffff
 62
256
370
-1
  6
BYLAYER
 10
2.09685949174294
 20
1.6224519008611848
 30
0.0
 11
2.0741509653952326
 21
1.6422057105328831
 31
0.0
  0
LINE
  5
145
100
AcDbEntity
100
AcDbLine
  8
color#ffffffff
 62
256
370
-1
  6
BYLAYER
 10
2.0741509653952326
 20
1.6422057105328831
 30
0.0
 11
2.0608684917291193
 21
1.654624397216625
 31
0.0
  0
LINE
  5
146
100
AcDbEntity
100
AcDbLine
  8
color#ffffffff
 62
256
370
-1
  6
BYLAYER
 10
2.0608684917291193
 20
1.654624397216625
 30
0.0
 11
2.0479791783367132
 21
1.6673838743244691
 31
0.0
  0
LINE
  5
147
100
AcDbEntity
100
AcDbLine
  8
color#ffffffff
 62
256
370
-1
  6
BYLAYER
 10
2.0479791783367132
 20
1.6673838743244691
 30
0.0
 11
2.0354784550944167
 21
1.680472376394579
 31
0.0
  0
LINE
  5
148
100
AcDbEntity
100
AcDbLine
  8
color#ffffffff
 62
256
370
-1
  6
BYLAYER
 10
2.0354784550944167
 20
1.680472376394579
 30
0.0
 11
2.0233617518786309
 21
1.6938781379651178
 31
0.0
  0
LINE
  5
149
100
AcDbEntity
100
AcDbLine
  8
color#ffffffff
 62
256
370
-1
  6
BYLAYER
 10
2.0233617518786309
 20
1.6938781379651178
 30
0.0
 11
2.0116244985657592
 21
1.7075893935742497
 31
0.0
  0
LINE
  5
14A
100
AcDbEntity
100
AcDbLine
  8
color#ffffffff
 62
256
370
-1
  6
BYLAYER
 10
2.0116244985657592
 20
1.7075893935742497
 30
0.0
 11
2.0002621250322026
 21
1.7215943777601379
 31
0.0
  0
LINE
  5
14B
100
AcDbEntity
100
AcDbLine
  8
color#ffffffff
 62
256
370
-1
  6
BYLAYER
 10
2.0002621250322026
 20
1.7215943777601379
 30
0.0
 11
1.989270061154363
 21
1.7358813250609455
 31
0.0
  0
LINE
  5
14C
100
AcDbEntity
100
AcDbLine
  8
color#ffffffff
 62
256
370
-1
  6
BYLAYER
 10
1.989270061154363
 20
1.7358813250609455
 30
0.0
 11
1.9786437368086434
 21
1.7504384700148374
 31
0.0
  0
LINE
  5
14D
100
AcDbEntity
100
AcDbLine
  8
color#ffffffff
 62
256
370
-1
  6
BYLAYER
 10
1.9786437368086434
 20
1.7504384700148374
 30
0.0
 11
1.9683785818714448
 21
1.7652540471599754
 31
0.0
  0
LINE
  5
14E
100
AcDbEntity
100
AcDbLine
  8
color#ffffffff
 62
256
370
-1
  6
BYLAYER
 10
1.9683785818714448
 20
1.7652540471599754
 30
0.0
 11
1.9584700262191694
 21
1.7803162910345252
 31
0.0
  0
LINE
  5
14F
100
AcDbEntity
100
AcDbLine
  8
color#ffffffff
 62
256
370
-1
  6
BYLAYER
 10
1.9584700262191694
 20
1.7803162910345252
 30
0.0
 11
1.9489134997282198
 21
1.795613436176648
 31
0.0
  0
LINE
  5
150
100
AcDbEntity
100
AcDbLine
  8
color#ffffffff
 62
256
370
-1
  6
BYLAYER
 10
1.9489134997282198
 20
1.795613436176648
 30
0.0
 11
1.9397044322749974
 21
1.8111337171245094
 31
0.0
  0
LINE
  5
151
100
AcDbEntity
100
AcDbLine
  8
color#ffffffff
 62
256
370
-1
  6
BYLAYER
 10
1.9397044322749974
 20
1.8111337171245094
 30
0.0
 11
1.9308382537359046
 21
1.8268653684162715
 31
0.0
  0
LINE
  5
152
100
AcDbEntity
100
AcDbLine
  8
color#ffffffff
 62
256
370
-1
  6
BYLAYER
 10
1.9308382537359046
 20
1.8268653684162715
 30
0.0
 11
1.9223103939873434
 21
1.8427966245900989
 31
0.0
  0
LINE
  5
153
100
AcDbEntity
100
AcDbLine
  8
color#ffffffff
 62
256
370
-1
  6
BYLAYER
 10
1.9223103939873434
 20
1.8427966245900989
 30
0.0
 11
1.9141162829057154
 21
1.8589157201841542
 31
0.0
  0
LINE
  5
154
100
AcDbEntity
100
AcDbLine
  8
color#ffffffff
 62
256
370
-1
  6
BYLAYER
 10
1.9141162829057154
 20
1.8589157201841542
 30
0.0
 11
1.9062513503674228
 21
1.8752108897366015
 31
0.0
  0
LINE
  5
155
100
AcDbEntity
100
AcDbLine
  8
color#ffffffff
 62
256
370
-1
  6
BYLAYER
 10
1.9062513503674228
 20
1.8752108897366015
 30
0.0
 11
1.898711026248868
 21
1.8916703677856046
 31
0.0
  0
LINE
  5
156
100
AcDbEntity
100
AcDbLine
  8
color#ffffffff
 62
256
370
-1
  6
BYLAYER
 10
1.898711026248868
 20
1.8916703677856046
 30
0.0
 11
1.8914907404264523
 21
1.9082823888693272
 31
0.0
  0
LINE
  5
157
100
AcDbEntity
100
AcDbLine
  8
color#ffffffff
 62
256
370
-1
  6
BYLAYER
 10
1.8914907404264523
 20
1.9082823888693272
 30
0.0
 11
1.8845859227765784
 21
1.9250351875259324
 31
0.0
  0
LINE
  5
158
100
AcDbEntity
100
AcDbLine
  8
color#ffffffff
 62
256
370
-1
  6
BYLAYER
 10
1.8845859227765784
 20
1.9250351875259324
 30
0.0
 11
1.8779920031756481
 21
1.9419169982935831
 31
0.0
  0
LINE
  5
159
100
AcDbEntity
100
AcDbLine
  8
color#ffffffff
 62
256
370
-1
  6
BYLAYER
 10
1.8779920031756481
 20
1.9419169982935831
 30
0.0
 11
1.8717044115000627
 21
1.9589160557104448
 31
0.0
  0
LINE
  5
15A
100
AcDbEntity
100
AcDbLine
  8
color#ffffffff
 62
256
370
-1
  6
BYLAYER
 10
1.8717044115000627
 20
1.9589160557104448
 30
0.0
 11
1.8657185776262253
 21
1.9760205943146798
 31
0.0
  0
LINE
  5
15B
100
AcDbEntity
100
AcDbLine
  8
color#ffffffff
 62
256
370
-1
  6
BYLAYER
 10
1.8657185776262253
 20
1.9760205943146798
 30
0.0
 11
1.8600299314305377
 21
1.9932188486444506
 31
0.0
  0
LINE
  5
15C
100
AcDbEntity
100
AcDbLine
  8
color#ffffffff
 62
256
370
-1
  6
BYLAYER
 10
1.8600299314305377
 20
1.9932188486444506
 30
0.0
 11
1.8495259215792181
 21
2.0278494426332592
 31
0.0
  0
LINE
  5
15D
100
AcDbEntity
100
AcDbLine
  8
color#ffffffff
 62
256
370
-1
  6
BYLAYER
 10
1.8495259215792181
 20
2.0278494426332592
 30
0.0
 11
1.8401558209573214
 21
2.0627137139821778
 31
0.0
  0
LINE
  5
15E
100
AcDbEntity
100
AcDbLine
  8
color#ffffffff
 62
256
370
-1
  6
BYLAYER
 10
1.8401558209573214
 20
2.0627137139821778
 30
0.0
 11
1.8318830685760632
 21
2.0977175389965157
 31
0.0
  0
LINE
  5
15F
100
AcDbEntity
100
AcDbLine
  8
color#ffffffff
 62
256
370
-1
  6
BYLAYER
 10
1.8318830685760632
 20
2.0977175389965157
 30
0.0
 11
1.8301517651572381
 21
2.1239859937346455
 31
0.0
  0
LINE
  5
160
100
AcDbEntity
100
AcDbLine
  8
color#ffffffff
 62
256
370
-1
  6
BYLAYER
 10
1.8301517651572381
 20
2.1239859937346455
 30
0.0
 11
1.8279531868687973
 21
2.2160956836505736
 31
0.0
  0
LINE
  5
161
100
AcDbEntity
100
AcDbLine
  8
color#ffffffff
 62
256
370
-1
  6
BYLAYER
 10
1.8279531868687973
 20
2.2160956836505736
 30
0.0
 11
1.8453211016560114
 21
2.4789359862319551
 31
0.0
  0
LINE
  5
162
100
AcDbEntity
100
AcDbLine
  8
color#ffffffff
 62
256
370
-1
  6
BYLAYER
 10
1.8453211016560114
 20
2.4789359862319551
 30
0.0
 11
1.8658500562327269
 21
2.5986452613190116
 31
0.0
  0
LINE
  5
163
100
AcDbEntity
100
AcDbLine
  8
color#ffffffff
 62
256
370
-1
  6
BYLAYER
 10
1.8658500562327269
 20
2.5986452613190116
 30
0.0
 11
1.87665577685532
 21
2.6415310213358794
 31
0.0
  0
LINE
  5
164
100
AcDbEntity
100
AcDbLine
  8
color#ffffffff
 62
256
370
-1
  6
BYLAYER
 10
1.87665577685532
 20
2.6415310213358794
 30
0.0
 11
1.8866336990461268
 21
2.6730277483772116
 31
0.0
  0
LINE
  5
165
100
AcDbEntity
100
AcDbLine
  8
color#ffffffff
 62
256
370
-1
  6
BYLAYER
 10
1.8866336990461268
 20
2.6730277483772116
 30
0.0
 11
1.8943455683615973
 21
2.6936024547381732
 31
0.0
  0
LINE
  5
166
100
AcDbEntity
100
AcDbLine
  8
color#ffffffff
 62
256
370
-1
  6
BYLAYER
 10
1.8943455683615973
 20
2.6936024547381732
 30
0.0
 11
1.9030097310044185
 21
2.7137732076092611
 31
0.0
  0
LINE
  5
167
100
AcDbEntity
100
AcDbLine
  8
color#ffffffff
 62
256
370
-1
  6
BYLAYER
 10
1.9030097310044185
 20
2.7137732076092611
 30
0.0
 11
1.9127156352975123
 21
2.7334838948562452
 31
0.0
  0
LINE
  5
168
100
AcDbEntity
100
AcDbLine
  8
color#ffffffff
 62
256
370
-1
  6
BYLAYER
 10
1.9127156352975123
 20
2.7334838948562452
 30
0.0
 11
1.9179871931638226
 21
2.7431491788287525
 31
0.0
  0
LINE
  5
169
100
AcDbEntity
100
AcDbLine
  8
color#ffffffff
 62
256
370
-1
  6
BYLAYER
 10
1.9179871931638226
 20
2.7431491788287525
 30
0.0
 11
1.9235527295637962
 21
2.7526784043448975
 31
0.0
  0
LINE
  5
16A
100
AcDbEntity
100
AcDbLine
  8
color#ffffffff
 62
256
370
-1
  6
BYLAYER
 10
1.9235527295637962
 20
2.7526784043448975
 30
0.0
 11
1.9294234255377967
 21
2.7620645573879035
 31
0.0
  0
LINE
  5
16B
100
AcDbEntity
100
AcDbLine
  8
color#ffffffff
 62
256
370
-1
  6
BYLAYER
 10
1.9294234255377967
 20
2.7620645573879035
 30
0.0
 11
1.9356104621261909
 21
2.7713006239409896
 31
0.0
  0
LINE
  5
16C
100
AcDbEntity
100
AcDbLine
  8
color#ffffffff
 62
256
370
-1
  6
BYLAYER
 10
1.9356104621261909
 20
2.7713006239409896
 30
0.0
 11
1.9421250203693414
 21
2.7803795899873784
 31
0.0
  0
LINE
  5
16D
100
AcDbEntity
100
AcDbLine
  8
color#ffffffff
 62
256
370
-1
  6
BYLAYER
 10
1.9421250203693414
 20
2.7803795899873784
 30
0.0
 11
1.9570160111027972
 21
2.7722289957979229
 31
0.0
  0
LINE
  5
16E
100
AcDbEntity
100
AcDbLine
  8
color#ffffffff
 62
256
370
-1
  6
BYLAYER
 10
1.9570160111027972
 20
2.7722289957979229
 30
0.0
 11
1.9716458444496432
 21
2.7637151980390526
 31
0.0
  0
LINE
  5
16F
100
AcDbEntity
100
AcDbLine
  8
color#ffffffff
 62
256
370
-1
  6
BYLAYER
 10
1.9716458444496432
 20
2.7637151980390526
 30
0.0
 11
1.9860188069388878
 21
2.7548495758765221
 31
0.0
  0
LINE
  5
170
100
AcDbEntity
100
AcDbLine
  8
color#ffffffff
 62
256
370
-1
  6
BYLAYER
 10
1.9860188069388878
 20
2.7548495758765221
 30
0.0
 11
2.0001391850995391
 21
2.7456435084760877
 31
0.0
  0
LINE
  5
171
100
AcDbEntity
100
AcDbLine
  8
color#ffffffff
 62
256
370
-1
  6
BYLAYER
 10
2.0001391850995391
 20
2.7456435084760877
 30
0.0
 11
2.0140112654606059
 21
2.7361083750035058
 31
0.0
  0
LINE
  5
172
100
AcDbEntity
100
AcDbLine
  8
color#ffffffff
 62
256
370
-1
  6
BYLAYER
 10
2.0140112654606059
 20
2.7361083750035058
 30
0.0
 11
2.0276393345510968
 21
2.7262555546245317
 31
0.0
  0
LINE
  5
173
100
AcDbEntity
100
AcDbLine
  8
color#ffffffff
 62
256
370
-1
  6
BYLAYER
 10
2.0276393345510968
 20
2.7262555546245317
 30
0.0
 11
2.0410276789000203
 21
2.7160964265049206
 31
0.0
  0
LINE
  5
174
100
AcDbEntity
100
AcDbLine
  8
color#ffffffff
 62
256
370
-1
  6
BYLAYER
 10
2.0410276789000203
 20
2.7160964265049206
 30
0.0
 11
2.0541805850363852
 21
2.7056423698104286
 31
0.0
  0
LINE
  5
175
100
AcDbEntity
100
AcDbLine
  8
color#ffffffff
 62
256
370
-1
  6
BYLAYER
 10
2.0541805850363852
 20
2.7056423698104286
 30
0.0
 11
2.0671023394891996
 21
2.6949047637068122
 31
0.0
  0
LINE
  5
176
100
AcDbEntity
100
AcDbLine
  8
color#ffffffff
 62
256
370
-1
  6
BYLAYER
 10
2.0671023394891996
 20
2.6949047637068122
 30
0.0
 11
2.0797972287874722
 21
2.6838949873598259
 31
0.0
  0
LINE
  5
177
100
AcDbEntity
100
AcDbLine
  8
color#ffffffff
 62
256
370
-1
  6
BYLAYER
 10
2.0797972287874722
 20
2.6838949873598259
 30
0.0
 11
2.092269539460212
 21
2.6726244199352265
 31
0.0
  0
LINE
  5
178
100
AcDbEntity
100
AcDbLine
  8
color#ffffffff
 62
256
370
-1
  6
BYLAYER
 10
2.092269539460212
 20
2.6726244199352265
 30
0.0
 11
2.1045235580364268
 21
2.6611044405987685
 31
0.0
  0
LINE
  5
179
100
AcDbEntity
100
AcDbLine
  8
color#ffffffff
 62
256
370
-1
  6
BYLAYER
 10
2.1045235580364268
 20
2.6611044405987685
 30
0.0
 11
2.1283938650153171
 21
2.6373617628533026
 31
0.0
  0
LINE
  5
17A
100
AcDbEntity
100
AcDbLine
  8
color#ffffffff
 62
256
370
-1
  6
BYLAYER
 10
2.1283938650153171
 20
2.6373617628533026
 30
0.0
 11
2.151442441956211
 21
2.6127579874494749
 31
0.0
  0
LINE
  5
17B
100
AcDbEntity
100
AcDbLine
  8
color#ffffffff
 62
256
370
-1
  6
BYLAYER
 10
2.151442441956211
 20
2.6127579874494749
 30
0.0
 11
2.1737035810911776
 21
2.5873841477133297
 31
0.0
  0
LINE
  5
17C
100
AcDbEntity
100
AcDbLine
  8
color#ffffffff
 62
256
370
-1
  6
BYLAYER
 10
2.1737035810911776
 20
2.5873841477133297
 30
0.0
 11
2.1952115746522853
 21
2.5613312769709142
 31
0.0
  0
LINE
  5
17D
100
AcDbEntity
100
AcDbLine
  8
color#ffffffff
 62
256
370
-1
  6
BYLAYER
 10
2.1952115746522853
 20
2.5613312769709142
 30
0.0
 11
2.2160007148716012
 21
2.5346904085482742
 31
0.0
  0
LINE
  5
17E
100
AcDbEntity
100
AcDbLine
  8
color#ffffffff
 62
256
370
-1
  6
BYLAYER
 10
2.2160007148716012
 20
2.5346904085482742
 30
0.0
 11
2.2459115894423682
 21
2.4938257456646182
 31
0.0
  0
LINE
  5
17F
100
AcDbEntity
100
AcDbLine
  8
color#ffffffff
 62
256
370
-1
  6
BYLAYER
 10
2.2459115894423682
 20
2.4938257456646182
 30
0.0
 11
2.2835968296730949
 21
2.4381311809820527
 31
0.0
  0
LINE
  5
180
100
AcDbEntity
100
AcDbLine
  8
color#ffffffff
 62
256
370
-1
  6
BYLAYER
 10
2.2835968296730949
 20
2.4381311809820527
 30
0.0
 11
2.2961012633535289
 21
2.4414250629381513
 31
0.0
  0
LINE
  5
181
100
AcDbEntity
100
AcDbLine
  8
color#ffffffff
 62
256
370
-1
  6
BYLAYER
 10
2.2961012633535289
 20
2.4414250629381513
 30
0.0
 11
2.3086471351469964
 21
2.4443144273038553
 31
0.0
  0
LINE
  5
182
100
AcDbEntity
100
AcDbLine
  8
color#ffffffff
 62
256
370
-1
  6
BYLAYER
 10
2.3086471351469964
 20
2.4443144273038553
 30
0.0
 11
2.3212300253157898
 21
2.4468094326447392
 31
0.0
  0
LINE
  5
183
100
AcDbEntity
100
AcDbLine
  8
color#ffffffff
 62
256
370
-1
  6
BYLAYER
 10
2.3212300253157898
 20
2.4468094326447392
 30
0.0
 11
2.3338455141221974
 21
2.4489202375263761
 31
0.0
  0
LINE
  5
184
100
AcDbEntity
100
AcDbLine
  8
color#ffffffff
 62
256
370
-1
  6
BYLAYER
 10
2.3338455141221974
 20
2.4489202375263761
 30
0.0
 11
2.3464891818285096
 21
2.4506570005143411
 31
0.0
  0
LINE
  5
185
100
AcDbEntity
100
AcDbLine
  8
color#ffffffff
 62
256
370
-1
  6
BYLAYER
 10
2.3464891818285096
 20
2.4506570005143411
 30
0.0
 11
2.3591566086970173
 21
2.4520298801742086
 31
0.0
  0
LINE
  5
186
100
AcDbEntity
100
AcDbLine
  8
color#ffffffff
 62
256
370
-1
  6
BYLAYER
 10
2.3591566086970173
 20
2.4520298801742086
 30
0.0
 11
2.3718433749900094
 21
2.4530490350715528
 31
0.0
  0
LINE
  5
187
100
AcDbEntity
100
AcDbLine
  8
color#ffffffff
 62
256
370
-1
  6
BYLAYER
 10
2.3718433749900094
 20
2.4530490350715528
 30
0.0
 11
2.3845450609697778
 21
2.4537246237719472
 31
0.0
  0
LINE
  5
188
100
AcDbEntity
100
AcDbLine
  8
color#ffffffff
 62
256
370
-1
  6
BYLAYER
 10
2.3845450609697778
 20
2.4537246237719472
 30
0.0
 11
2.3972572468986115
 21
2.4540668048409677
 31
0.0
  0
LINE
  5
189
100
AcDbEntity
100
AcDbLine
  8
color#ffffffff
 62
256
370
-1
  6
BYLAYER
 10
2.3972572468986115
 20
2.4540668048409677
 30
0.0
 11
2.409975513038801
 21
2.4540857368441871
 31
0.0
  0
LINE
  5
18A
100
AcDbEntity
100
AcDbLine
  8
color#ffffffff
 62
256
370
-1
  6
BYLAYER
 10
2.409975513038801
 20
2.4540857368441871
 30
0.0
 11
2.4226954396526366
 21
2.4537915783471802
 31
0.0
  0
LINE
  5
18B
100
AcDbEntity
100
AcDbLine
  8
color#ffffffff
 62
256
370
-1
  6
BYLAYER
 10
2.4226954396526366
 20
2.4537915783471802
 30
0.0
 11
2.448122595350406
 21
2.452304624114785
 31
0.0
  0
LINE
  5
18C
100
AcDbEntity
100
AcDbLine
  8
color#ffffffff
 62
256
370
-1
  6
BYLAYER
 10
2.448122595350406
 20
2.452304624114785
 30
0.0
 11
2.4735033560902417
 21
2.4496872106683756
 31
0.0
  0
LINE
  5
18D
100
AcDbEntity
100
AcDbLine
  8
color#ffffffff
 62
256
370
-1
  6
BYLAYER
 10
2.4735033560902417
 20
2.4496872106683756
 30
0.0
 11
2.498802363970464
 21
2.4460206065325476
 31
0.0
  0
LINE
  5
18E
100
AcDbEntity
100
AcDbLine
  8
color#ffffffff
 62
256
370
-1
  6
BYLAYER
 10
2.498802363970464
 20
2.4460206065325476
 30
0.0
 11
2.5239842610893941
 21
2.4413860802318954
 31
0.0
  0
LINE
  5
18F
100
AcDbEntity
100
AcDbLine
  8
color#ffffffff
 62
256
370
-1
  6
BYLAYER
 10
2.5239842610893941
 20
2.4413860802318954
 30
0.0
 11
2.5614601786804467
 21
2.4327972116194201
 31
0.0
  0
LINE
  5
190
100
AcDbEntity
100
AcDbLine
  8
color#ffffffff
 62
256
370
-1
  6
BYLAYER
 10
2.5614601786804467
 20
2.4327972116194201
 30
0.0
 11
2.5984737088616523
 21
2.422487653586932
 31
0.0
  0
LINE
  5
191
100
AcDbEntity
100
AcDbLine
  8
color#ffffffff
 62
256
370
-1
  6
BYLAYER
 10
2.5984737088616523
 20
2.422487653586932
 30
0.0
 11
2.6468995587059259
 21
2.4065390146170613
 31
0.0
  0
LINE
  5
192
100
AcDbEntity
100
AcDbLine
  8
color#ffffffff
 62
256
370
-1
  6
BYLAYER
 10
2.6468995587059259
 20
2.4065390146170613
 30
0.0
 11
2.9193217868850767
 21
2.6211857115030361
 31
0.0
  0
LINE
  5
193
100
AcDbEntity
100
AcDbLine
  8
color#ffffffff
 62
256
370
-1
  6
BYLAYER
 10
2.9193217868850767
 20
2.6211857115030361
 30
0.0
 11
2.9654708651586823
 21
2.6517099663085149
 31
0.0
  0
LINE
  5
194
100
AcDbEntity
100
AcDbLine
  8
color#ffffffff
 62
256
370
-1
  6
BYLAYER
 10
2.9654708651586823
 20
2.6517099663085149
 30
0.0
 11
2.9964562622599846
 21
2.668551095583473
 31
0.0
  0
LINE
  5
195
100
AcDbEntity
100
AcDbLine
  8
color#ffffffff
 62
256
370
-1
  6
BYLAYER
 10
2.9964562622599846
 20
2.668551095583473
 30
0.0
 11
3.0103665018936168
 21
2.673497420415107
 31
0.0
  0
LINE
  5
196
100
AcDbEntity
100
AcDbLine
  8
color#ffffffff
 62
256
370
-1
  6
BYLAYER
 10
3.0103665018936168
 20
2.673497420415107
 30
0.0
 11
3.0198970358117618
 21
2.675722401523029
 31
0.0
  0
LINE
  5
197
100
AcDbEntity
100
AcDbLine
  8
color#ffffffff
 62
256
370
-1
  6
BYLAYER
 10
3.0198970358117618
 20
2.675722401523029
 30
0.0
 11
3.0296550328660121
 21
2.6769421091543504
 31
0.0
  0
LINE
  5
198
100
AcDbEntity
100
AcDbLine
  8
color#ffffffff
 62
256
370
-1
  6
BYLAYER
 10
3.0296550328660121
 20
2.6769421091543504
 30
0.0
 11
3.0396592048902487
 21
2.6770303560638684
 31
0.0
  0
LINE
  5
199
100
AcDbEntity
100
AcDbLine
  8
color#ffffffff
 62
256
370
-1
  6
BYLAYER
 10
3.0396592048902487
 20
2.6770303560638684
 30
0.0
 11
3.0447594539641996
 21
2.6766107482338253
 31
0.0
  0
LINE
  5
19A
100
AcDbEntity
100
AcDbLine
  8
color#ffffffff
 62
256
370
-1
  6
BYLAYER
 10
3.0447594539641996
 20
2.6766107482338253
 30
0.0
 11
3.0499282637183507
 21
2.6758609550063825
 31
0.0
  0
LINE
  5
19B
100
AcDbEntity
100
AcDbLine
  8
color#ffffffff
 62
256
370
-1
  6
BYLAYER
 10
3.0499282637183507
 20
2.6758609550063825
 30
0.0
 11
3.0535864992252346
 21
2.6736650248612603
 31
0.0
  0
LINE
  5
19C
100
AcDbEntity
100
AcDbLine
  8
color#ffffffff
 62
256
370
-1
  6
BYLAYER
 10
3.0535864992252346
 20
2.6736650248612603
 30
0.0
 11
3.0601478827305666
 21
2.6687192397109722
 31
0.0
  0
LINE
  5
19D
100
AcDbEntity
100
AcDbLine
  8
color#ffffffff
 62
256
370
-1
  6
BYLAYER
 10
3.0601478827305666
 20
2.6687192397109722
 30
0.0
 11
3.0657758302757472
 21
2.6630995080009523
 31
0.0
  0
LINE
  5
19E
100
AcDbEntity
100
AcDbLine
  8
color#ffffffff
 62
256
370
-1
  6
BYLAYER
 10
3.0657758302757472
 20
2.6630995080009523
 30
0.0
 11
3.0705583587220864
 21
2.6568833736355968
 31
0.0
  0
LINE
  5
19F
100
AcDbEntity
100
AcDbLine
  8
color#ffffffff
 62
256
370
-1
  6
BYLAYER
 10
3.0705583587220864
 20
2.6568833736355968
 30
0.0
 11
3.0745834849308968
 21
2.6501483805193007
 31
0.0
  0
LINE
  5
1A0
100
AcDbEntity
100
AcDbLine
  8
color#ffffffff
 62
256
370
-1
  6
BYLAYER
 10
3.0745834849308968
 20
2.6501483805193007
 30
0.0
 11
3.0807135980811777
 21
2.6354319936514665
 31
0.0
  0
LINE
  5
1A1
100
AcDbEntity
100
AcDbLine
  8
color#ffffffff
 62
256
370
-1
  6
BYLAYER
 10
3.0807135980811777
 20
2.6354319936514665
 30
0.0
 11
3.0925413334434912
 21
2.5713208770215283
 31
0.0
  0
LINE
  5
1A2
100
AcDbEntity
100
AcDbLine
  8
color#ffffffff
 62
256
370
-1
  6
BYLAYER
 10
3.0925413334434912
 20
2.5713208770215283
 30
0.0
 11
3.0949728548905058
 21
2.5451496251943326
 31
0.0
  0
LINE
  5
1A3
100
AcDbEntity
100
AcDbLine
  8
color#ffffffff
 62
256
370
-1
  6
BYLAYER
 10
3.0949728548905058
 20
2.5451496251943326
 30
0.0
 11
3.0970298695810454
 21
2.5188803651873317
 31
0.0
  0
LINE
  5
1A4
100
AcDbEntity
100
AcDbLine
  8
color#ffffffff
 62
256
370
-1
  6
BYLAYER
 10
3.0970298695810454
 20
2.5188803651873317
 30
0.0
 11
3.0986995093130898
 21
2.4925280015210043
 31
0.0
  0
LINE
  5
1A5
100
AcDbEntity
100
AcDbLine
  8
color#ffffffff
 62
256
370
-1
  6
BYLAYER
 10
3.0986995093130898
 20
2.4925280015210043
 30
0.0
 11
3.099968905884618
 21
2.4661074387158317
 31
0.0
  0
LINE
  5
1A6
100
AcDbEntity
100
AcDbLine
  8
color#ffffffff
 62
256
370
-1
  6
BYLAYER
 10
3.099968905884618
 20
2.4661074387158317
 30
0.0
 11
3.1008251910936107
 21
2.4396335812922931
 31
0.0
  0
LINE
  5
1A7
100
AcDbEntity
100
AcDbLine
  8
color#ffffffff
 62
256
370
-1
  6
BYLAYER
 10
3.1008251910936107
 20
2.4396335812922931
 30
0.0
 11
3.1012554967380481
 21
2.4131213337708681
 31
0.0
  0
LINE
  5
1A8
100
AcDbEntity
100
AcDbLine
  8
color#ffffffff
 62
256
370
-1
  6
BYLAYER
 10
3.1012554967380481
 20
2.4131213337708681
 30
0.0
 11
3.1012469546159078
 21
2.3865856006720376
 31
0.0
  0
LINE
  5
1A9
100
AcDbEntity
100
AcDbLine
  8
color#ffffffff
 62
256
370
-1
  6
BYLAYER
 10
3.1012469546159078
 20
2.3865856006720376
 30
0.0
 11
3.1007866965251725
 21
2.3600412865162812
 31
0.0
  0
LINE
  5
1AA
100
AcDbEntity
100
AcDbLine
  8
color#ffffffff
 62
256
370
-1
  6
BYLAYER
 10
3.1007866965251725
 20
2.3600412865162812
 30
0.0
 11
3.0998618542638194
 21
2.3335032958240789
 31
0.0
  0
LINE
  5
1AB
100
AcDbEntity
100
AcDbLine
  8
color#ffffffff
 62
256
370
-1
  6
BYLAYER
 10
3.0998618542638194
 20
2.3335032958240789
 30
0.0
 11
3.0984595596298297
 21
2.3069865331159107
 31
0.0
  0
LINE
  5
1AC
100
AcDbEntity
100
AcDbLine
  8
color#ffffffff
 62
256
370
-1
  6
BYLAYER
 10
3.0984595596298297
 20
2.3069865331159107
 30
0.0
 11
3.0965669444211823
 21
2.2805059029122563
 31
0.0
  0
LINE
  5
1AD
100
AcDbEntity
100
AcDbLine
  8
color#ffffffff
 62
256
370
-1
  6
BYLAYER
 10
3.0965669444211823
 20
2.2805059029122563
 30
0.0
 11
3.0941711404358583
 21
2.2540763097335965
 31
0.0
  0
LINE
  5
1AE
100
AcDbEntity
100
AcDbLine
  8
color#ffffffff
 62
256
370
-1
  6
BYLAYER
 10
3.0941711404358583
 20
2.2540763097335965
 30
0.0
 11
3.0912592794718359
 21
2.2277126581004105
 31
0.0
  0
LINE
  5
1AF
100
AcDbEntity
100
AcDbLine
  8
color#ffffffff
 62
256
370
-1
  6
BYLAYER
 10
3.0912592794718359
 20
2.2277126581004105
 30
0.0
 11
3.087818493327096
 21
2.2014298525331788
 31
0.0
  0
LINE
  5
1B0
100
AcDbEntity
100
AcDbLine
  8
color#ffffffff
 62
256
370
-1
  6
BYLAYER
 10
3.087818493327096
 20
2.2014298525331788
 30
0.0
 11
3.083835913799617
 21
2.1752427975523809
 31
0.0
  0
LINE
  5
1B1
100
AcDbEntity
100
AcDbLine
  8
color#ffffffff
 62
256
370
-1
  6
BYLAYER
 10
3.083835913799617
 20
2.1752427975523809
 30
0.0
 11
3.0792986726873801
 21
2.1491663976784978
 31
0.0
  0
LINE
  5
1B2
100
AcDbEntity
100
AcDbLine
  8
color#ffffffff
 62
256
370
-1
  6
BYLAYER
 10
3.0792986726873801
 20
2.1491663976784978
 30
0.0
 11
3.0741939017883646
 21
2.1232155574320082
 31
0.0
  0
LINE
  5
1B3
100
AcDbEntity
100
AcDbLine
  8
color#ffffffff
 62
256
370
-1
  6
BYLAYER
 10
3.0741939017883646
 20
2.1232155574320082
 30
0.0
 11
3.0685087329005492
 21
2.0974051813333938
 31
0.0
  0
LINE
  5
1B4
100
AcDbEntity
100
AcDbLine
  8
color#ffffffff
 62
256
370
-1
  6
BYLAYER
 10
3.0685087329005492
 20
2.0974051813333938
 30
0.0
 11
3.0622302978219151
 21
2.0717501739031325
 31
0.0
  0
LINE
  5
1B5
100
AcDbEntity
100
AcDbLine
  8
color#ffffffff
 62
256
370
-1
  6
BYLAYER
 10
3.0622302978219151
 20
2.0717501739031325
 30
0.0
 11
3.0553457283504422
 21
2.0462654396617048
 31
0.0
  0
LINE
  5
1B6
100
AcDbEntity
100
AcDbLine
  8
color#ffffffff
 62
256
370
-1
  6
BYLAYER
 10
3.0553457283504422
 20
2.0462654396617048
 30
0.0
 11
3.0478421562841089
 21
2.0209658831295929
 31
0.0
  0
LINE
  5
1B7
100
AcDbEntity
100
AcDbLine
  8
color#ffffffff
 62
256
370
-1
  6
BYLAYER
 10
3.0478421562841089
 20
2.0209658831295929
 30
0.0
 11
3.039706713420895
 21
1.9958664088272751
 31
0.0
  0
LINE
  5
1B8
100
AcDbEntity
100
AcDbLine
  8
color#ffffffff
 62
256
370
-1
  6
BYLAYER
 10
3.039706713420895
 20
1.9958664088272751
 30
0.0
 11
3.0309265315587823
 21
1.9709819212752298
 31
0.0
  0
LINE
  5
1B9
100
AcDbEntity
100
AcDbLine
  8
color#ffffffff
 62
256
370
-1
  6
BYLAYER
 10
3.0309265315587823
 20
1.9709819212752298
 30
0.0
 11
3.0214887424957477
 21
1.9463273249939401
 31
0.0
  0
LINE
  5
1BA
100
AcDbEntity
100
AcDbLine
  8
color#ffffffff
 62
256
370
-1
  6
BYLAYER
 10
3.0214887424957477
 20
1.9463273249939401
 30
0.0
 11
3.011380478029773
 21
1.9219175245038842
 31
0.0
  0
LINE
  5
1BB
100
AcDbEntity
100
AcDbLine
  8
color#ffffffff
 62
256
370
-1
  6
BYLAYER
 10
3.011380478029773
 20
1.9219175245038842
 30
0.0
 11
3.0005888699588379
 21
1.897767424325542
 31
0.0
  0
LINE
  5
1BC
100
AcDbEntity
100
AcDbLine
  8
color#ffffffff
 62
256
370
-1
  6
BYLAYER
 10
3.0005888699588379
 20
1.897767424325542
 30
0.0
 11
2.9891010500809205
 21
1.8738919289793945
 31
0.0
  0
LINE
  5
1BD
100
AcDbEntity
100
AcDbLine
  8
color#ffffffff
 62
256
370
-1
  6
BYLAYER
 10
2.9891010500809205
 20
1.8738919289793945
 30
0.0
 11
2.9769041501940032
 21
1.8503059429859208
 31
0.0
  0
LINE
  5
1BE
100
AcDbEntity
100
AcDbLine
  8
color#ffffffff
 62
256
370
-1
  6
BYLAYER
 10
2.9769041501940032
 20
1.8503059429859208
 30
0.0
 11
2.9639853020960625
 21
1.827024370865602
 31
0.0
  0
LINE
  5
1BF
100
AcDbEntity
100
AcDbLine
  8
color#ffffffff
 62
256
370
-1
  6
BYLAYER
 10
2.9639853020960625
 20
1.827024370865602
 30
0.0
 11
2.954078517889446
 21
1.8105432120655764
 31
0.0
  0
LINE
  5
1C0
100
AcDbEntity
100
AcDbLine
  8
color#ffffffff
 62
256
370
-1
  6
BYLAYER
 10
2.954078517889446
 20
1.8105432120655764
 30
0.0
 11
2.9437087427010069
 21
1.794305393179628
 31
0.0
  0
LINE
  5
1C1
100
AcDbEntity
100
AcDbLine
  8
color#ffffffff
 62
256
370
-1
  6
BYLAYER
 10
2.9437087427010069
 20
1.794305393179628
 30
0.0
 11
2.9328864120183833
 21
1.7783256850639839
 31
0.0
  0
LINE
  5
1C2
100
AcDbEntity
100
AcDbLine
  8
color#ffffffff
 62
256
370
-1
  6
BYLAYER
 10
2.9328864120183833
 20
1.7783256850639839
 30
0.0
 11
2.9216219613292149
 21
1.7626188585748719
 31
0.0
  0
LINE
  5
1C3
100
AcDbEntity
100
AcDbLine
  8
color#ffffffff
 62
256
370
-1
  6
BYLAYER
 10
2.9216219613292149
 20
1.7626188585748719
 30
0.0
 11
2.9099258261211407
 21
1.747199684568518
 31
0.0
  0
LINE
  5
1C4
100
AcDbEntity
100
AcDbLine
  8
color#ffffffff
 62
256
370
-1
  6
BYLAYER
 10
2.9099258261211407
 20
1.747199684568518
 30
0.0
 11
2.8978084418817995
 21
1.7320829339011508
 31
0.0
  0
LINE
  5
1C5
100
AcDbEntity
100
AcDbLine
  8
color#ffffffff
 62
256
370
-1
  6
BYLAYER
 10
2.8978084418817995
 20
1.7320829339011508
 30
0.0
 11
2.8852802440988303
 21
1.7172833774289964
 31
0.0
  0
LINE
  5
1C6
100
AcDbEntity
100
AcDbLine
  8
color#ffffffff
 62
256
370
-1
  6
BYLAYER
 10
2.8852802440988303
 20
1.7172833774289964
 30
0.0
 11
2.872351668259872
 21
1.7028157860082824
 31
0.0
  0
LINE
  5
1C7
100
AcDbEntity
100
AcDbLine
  8
color#ffffffff
 62
256
370
-1
  6
BYLAYER
 10
2.872351668259872
 20
1.7028157860082824
 30
0.0
 11
2.859033149852563
 21
1.6886949304952357
 31
0.0
  0
LINE
  5
1C8
100
AcDbEntity
100
AcDbLine
  8
color#ffffffff
 62
256
370
-1
  6
BYLAYER
 10
2.859033149852563
 20
1.6886949304952357
 30
0.0
 11
2.8453351243645431
 21
1.6749355817460843
 31
0.0
  0
LINE
  5
1C9
100
AcDbEntity
100
AcDbLine
  8
color#ffffffff
 62
256
370
-1
  6
BYLAYER
 10
2.8453351243645431
 20
1.6749355817460843
 30
0.0
 11
2.8312680272834512
 21
1.6615525106170541
 31
0.0
  0
LINE
  5
1CA
100
AcDbEntity
100
AcDbLine
  8
color#ffffffff
 62
256
370
-1
  6
BYLAYER
 10
2.8312680272834512
 20
1.6615525106170541
 30
0.0
 11
2.8168422940969262
 21
1.6485604879643729
 31
0.0
  0
LINE
  5
1CB
100
AcDbEntity
100
AcDbLine
  8
color#ffffffff
 62
256
370
-1
  6
BYLAYER
 10
2.8168422940969262
 20
1.6485604879643729
 30
0.0
 11
2.8020683602926066
 21
1.635974284644268
 31
0.0
  0
LINE
  5
1CC
100
AcDbEntity
100
AcDbLine
  8
color#ffffffff
 62
256
370
-1
  6
BYLAYER
 10
2.8020683602926066
 20
1.635974284644268
 30
0.0
 11
2.7869566613581318
 21
1.6238086715129672
 31
0.0
  0
LINE
  5
1CD
100
AcDbEntity
100
AcDbLine
  8
color#ffffffff
 62
256
370
-1
  6
BYLAYER
 10
2.7869566613581318
 20
1.6238086715129672
 30
0.0
 11
2.771517632781141
 21
1.6120784194266962
 31
0.0
  0
LINE
  5
1CE
100
AcDbEntity
100
AcDbLine
  8
color#ffffffff
 62
256
370
-1
  6
BYLAYER
 10
2.771517632781141
 20
1.6120784194266962
 30
0.0
 11
2.7557617100492724
 21
1.6007982992416834
 31
0.0
  0
LINE
  5
1CF
100
AcDbEntity
100
AcDbLine
  8
color#ffffffff
 62
256
370
-1
  6
BYLAYER
 10
2.7557617100492724
 20
1.6007982992416834
 30
0.0
 11
2.7396993286501656
 21
1.5899830818141554
 31
0.0
  0
LINE
  5
1D0
100
AcDbEntity
100
AcDbLine
  8
color#ffffffff
 62
256
370
-1
  6
BYLAYER
 10
2.7396993286501656
 20
1.5899830818141554
 30
0.0
 11
2.7233409240714588
 21
1.5796475380003396
 31
0.0
  0
LINE
  5
1D1
100
AcDbEntity
100
AcDbLine
  8
color#ffffffff
 62
256
370
-1
  6
BYLAYER
 10
2.7233409240714588
 20
1.5796475380003396
 30
0.0
 11
2.7066969318007916
 21
1.569806438656463
 31
0.0
  0
LINE
  5
1D2
100
AcDbEntity
100
AcDbLine
  8
color#ffffffff
 62
256
370
-1
  6
BYLAYER
 10
2.7066969318007916
 20
1.569806438656463
 30
0.0
 11
2.689777787325804
 21
1.5604745546387531
 31
0.0
  0
LINE
  5
1D3
100
AcDbEntity
100
AcDbLine
  8
color#ffffffff
 62
256
370
-1
  6
BYLAYER
 10
2.689777787325804
 20
1.5604745546387531
 30
0.0
 11
2.672593926134132
 21
1.5516666568034365
 31
0.0
  0
LINE
  5
1D4
100
AcDbEntity
100
AcDbLine
  8
color#ffffffff
 62
256
370
-1
  6
BYLAYER
 10
2.672593926134132
 20
1.5516666568034365
 30
0.0
 11
2.6551557837134165
 21
1.5433975160067419
 31
0.0
  0
LINE
  5
1D5
100
AcDbEntity
100
AcDbLine
  8
color#ffffffff
 62
256
370
-1
  6
BYLAYER
 10
2.6551557837134165
 20
1.5433975160067419
 30
0.0
 11
2.6374737955512972
 21
1.5356819031048938
 31
0.0
  0
LINE
  5
1D6
100
AcDbEntity
100
AcDbLine
  8
color#ffffffff
 62
256
370
-1
  6
BYLAYER
 10
2.6374737955512972
 20
1.5356819031048938
 30
0.0
 11
2.6195583971354126
 21
1.5285345889541213
 31
0.0
  0
LINE
  5
1D7
100
AcDbEntity
100
AcDbLine
  8
color#ffffffff
 62
256
370
-1
  6
BYLAYER
 10
2.6195583971354126
 20
1.5285345889541213
 30
0.0
 11
2.6014200239534002
 21
1.5219703444106523
 31
0.0
  0
LINE
  5
1D8
100
AcDbEntity
100
AcDbLine
  8
color#ffffffff
 62
256
370
-1
  6
BYLAYER
 10
2.6014200239534002
 20
1.5219703444106523
 30
0.0
 11
2.5830691114929012
 21
1.516003940330712
 31
0.0
  0
LINE
  5
1D9
100
AcDbEntity
100
AcDbLine
  8
color#ffffffff
 62
256
370
-1
  6
BYLAYER
 10
2.5830691114929012
 20
1.516003940330712
 30
0.0
 11
2.5645160952415522
 21
1.510650147570529
 31
0.0
  0
LINE
  5
1DA
100
AcDbEntity
100
AcDbLine
  8
color#ffffffff
 62
256
370
-1
  6
BYLAYER
 10
2.5645160952415522
 20
1.510650147570529
 30
0.0
 11
2.545771410686994
 21
1.5059237369863285
 31
0.0
  0
LINE
  5
1DB
100
AcDbEntity
100
AcDbLine
  8
color#ffffffff
 62
256
370
-1
  6
BYLAYER
 10
2.545771410686994
 20
1.5059237369863285
 30
0.0
 11
2.5268454933168645
 21
1.501839479434341
 31
0.0
  0
LINE
  5
1DC
100
AcDbEntity
100
AcDbLine
  8
color#ffffffff
 62
256
370
-1
  6
BYLAYER
 10
2.5268454933168645
 20
1.501839479434341
 30
0.0
 11
2.2306807155806001
 21
0.2348083562420062
 31
0.0
  0
LINE
  5
1DD
100
AcDbEntity
100
AcDbLine
  8
color#ffffffff
 62
256
370
-1
  6
BYLAYER
 10
2.2306807155806001
 20
0.2348083562420062
 30
0.0
 11
2.2147598204367833
 21
0.1672118033000842
 31
0.0
  0
LINE
  5
1DE
100
AcDbEntity
100
AcDbLine
  8
color#ffffffff
 62
256
370
-1
  6
BYLAYER
 10
2.2147598204367833
 20
0.1672118033000842
 30
0.0
 11
2.1995355625449067
 21
0.1236603088160315
 31
0.0
  0
LINE
  5
1DF
100
AcDbEntity
100
AcDbLine
  8
color#ffffffff
 62
256
370
-1
  6
BYLAYER
 10
2.1995355625449067
 20
0.1236603088160315
 30
0.0
 11
2.1888938567131122
 21
0.1033440296545922
 31
0.0
  0
LINE
  5
1E0
100
AcDbEntity
100
AcDbLine
  8
color#ffffffff
 62
256
370
-1
  6
BYLAYER
 10
2.1888938567131122
 20
0.1033440296545922
 30
0.0
 11
2.1791369284739934
 21
0.0890203079149371
 31
0.0
  0
LINE
  5
1E1
100
AcDbEntity
100
AcDbLine
  8
color#ffffffff
 62
256
370
-1
  6
BYLAYER
 10
2.1791369284739934
 20
0.0890203079149371
 30
0.0
 11
2.1716581314327246
 21
0.0799847171547508
 31
0.0
  0
LINE
  5
1E2
100
AcDbEntity
100
AcDbLine
  8
color#ffffffff
 62
256
370
-1
  6
BYLAYER
 10
2.1716581314327246
 20
0.0799847171547508
 30
0.0
 11
2.1660154646424781
 21
0.0738338758089516
 31
0.0
  0
LINE
  5
1E3
100
AcDbEntity
100
AcDbLine
  8
color#ffffffff
 62
256
370
-1
  6
BYLAYER
 10
2.1660154646424781
 20
0.0738338758089516
 30
0.0
 11
2.1600629303516898
 21
0.0680107263856261
 31
0.0
  0
LINE
  5
1E4
100
AcDbEntity
100
AcDbLine
  8
color#ffffffff
 62
256
370
-1
  6
BYLAYER
 10
2.1600629303516898
 20
0.0680107263856261
 30
0.0
 11
2.1538196593760324
 21
0.0625192266525845
 31
0.0
  0
LINE
  5
1E5
100
AcDbEntity
100
AcDbLine
  8
color#ffffffff
 62
256
370
-1
  6
BYLAYER
 10
2.1538196593760324
 20
0.0625192266525845
 30
0.0
 11
2.1473047825311795
 21
0.0573633343776368
 31
0.0
  0
LINE
  5
1E6
100
AcDbEntity
100
AcDbLine
  8
color#ffffffff
 62
256
370
-1
  6
BYLAYER
 10
2.1473047825311795
 20
0.0573633343776368
 30
0.0
 11
2.1405374306328033
 21
0.0525470073285924
 31
0.0
  0
LINE
  5
1E7
100
AcDbEntity
100
AcDbLine
  8
color#ffffffff
 62
256
370
-1
  6
BYLAYER
 10
2.1405374306328033
 20
0.0525470073285924
 30
0.0
 11
2.1335367344965768
 21
0.0480742032732624
 31
0.0
  0
LINE
  5
1E8
100
AcDbEntity
100
AcDbLine
  8
color#ffffffff
 62
256
370
-1
  6
BYLAYER
 10
2.1335367344965768
 20
0.0480742032732624
 30
0.0
 11
2.1263218249381728
 21
0.0439488799794567
 31
0.0
  0
LINE
  5
1E9
100
AcDbEntity
100
AcDbLine
  8
color#ffffffff
 62
256
370
-1
  6
BYLAYER
 10
2.1263218249381728
 20
0.0439488799794567
 30
0.0
 11
2.1189118327732639
 21
0.0401749952149856
 31
0.0
  0
LINE
  5
1EA
100
AcDbEntity
100
AcDbLine
  8
color#ffffffff
 62
256
370
-1
  6
BYLAYER
 10
2.1189118327732639
 20
0.0401749952149856
 30
0.0
 11
2.111325888817523
 21
0.0367565067476588
 31
0.0
  0
LINE
  5
1EB
100
AcDbEntity
100
AcDbLine
  8
color#ffffffff
 62
256
370
-1
  6
BYLAYER
 10
2.111325888817523
 20
0.0367565067476588
 30
0.0
 11
2.1035831238866227
 21
0.0336973723452867
 31
0.0
  0
LINE
  5
1EC
100
AcDbEntity
100
AcDbLine
  8
color#ffffffff
 62
256
370
-1
  6
BYLAYER
 10
2.1035831238866227
 20
0.0336973723452867
 30
0.0
 11
2.0957026687962363
 21
0.0310015497756788
 31
0.0
  0
LINE
  5
1ED
100
AcDbEntity
100
AcDbLine
  8
color#ffffffff
 62
256
370
-1
  6
BYLAYER
 10
2.0957026687962363
 20
0.0310015497756788
 30
0.0
 11
2.087703654362036
 21
0.0286729968066462
 31
0.0
  0
LINE
  5
1EE
100
AcDbEntity
100
AcDbLine
  8
color#ffffffff
 62
256
370
-1
  6
BYLAYER
 10
2.087703654362036
 20
0.0286729968066462
 30
0.0
 11
2.0796052113996955
 21
0.0267156712059986
 31
0.0
  0
LINE
  5
1EF
100
AcDbEntity
100
AcDbLine
  8
color#ffffffff
 62
256
370
-1
  6
BYLAYER
 10
2.0796052113996955
 20
0.0267156712059986
 30
0.0
 11
2.0714264707248864
 21
0.025133530741546
 31
0.0
  0
LINE
  5
1F0
100
AcDbEntity
100
AcDbLine
  8
color#ffffffff
 62
256
370
-1
  6
BYLAYER
 10
2.0714264707248864
 20
0.025133530741546
 30
0.0
 11
2.0631865631532822
 21
0.0239305331810991
 31
0.0
  0
LINE
  5
1F1
100
AcDbEntity
100
AcDbLine
  8
color#ffffffff
 62
256
370
-1
  6
BYLAYER
 10
2.0631865631532822
 20
0.0239305331810991
 30
0.0
 11
2.0549046195005563
 21
0.0231106362924673
 31
0.0
  0
LINE
  5
1F2
100
AcDbEntity
100
AcDbLine
  8
color#ffffffff
 62
256
370
-1
  6
BYLAYER
 10
2.0549046195005563
 20
0.0231106362924673
 30
0.0
 11
2.0465997705823802
 21
0.0226777978434609
 31
0.0
  0
LINE
  5
1F3
100
AcDbEntity
100
AcDbLine
  8
color#ffffffff
 62
256
370
-1
  6
BYLAYER
 10
2.0465997705823802
 20
0.0226777978434609
 30
0.0
 11
2.0382911472144261
 21
0.0226359756018917
 31
0.0
  0
LINE
  5
1F4
100
AcDbEntity
100
AcDbLine
  8
color#ffffffff
 62
256
370
-1
  6
BYLAYER
 10
2.0382911472144261
 20
0.0226359756018917
 30
0.0
 11
2.0299978802123686
 21
0.0229891273355669
 31
0.0
  0
LINE
  5
1F5
100
AcDbEntity
100
AcDbLine
  8
color#ffffffff
 62
256
370
-1
  6
BYLAYER
 10
2.0299978802123686
 20
0.0229891273355669
 30
0.0
 11
2.0217391003918812
 21
0.0237412108122971
 31
0.0
  0
LINE
  5
1F6
100
AcDbEntity
100
AcDbLine
  8
color#ffffffff
 62
256
370
-1
  6
BYLAYER
 10
2.0217391003918812
 20
0.0237412108122971
 30
0.0
 11
2.0135339385686337
 21
0.0248961837998958
 31
0.0
  0
LINE
  5
1F7
100
AcDbEntity
100
AcDbLine
  8
color#ffffffff
 62
256
370
-1
  6
BYLAYER
 10
2.0135339385686337
 20
0.0248961837998958
 30
0.0
 11
2.0054015255583004
 21
0.0264580040661709
 31
0.0
  0
LINE
  5
1F8
100
AcDbEntity
100
AcDbLine
  8
color#ffffffff
 62
256
370
-1
  6
BYLAYER
 10
2.0054015255583004
 20
0.0264580040661709
 30
0.0
 11
1.9973609921765554
 21
0.0284306293789298
 31
0.0
  0
LINE
  5
1F9
100
AcDbEntity
100
AcDbLine
  8
color#ffffffff
 62
256
370
-1
  6
BYLAYER
 10
1.9973609921765554
 20
0.0284306293789298
 30
0.0
 11
1.9894314692390698
 21
0.0308180175059868
 31
0.0
  0
LINE
  5
1FA
100
AcDbEntity
100
AcDbLine
  8
color#ffffffff
 62
256
370
-1
  6
BYLAYER
 10
1.9894314692390698
 20
0.0308180175059868
 30
0.0
 11
1.9816320875615163
 21
0.0336241262151514
 31
0.0
  0
LINE
  5
1FB
100
AcDbEntity
100
AcDbLine
  8
color#ffffffff
 62
256
370
-1
  6
BYLAYER
 10
1.9816320875615163
 20
0.0336241262151514
 30
0.0
 11
1.9739819779595689
 21
0.036852913274231
 31
0.0
  0
LINE
  5
1FC
100
AcDbEntity
100
AcDbLine
  8
color#ffffffff
 62
256
370
-1
  6
BYLAYER
 10
1.9739819779595689
 20
0.036852913274231
 30
0.0
 11
1.9665002712488997
 21
0.0405083364510388
 31
0.0
  0
LINE
  5
1FD
100
AcDbEntity
100
AcDbLine
  8
color#ffffffff
 62
256
370
-1
  6
BYLAYER
 10
1.9665002712488997
 20
0.0405083364510388
 30
0.0
 11
1.9592060982451815
 21
0.0445943535133821
 31
0.0
  0
LINE
  5
1FE
100
AcDbEntity
100
AcDbLine
  8
color#ffffffff
 62
256
370
-1
  6
BYLAYER
 10
1.9592060982451815
 20
0.0445943535133821
 30
0.0
 11
1.9521185897640869
 21
0.0491149222290746
 31
0.0
  0
LINE
  5
1FF
100
AcDbEntity
100
AcDbLine
  8
color#ffffffff
 62
256
370
-1
  6
BYLAYER
 10
1.9521185897640869
 20
0.0491149222290746
 30
0.0
 11
1.940944918847233
 21
0.0569208013112075
 31
0.0
  0
LINE
  5
200
100
AcDbEntity
100
AcDbLine
  8
color#ffffffff
 62
256
370
-1
  6
BYLAYER
 10
1.940944918847233
 20
0.0569208013112075
 30
0.0
 11
1.9304646193786539
 21
0.0656183194347967
 31
0.0
  0
LINE
  5
201
100
AcDbEntity
100
AcDbLine
  8
color#ffffffff
 62
256
370
-1
  6
BYLAYER
 10
1.9304646193786539
 20
0.0656183194347967
 30
0.0
 11
1.9207235013630692
 21
0.0751333028579779
 31
0.0
  0
LINE
  5
202
100
AcDbEntity
100
AcDbLine
  8
color#ffffffff
 62
256
370
-1
  6
BYLAYER
 10
1.9207235013630692
 20
0.0751333028579779
 30
0.0
 11
1.9117673748051973
 21
0.0853915778388906
 31
0.0
  0
LINE
  5
203
100
AcDbEntity
100
AcDbLine
  8
color#ffffffff
 62
256
370
-1
  6
BYLAYER
 10
1.9117673748051973
 20
0.0853915778388906
 30
0.0
 11
1.9036420497097568
 21
0.0963189706356719
 31
0.0
  0
LINE
  5
204
100
AcDbEntity
100
AcDbLine
  8
color#ffffffff
 62
256
370
-1
  6
BYLAYER
 10
1.9036420497097568
 20
0.0963189706356719
 30
0.0
 11
1.8963933360814673
 21
0.1078413075064585
 31
0.0
  0
LINE
  5
205
100
AcDbEntity
100
AcDbLine
  8
color#ffffffff
 62
256
370
-1
  6
BYLAYER
 10
1.8963933360814673
 20
0.1078413075064585
 30
0.0
 11
1.8900670439250473
 21
0.1198844147093882
 31
0.0
  0
LINE
  5
206
100
AcDbEntity
100
AcDbLine
  8
color#ffffffff
 62
256
370
-1
  6
BYLAYER
 10
1.8900670439250473
 20
0.1198844147093882
 30
0.0
 11
1.884708983245216
 21
0.1323741185025994
 31
0.0
  0
LINE
  5
207
100
AcDbEntity
100
AcDbLine
  8
color#ffffffff
 62
256
370
-1
  6
BYLAYER
 10
1.884708983245216
 20
0.1323741185025994
 30
0.0
 11
1.880364964046692
 21
0.1452362451442291
 31
0.0
  0
LINE
  5
208
100
AcDbEntity
100
AcDbLine
  8
color#ffffffff
 62
256
370
-1
  6
BYLAYER
 10
1.880364964046692
 20
0.1452362451442291
 30
0.0
 11
1.8770807963341944
 21
0.1583966208924146
 31
0.0
  0
LINE
  5
209
100
AcDbEntity
100
AcDbLine
  8
color#ffffffff
 62
256
370
-1
  6
BYLAYER
 10
1.8770807963341944
 20
0.1583966208924146
 30
0.0
 11
1.8749022901124412
 21
0.1717810720052964
 31
0.0
  0
LINE
  5
20A
100
AcDbEntity
100
AcDbLine
  8
color#ffffffff
 62
256
370
-1
  6
BYLAYER
 10
1.8749022901124412
 20
0.1717810720052964
 30
0.0
 11
1.8738752553861535
 21
0.1853154247410068
 31
0.0
  0
LINE
  5
20B
100
AcDbEntity
100
AcDbLine
  8
color#ffffffff
 62
256
370
-1
  6
BYLAYER
 10
1.8738752553861535
 20
0.1853154247410068
 30
0.0
 11
1.8740455021600479
 21
0.1989255053576875
 31
0.0
  0
LINE
  5
20C
100
AcDbEntity
100
AcDbLine
  8
color#ffffffff
 62
256
370
-1
  6
BYLAYER
 10
1.8740455021600479
 20
0.1989255053576875
 30
0.0
 11
1.8745939217360383
 21
0.2057357643270596
 31
0.0
  0
LINE
  5
20D
100
AcDbEntity
100
AcDbLine
  8
color#ffffffff
 62
256
370
-1
  6
BYLAYER
 10
1.8745939217360383
 20
0.2057357643270596
 30
0.0
 11
1.8754588404388446
 21
0.2125371401134741
 31
0.0
  0
LINE
  5
20E
100
AcDbEntity
100
AcDbLine
  8
color#ffffffff
 62
256
370
-1
  6
BYLAYER
 10
1.8754588404388446
 20
0.2125371401134741
 30
0.0
 11
1.8766459845190551
 21
0.2193203609992014
 31
0.0
  0
LINE
  5
20F
100
AcDbEntity
100
AcDbLine
  8
color#ffffffff
 62
256
370
-1
  6
BYLAYER
 10
1.8766459845190551
 20
0.2193203609992014
 30
0.0
 11
1.9865144888726622
 21
0.7860729635563971
 31
0.0
  0
LINE
  5
210
100
AcDbEntity
100
AcDbLine
  8
color#ffffffff
 62
256
370
-1
  6
BYLAYER
 10
1.9865144888726622
 20
0.7860729635563971
 30
0.0
 11
1.980024591243386
 21
0.7829901262236894
 31
0.0
  0
LINE
  5
211
100
AcDbEntity
100
AcDbLine
  8
color#ffffffff
 62
256
370
-1
  6
BYLAYER
 10
1.980024591243386
 20
0.7829901262236894
 30
0.0
 11
1.9668307438487223
 21
0.777682253927339
 31
0.0
  0
LINE
  5
212
100
AcDbEntity
100
AcDbLine
  8
color#ffffffff
 62
256
370
-1
  6
BYLAYER
 10
1.9668307438487223
 20
0.777682253927339
 30
0.0
 11
1.953397409767972
 21
0.7734982571116689
 31
0.0
  0
LINE
  5
213
100
AcDbEntity
100
AcDbLine
  8
color#ffffffff
 62
256
370
-1
  6
BYLAYER
 10
1.953397409767972
 20
0.7734982571116689
 30
0.0
 11
1.9397796883956069
 21
0.7704143025629904
 31
0.0
  0
LINE
  5
214
100
AcDbEntity
100
AcDbLine
  8
color#ffffffff
 62
256
370
-1
  6
BYLAYER
 10
1.9397796883956069
 20
0.7704143025629904
 30
0.0
 11
1.9260326791260998
 21
0.7684065570676155
 31
0.0
  0
LINE
  5
215
100
AcDbEntity
100
AcDbLine
  8
color#ffffffff
 62
256
370
-1
  6
BYLAYER
 10
1.9260326791260998
 20
0.7684065570676155
 30
0.0
 11
1.9122114813539228
 21
0.7674511874118579
 31
0.0
  0
LINE
  5
216
100
AcDbEntity
100
AcDbLine
  8
color#ffffffff
 62
256
370
-1
  6
BYLAYER
 10
1.9122114813539228
 20
0.7674511874118579
 30
0.0
 11
1.8983711944735491
 21
0.7675243603820271
 31
0.0
  0
LINE
  5
217
100
AcDbEntity
100
AcDbLine
  8
color#ffffffff
 62
256
370
-1
  6
BYLAYER
 10
1.8983711944735491
 20
0.7675243603820271
 30
0.0
 11
1.8845669178794506
 21
0.7686022427644375
 31
0.0
  0
LINE
  5
218
100
AcDbEntity
100
AcDbLine
  8
color#ffffffff
 62
256
370
-1
  6
BYLAYER
 10
1.8845669178794506
 20
0.7686022427644375
 30
0.0
 11
1.8708537509660994
 21
0.7706610013453989
 31
0.0
  0
LINE
  5
219
100
AcDbEntity
100
AcDbLine
  8
color#ffffffff
 62
256
370
-1
  6
BYLAYER
 10
1.8708537509660994
 20
0.7706610013453989
 30
0.0
 11
1.857286793127968
 21
0.7736768029112263
 31
0.0
  0
LINE
  5
21A
100
AcDbEntity
100
AcDbLine
  8
color#ffffffff
 62
256
370
-1
  6
BYLAYER
 10
1.857286793127968
 20
0.7736768029112263
 30
0.0
 11
1.8439211437595295
 21
0.7776258142482296
 31
0.0
  0
LINE
  5
21B
100
AcDbEntity
100
AcDbLine
  8
color#ffffffff
 62
256
370
-1
  6
BYLAYER
 10
1.8439211437595295
 20
0.7776258142482296
 30
0.0
 11
1.8308119022552565
 21
0.7824842021427215
 31
0.0
  0
LINE
  5
21C
100
AcDbEntity
100
AcDbLine
  8
color#ffffffff
 62
256
370
-1
  6
BYLAYER
 10
1.8308119022552565
 20
0.7824842021427215
 30
0.0
 11
1.81801416800962
 21
0.7882281333810148
 31
0.0
  0
LINE
  5
21D
100
AcDbEntity
100
AcDbLine
  8
color#ffffffff
 62
256
370
-1
  6
BYLAYER
 10
1.81801416800962
 20
0.7882281333810148
 30
0.0
 11
1.8055830404170936
 21
0.7948337747494195
 31
0.0
  0
LINE
  5
21E
100
AcDbEntity
100
AcDbLine
  8
color#ffffffff
 62
256
370
-1
  6
BYLAYER
 10
1.8055830404170936
 20
0.7948337747494195
 30
0.0
 11
1.7935736188721501
 21
0.80227729303425
 31
0.0
  0
LINE
  5
21F
100
AcDbEntity
100
AcDbLine
  8
color#ffffffff
 62
256
370
-1
  6
BYLAYER
 10
1.7935736188721501
 20
0.80227729303425
 30
0.0
 11
1.6682637172334254
 21
0.1672679097085271
 31
0.0
  0
LINE
  5
220
100
AcDbEntity
100
AcDbLine
  8
color#ffffffff
 62
256
370
-1
  6
BYLAYER
 10
1.6682637172334254
 20
0.1672679097085271
 30
0.0
 11
1.6668830614790737
 21
0.1586097182958951
 31
0.0
  0
LINE
  5
221
100
AcDbEntity
100
AcDbLine
  8
color#ffffffff
 62
256
370
-1
  6
BYLAYER
 10
1.6668830614790737
 20
0.1586097182958951
 30
0.0
 11
1.664976408444566
 21
0.1500747857528751
 31
0.0
  0
LINE
  5
222
100
AcDbEntity
100
AcDbLine
  8
color#ffffffff
 62
256
370
-1
  6
BYLAYER
 10
1.664976408444566
 20
0.1500747857528751
 30
0.0
 11
1.6625631112532337
 21
0.1416812701067908
 31
0.0
  0
LINE
  5
223
100
AcDbEntity
100
AcDbLine
  8
color#ffffffff
 62
256
370
-1
  6
BYLAYER
 10
1.6625631112532337
 20
0.1416812701067908
 30
0.0
 11
1.6596625230284081
 21
0.1334473293849657
 31
0.0
  0
LINE
  5
224
100
AcDbEntity
100
AcDbLine
  8
color#ffffffff
 62
256
370
-1
  6
BYLAYER
 10
1.6596625230284081
 20
0.1334473293849657
 30
0.0
 11
1.6562939968934214
 21
0.1253911216147223
 31
0.0
  0
LINE
  5
225
100
AcDbEntity
100
AcDbLine
  8
color#ffffffff
 62
256
370
-1
  6
BYLAYER
 10
1.6562939968934214
 20
0.1253911216147223
 30
0.0
 11
1.6524768859716039
 21
0.1175308048233848
 31
0.0
  0
LINE
  5
226
100
AcDbEntity
100
AcDbLine
  8
color#ffffffff
 62
256
370
-1
  6
BYLAYER
 10
1.6524768859716039
 20
0.1175308048233848
 30
0.0
 11
1.6482305433862878
 21
0.1098845370382762
 31
0.0
  0
LINE
  5
227
100
AcDbEntity
100
AcDbLine
  8
color#ffffffff
 62
256
370
-1
  6
BYLAYER
 10
1.6482305433862878
 20
0.1098845370382762
 30
0.0
 11
1.6435743222608039
 21
0.1024704762867196
 31
0.0
  0
LINE
  5
228
100
AcDbEntity
100
AcDbLine
  8
color#ffffffff
 62
256
370
-1
  6
BYLAYER
 10
1.6435743222608039
 20
0.1024704762867196
 30
0.0
 11
1.6385275757184838
 21
0.0953067805960394
 31
0.0
  0
LINE
  5
229
100
AcDbEntity
100
AcDbLine
  8
color#ffffffff
 62
256
370
-1
  6
BYLAYER
 10
1.6385275757184838
 20
0.0953067805960394
 30
0.0
 11
1.6331096568826595
 21
0.088411607993557
 31
0.0
  0
LINE
  5
22A
100
AcDbEntity
100
AcDbLine
  8
color#ffffffff
 62
256
370
-1
  6
BYLAYER
 10
1.6331096568826595
 20
0.088411607993557
 30
0.0
 11
1.627339918876662
 21
0.0818031165065973
 31
0.0
  0
LINE
  5
22B
100
AcDbEntity
100
AcDbLine
  8
color#ffffffff
 62
256
370
-1
  6
BYLAYER
 10
1.627339918876662
 20
0.0818031165065973
 30
0.0
 11
1.6212377148238226
 21
0.0754994641624837
 31
0.0
  0
LINE
  5
22C
100
AcDbEntity
100
AcDbLine
  8
color#ffffffff
 62
256
370
-1
  6
BYLAYER
 10
1.6212377148238226
 20
0.0754994641624837
 30
0.0
 11
1.6148223978474725
 21
0.0695188089885382
 31
0.0
  0
LINE
  5
22D
100
AcDbEntity
100
AcDbLine
  8
color#ffffffff
 62
256
370
-1
  6
BYLAYER
 10
1.6148223978474725
 20
0.0695188089885382
 30
0.0
 11
1.608113321070944
 21
0.0638793090120851
 31
0.0
  0
LINE
  5
22E
100
AcDbEntity
100
AcDbLine
  8
color#ffffffff
 62
256
370
-1
  6
BYLAYER
 10
1.608113321070944
 20
0.0638793090120851
 30
0.0
 11
1.6011298376175676
 21
0.0585991222604483
 31
0.0
  0
LINE
  5
22F
100
AcDbEntity
100
AcDbLine
  8
color#ffffffff
 62
256
370
-1
  6
BYLAYER
 10
1.6011298376175676
 20
0.0585991222604483
 30
0.0
 11
1.5938913006106747
 21
0.0536964067609505
 31
0.0
  0
LINE
  5
230
100
AcDbEntity
100
AcDbLine
  8
color#ffffffff
 62
256
370
-1
  6
BYLAYER
 10
1.5938913006106747
 20
0.0536964067609505
 30
0.0
 11
1.5864170631735974
 21
0.0491893205409137
 31
0.0
  0
LINE
  5
231
100
AcDbEntity
100
AcDbLine
  8
color#ffffffff
 62
256
370
-1
  6
BYLAYER
 10
1.5864170631735974
 20
0.0491893205409137
 30
0.0
 11
1.5787264784296662
 21
0.0450960216276637
 31
0.0
  0
LINE
  5
232
100
AcDbEntity
100
AcDbLine
  8
color#ffffffff
 62
256
370
-1
  6
BYLAYER
 10
1.5787264784296662
 20
0.0450960216276637
 30
0.0
 11
1.5708388995022138
 21
0.0414346680485226
 31
0.0
  0
LINE
  5
233
100
AcDbEntity
100
AcDbLine
  8
color#ffffffff
 62
256
370
-1
  6
BYLAYER
 10
1.5708388995022138
 20
0.0414346680485226
 30
0.0
 11
1.5627736795145706
 21
0.0382234178308123
 31
0.0
  0
LINE
  5
234
100
AcDbEntity
100
AcDbLine
  8
color#ffffffff
 62
256
370
-1
  6
BYLAYER
 10
1.5627736795145706
 20
0.0382234178308123
 30
0.0
 11
1.554550171590068
 21
0.0354804290018597
 31
0.0
  0
LINE
  5
235
100
AcDbEntity
100
AcDbLine
  8
color#ffffffff
 62
256
370
-1
  6
BYLAYER
 10
1.554550171590068
 20
0.0354804290018597
 30
0.0
 11
1.5461877288520371
 21
0.0332238595889862
 31
0.0
  0
LINE
  5
236
100
AcDbEntity
100
AcDbLine
  8
color#ffffffff
 62
256
370
-1
  6
BYLAYER
 10
1.5461877288520371
 20
0.0332238595889862
 30
0.0
 11
1.5377057044238114
 21
0.0314718676195132
 31
0.0
  0
LINE
  5
237
100
AcDbEntity
100
AcDbLine
  8
color#ffffffff
 62
256
370
-1
  6
BYLAYER
 10
1.5377057044238114
 20
0.0314718676195132
 30
0.0
 11
1.5291234514287197
 21
0.0302426111207667
 31
0.0
  0
LINE
  5
238
100
AcDbEntity
100
AcDbLine
  8
color#ffffffff
 62
256
370
-1
  6
BYLAYER
 10
1.5291234514287197
 20
0.0302426111207667
 30
0.0
 11
1.5204603229900946
 21
0.0295542481200701
 31
0.0
  0
LINE
  5
239
100
AcDbEntity
100
AcDbLine
  8
color#ffffffff
 62
256
370
-1
  6
BYLAYER
 10
1.5204603229900946
 20
0.0295542481200701
 30
0.0
 11
1.511735672231268
 21
0.0294249366447438
 31
0.0
  0
LINE
  5
23A
100
AcDbEntity
100
AcDbLine
  8
color#ffffffff
 62
256
370
-1
  6
BYLAYER
 10
1.511735672231268
 20
0.0294249366447438
 30
0.0
 11
1.5029688522755704
 21
0.0298728347221153
 31
0.0
  0
LINE
  5
23B
100
AcDbEntity
100
AcDbLine
  8
color#ffffffff
 62
256
370
-1
  6
BYLAYER
 10
1.5029688522755704
 20
0.0298728347221153
 30
0.0
 11
1.4941792162463341
 21
0.0309161003795037
 31
0.0
  0
LINE
  5
23C
100
AcDbEntity
100
AcDbLine
  8
color#ffffffff
 62
256
370
-1
  6
BYLAYER
 10
1.4941792162463341
 20
0.0309161003795037
 30
0.0
 11
1.485386117266889
 21
0.0325728916442362
 31
0.0
  0
LINE
  5
23D
100
AcDbEntity
100
AcDbLine
  8
color#ffffffff
 62
256
370
-1
  6
BYLAYER
 10
1.485386117266889
 20
0.0325728916442362
 30
0.0
 11
1.4775121194004539
 21
0.0338622528258965
 31
0.0
  0
LINE
  5
23E
100
AcDbEntity
100
AcDbLine
  8
color#ffffffff
 62
256
370
-1
  6
BYLAYER
 10
1.4775121194004539
 20
0.0338622528258965
 30
0.0
 11
1.4697728618080415
 21
0.0355930996625339
 31
0.0
  0
LINE
  5
23F
100
AcDbEntity
100
AcDbLine
  8
color#ffffffff
 62
256
370
-1
  6
BYLAYER
 10
1.4697728618080415
 20
0.0355930996625339
 30
0.0
 11
1.462179447905231
 21
0.0377502729276695
 31
0.0
  0
LINE
  5
240
100
AcDbEntity
100
AcDbLine
  8
color#ffffffff
 62
256
370
-1
  6
BYLAYER
 10
1.462179447905231
 20
0.0377502729276695
 30
0.0
 11
1.454742981107602
 21
0.0403186133948259
 31
0.0
  0
LINE
  5
241
100
AcDbEntity
100
AcDbLine
  8
color#ffffffff
 62
256
370
-1
  6
BYLAYER
 10
1.454742981107602
 20
0.0403186133948259
 30
0.0
 11
1.4474745648307343
 21
0.0432829618375242
 31
0.0
  0
LINE
  5
242
100
AcDbEntity
100
AcDbLine
  8
color#ffffffff
 62
256
370
-1
  6
BYLAYER
 10
1.4474745648307343
 20
0.0432829618375242
 30
0.0
 11
1.4403853024902071
 21
0.0466281590292859
 31
0.0
  0
LINE
  5
243
100
AcDbEntity
100
AcDbLine
  8
color#ffffffff
 62
256
370
-1
  6
BYLAYER
 10
1.4403853024902071
 20
0.0466281590292859
 30
0.0
 11
1.4334862975015998
 21
0.0503390457436339
 31
0.0
  0
LINE
  5
244
100
AcDbEntity
100
AcDbLine
  8
color#ffffffff
 62
256
370
-1
  6
BYLAYER
 10
1.4334862975015998
 20
0.0503390457436339
 30
0.0
 11
1.4267886532804921
 21
0.0544004627540886
 31
0.0
  0
LINE
  5
245
100
AcDbEntity
100
AcDbLine
  8
color#ffffffff
 62
256
370
-1
  6
BYLAYER
 10
1.4267886532804921
 20
0.0544004627540886
 30
0.0
 11
1.4203034732424633
 21
0.0587972508341734
 31
0.0
  0
LINE
  5
246
100
AcDbEntity
100
AcDbLine
  8
color#ffffffff
 62
256
370
-1
  6
BYLAYER
 10
1.4203034732424633
 20
0.0587972508341734
 30
0.0
 11
1.4140418608030925
 21
0.0635142507574089
 31
0.0
  0
LINE
  5
247
100
AcDbEntity
100
AcDbLine
  8
color#ffffffff
 62
256
370
-1
  6
BYLAYER
 10
1.4140418608030925
 20
0.0635142507574089
 30
0.0
 11
1.4080149193779599
 21
0.0685363032973167
 31
0.0
  0
LINE
  5
248
100
AcDbEntity
100
AcDbLine
  8
color#ffffffff
 62
256
370
-1
  6
BYLAYER
 10
1.4080149193779599
 20
0.0685363032973167
 30
0.0
 11
1.4022337523826447
 21
0.0738482492274197
 31
0.0
  0
LINE
  5
249
100
AcDbEntity
100
AcDbLine
  8
color#ffffffff
 62
256
370
-1
  6
BYLAYER
 10
1.4022337523826447
 20
0.0738482492274197
 30
0.0
 11
1.3967094632327262
 21
0.0794349293212385
 31
0.0
  0
LINE
  5
24A
100
AcDbEntity
100
AcDbLine
  8
color#ffffffff
 62
256
370
-1
  6
BYLAYER
 10
1.3967094632327262
 20
0.0794349293212385
 30
0.0
 11
1.3914531553437843
 21
0.0852811843522956
 31
0.0
  0
LINE
  5
24B
100
AcDbEntity
100
AcDbLine
  8
color#ffffffff
 62
256
370
-1
  6
BYLAYER
 10
1.3914531553437843
 20
0.0852811843522956
 30
0.0
 11
1.3864759321313977
 21
0.0913718550941122
 31
0.0
  0
LINE
  5
24C
100
AcDbEntity
100
AcDbLine
  8
color#ffffffff
 62
256
370
-1
  6
BYLAYER
 10
1.3864759321313977
 20
0.0913718550941122
 30
0.0
 11
1.3817888970111467
 21
0.0976917823202111
 31
0.0
  0
LINE
  5
24D
100
AcDbEntity
100
AcDbLine
  8
color#ffffffff
 62
256
370
-1
  6
BYLAYER
 10
1.3817888970111467
 20
0.0976917823202111
 30
0.0
 11
1.3774031533986106
 21
0.1042258068041129
 31
0.0
  0
LINE
  5
24E
100
AcDbEntity
100
AcDbLine
  8
color#ffffffff
 62
256
370
-1
  6
BYLAYER
 10
1.3774031533986106
 20
0.1042258068041129
 30
0.0
 11
1.3733298047093681
 21
0.110958769319341
 31
0.0
  0
LINE
  5
24F
100
AcDbEntity
100
AcDbLine
  8
color#ffffffff
 62
256
370
-1
  6
BYLAYER
 10
1.3733298047093681
 20
0.110958769319341
 30
0.0
 11
1.3695799543589995
 21
0.1178755106394153
 31
0.0
  0
LINE
  5
250
100
AcDbEntity
100
AcDbLine
  8
color#ffffffff
 62
256
370
-1
  6
BYLAYER
 10
1.3695799543589995
 20
0.1178755106394153
 30
0.0
 11
1.3661647057630844
 21
0.1249608715378577
 31
0.0
  0
LINE
  5
251
100
AcDbEntity
100
AcDbLine
  8
color#ffffffff
 62
256
370
-1
  6
BYLAYER
 10
1.3661647057630844
 20
0.1249608715378577
 30
0.0
 11
1.3630951623372014
 21
0.132199692788192
 31
0.0
  0
LINE
  5
252
100
AcDbEntity
100
AcDbLine
  8
color#ffffffff
 62
256
370
-1
  6
BYLAYER
 10
1.3630951623372014
 20
0.132199692788192
 30
0.0
 11
1.3603824274969301
 21
0.1395768151639396
 31
0.0
  0
LINE
  5
253
100
AcDbEntity
100
AcDbLine
  8
color#ffffffff
 62
256
370
-1
  6
BYLAYER
 10
1.3603824274969301
 20
0.1395768151639396
 30
0.0
 11
1.3580376046578513
 21
0.1470770794386185
 31
0.0
  0
LINE
  5
254
100
AcDbEntity
100
AcDbLine
  8
color#ffffffff
 62
256
370
-1
  6
BYLAYER
 10
1.3580376046578513
 20
0.1470770794386185
 30
0.0
 11
1.3560717972355429
 21
0.1546853263857552
 31
0.0
  0
LINE
  5
255
100
AcDbEntity
100
AcDbLine
  8
color#ffffffff
 62
256
370
-1
  6
BYLAYER
 10
1.3560717972355429
 20
0.1546853263857552
 30
0.0
 11
1.3544961086455851
 21
0.1623863967788696
 31
0.0
  0
LINE
  5
256
100
AcDbEntity
100
AcDbLine
  8
color#ffffffff
 62
256
370
-1
  6
BYLAYER
 10
1.3544961086455851
 20
0.1623863967788696
 30
0.0
 11
1.3533216423035579
 21
0.170165131391482
 31
0.0
  0
LINE
  5
257
100
AcDbEntity
100
AcDbLine
  8
color#ffffffff
 62
256
370
-1
  6
BYLAYER
 10
1.3533216423035579
 20
0.170165131391482
 30
0.0
 11
1.3525595016250391
 21
0.1780063709971174
 31
0.0
  0
LINE
  5
258
100
AcDbEntity
100
AcDbLine
  8
color#ffffffff
 62
256
370
-1
  6
BYLAYER
 10
1.3525595016250391
 20
0.1780063709971174
 30
0.0
 11
1.35222079002561
 21
0.1858949563692944
 31
0.0
  0
LINE
  5
259
100
AcDbEntity
100
AcDbLine
  8
color#ffffffff
 62
256
370
-1
  6
BYLAYER
 10
1.35222079002561
 20
0.1858949563692944
 30
0.0
 11
1.3523166109208489
 21
0.1938157282815377
 31
0.0
  0
LINE
  5
25A
100
AcDbEntity
100
AcDbLine
  8
color#ffffffff
 62
256
370
-1
  6
BYLAYER
 10
1.3523166109208489
 20
0.1938157282815377
 30
0.0
 11
1.352520622082946
 21
1.0859582769499039
 31
0.0
  0
LINE
  5
25B
100
AcDbEntity
100
AcDbLine
  8
color#ffffffff
 62
256
370
-1
  6
BYLAYER
 10
1.352520622082946
 20
1.0859582769499039
 30
0.0
 11
1.0920031491630575
 21
1.1118620689477328
 31
0.0
  0
LINE
  5
25C
100
AcDbEntity
100
AcDbLine
  8
color#ffffffff
 62
256
370
-1
  6
BYLAYER
 10
1.0920031491630575
 20
1.1118620689477328
 30
0.0
 11
1.0920047063572247
 21
0.2499008450692719
 31
0.0
  0
LINE
  5
25D
100
AcDbEntity
100
AcDbLine
  8
color#ffffffff
 62
256
370
-1
  6
BYLAYER
 10
1.0920047063572247
 20
0.2499008450692719
 30
0.0
 11
1.0920892604442234
 21
0.2352497855613148
 31
0.0
  0
LINE
  5
25E
100
AcDbEntity
100
AcDbLine
  8
color#ffffffff
 62
256
370
-1
  6
BYLAYER
 10
1.0920892604442234
 20
0.2352497855613148
 30
0.0
 11
1.0930891114545558
 21
0.141770133673376
 31
0.0
  0
LINE
  5
25F
100
AcDbEntity
100
AcDbLine
  8
color#ffffffff
 62
256
370
-1
  6
BYLAYER
 10
1.0930891114545558
 20
0.141770133673376
 30
0.0
 11
1.0890469109426515
 21
0.1226347492408293
 31
0.0
  0
LINE
  5
260
100
AcDbEntity
100
AcDbLine
  8
color#ffffffff
 62
256
370
-1
  6
BYLAYER
 10
1.0890469109426515
 20
0.1226347492408293
 30
0.0
 11
1.0840504844544836
 21
0.1085664517003859
 31
0.0
  0
LINE
  5
261
100
AcDbEntity
100
AcDbLine
  8
color#ffffffff
 62
256
370
-1
  6
BYLAYER
 10
1.0840504844544836
 20
0.1085664517003859
 30
0.0
 11
1.0816706225494097
 21
0.1026440863226819
 31
0.0
  0
LINE
  5
262
100
AcDbEntity
100
AcDbLine
  8
color#ffffffff
 62
256
370
-1
  6
BYLAYER
 10
1.0816706225494097
 20
0.1026440863226819
 30
0.0
 11
1.0762252780169943
 21
0.0911781944866527
 31
0.0
  0
LINE
  5
263
100
AcDbEntity
100
AcDbLine
  8
color#ffffffff
 62
256
370
-1
  6
BYLAYER
 10
1.0762252780169943
 20
0.0911781944866527
 30
0.0
 11
1.0699120249525094
 21
0.0802399915214601
 31
0.0
  0
LINE
  5
264
100
AcDbEntity
100
AcDbLine
  8
color#ffffffff
 62
256
370
-1
  6
BYLAYER
 10
1.0699120249525094
 20
0.0802399915214601
 30
0.0
 11
1.0627863662731012
 21
0.0698565618011035
 31
0.0
  0
LINE
  5
265
100
AcDbEntity
100
AcDbLine
  8
color#ffffffff
 62
256
370
-1
  6
BYLAYER
 10
1.0627863662731012
 20
0.0698565618011035
 30
0.0
 11
1.054903804895915
 21
0.0600549896995813
 31
0.0
  0
LINE
  5
266
100
AcDbEntity
100
AcDbLine
  8
color#ffffffff
 62
256
370
-1
  6
BYLAYER
 10
1.054903804895915
 20
0.0600549896995813
 30
0.0
 11
1.0463198437380967
 21
0.050862359590892
 31
0.0
  0
LINE
  5
267
100
AcDbEntity
100
AcDbLine
  8
color#ffffffff
 62
256
370
-1
  6
BYLAYER
 10
1.0463198437380967
 20
0.050862359590892
 30
0.0
 11
1.0370899857167921
 21
0.0423057558490348
 31
0.0
  0
LINE
  5
268
100
AcDbEntity
100
AcDbLine
  8
color#ffffffff
 62
256
370
-1
  6
BYLAYER
 10
1.0370899857167921
 20
0.0423057558490348
 30
0.0
 11
1.0272697337491468
 21
0.0344122628480083
 31
0.0
  0
LINE
  5
269
100
AcDbEntity
100
AcDbLine
  8
color#ffffffff
 62
256
370
-1
  6
BYLAYER
 10
1.0272697337491468
 20
0.0344122628480083
 30
0.0
 11
1.011553779779546
 21
0.0238746030536498
 31
0.0
  0
LINE
  5
26A
100
AcDbEntity
100
AcDbLine
  8
color#ffffffff
 62
256
370
-1
  6
BYLAYER
 10
1.011553779779546
 20
0.0238746030536498
 30
0.0
 11
0.9948216433396238
 21
0.0149812920299052
 31
0.0
  0
LINE
  5
26B
100
AcDbEntity
100
AcDbLine
  8
color#ffffffff
 62
256
370
-1
  6
BYLAYER
 10
0.9948216433396238
 20
0.0149812920299052
 30
0.0
 11
0.9772606467747457
 21
0.0078237395390196
 31
0.0
  0
LINE
  5
26C
100
AcDbEntity
100
AcDbLine
  8
color#ffffffff
 62
256
370
-1
  6
BYLAYER
 10
0.9772606467747457
 20
0.0078237395390196
 30
0.0
 11
0.9590581124302793
 21
0.0024933553432409
 31
0.0
  0
LINE
  5
26D
100
AcDbEntity
100
AcDbLine
  8
color#ffffffff
 62
256
370
-1
  6
BYLAYER
 10
0.9590581124302793
 20
0.0024933553432409
 30
0.0
 11
0.9466591845183286
 21
0.0
 31
0.0
  0
LINE
  5
26E
100
AcDbEntity
100
AcDbLine
  8
color#ffffffff
 62
256
370
-1
  6
BYLAYER
 10
0.9466591845183286
 20
0.0
 30
0.0
 11
0.9024195675299394
 21
0.0
 31
0.0
  0
LINE
  5
26F
100
AcDbEntity
100
AcDbLine
  8
color#ffffffff
 62
256
370
-1
  6
BYLAYER
 10
0.9024195675299394
 20
0.0
 30
0.0
 11
0.876451099757673
 21
0.0061160812258399
 31
0.0
  0
LINE
  5
270
100
AcDbEntity
100
AcDbLine
  8
color#ffffffff
 62
256
370
-1
  6
BYLAYER
 10
0.876451099757673
 20
0.0061160812258399
 30
0.0
 11
0.8514965656655001
 21
0.0156380339123364
 31
0.0
  0
LINE
  5
271
100
AcDbEntity
100
AcDbLine
  8
color#ffffffff
 62
256
370
-1
  6
BYLAYER
 10
0.8514965656655001
 20
0.0156380339123364
 30
0.0
 11
0.8281597623879028
 21
0.0284870355561324
 31
0.0
  0
LINE
  5
272
100
AcDbEntity
100
AcDbLine
  8
color#ffffffff
 62
256
370
-1
  6
BYLAYER
 10
0.8281597623879028
 20
0.0284870355561324
 30
0.0
 11
0.8110608376266897
 21
0.0411087433981731
 31
0.0
  0
LINE
  5
273
100
AcDbEntity
100
AcDbLine
  8
color#ffffffff
 62
256
370
-1
  6
BYLAYER
 10
0.8110608376266897
 20
0.0411087433981731
 30
0.0
 11
0.795692834885727
 21
0.0557689590490216
 31
0.0
  0
LINE
  5
274
100
AcDbEntity
100
AcDbLine
  8
color#ffffffff
 62
256
370
-1
  6
BYLAYER
 10
0.795692834885727
 20
0.0557689590490216
 30
0.0
 11
0.7854887199232139
 21
0.068077614205655
 31
0.0
  0
LINE
  5
275
100
AcDbEntity
100
AcDbLine
  8
color#ffffffff
 62
256
370
-1
  6
BYLAYER
 10
0.7854887199232139
 20
0.068077614205655
 30
0.0
 11
0.7765625623528699
 21
0.0814932034630537
 31
0.0
  0
LINE
  5
276
100
AcDbEntity
100
AcDbLine
  8
color#ffffffff
 62
256
370
-1
  6
BYLAYER
 10
0.7765625623528699
 20
0.0814932034630537
 30
0.0
 11
0.7718094033023157
 21
0.0894781541210672
 31
0.0
  0
LINE
  5
277
100
AcDbEntity
100
AcDbLine
  8
color#ffffffff
 62
256
370
-1
  6
BYLAYER
 10
0.7718094033023157
 20
0.0894781541210672
 30
0.0
 11
0.764194849728656
 21
0.1061058156248171
 31
0.0
  0
LINE
  5
278
100
AcDbEntity
100
AcDbLine
  8
color#ffffffff
 62
256
370
-1
  6
BYLAYER
 10
0.764194849728656
 20
0.1061058156248171
 30
0.0
 11
0.7432927551239694
 21
0.2091789785672561
 31
0.0
  0
LINE
  5
279
100
AcDbEntity
100
AcDbLine
  8
color#ffffffff
 62
256
370
-1
  6
BYLAYER
 10
0.7432927551239694
 20
0.2091789785672561
 30
0.0
 11
0.4772734034727484
 21
1.5525755315472303
 31
0.0
  0
LINE
  5
27A
100
AcDbEntity
100
AcDbLine
  8
color#ffffffff
 62
256
370
-1
  6
BYLAYER
 10
0.4772734034727484
 20
1.5525755315472303
 30
0.0
 11
0.4724684026357616
 21
1.5788418609104649
 31
0.0
  0
LINE
  5
27B
100
AcDbEntity
100
AcDbLine
  8
color#ffffffff
 62
256
370
-1
  6
BYLAYER
 10
0.4724684026357616
 20
1.5788418609104649
 30
0.0
 11
0.4682721687786532
 21
1.6052679067582554
 31
0.0
  0
LINE
  5
27C
100
AcDbEntity
100
AcDbLine
  8
color#ffffffff
 62
256
370
-1
  6
BYLAYER
 10
0.4682721687786532
 20
1.6052679067582554
 30
0.0
 11
0.4646908810446889
 21
1.6318323762589628
 31
0.0
  0
LINE
  5
27D
100
AcDbEntity
100
AcDbLine
  8
color#ffffffff
 62
256
370
-1
  6
BYLAYER
 10
0.4646908810446889
 20
1.6318323762589628
 30
0.0
 11
0.4617307185771338
 21
1.6585139765809496
 31
0.0
  0
LINE
  5
27E
100
AcDbEntity
100
AcDbLine
  8
color#ffffffff
 62
256
370
-1
  6
BYLAYER
 10
0.4617307185771338
 20
1.6585139765809496
 30
0.0
 11
0.4593978605192534
 21
1.6852914148925757
 31
0.0
  0
LINE
  5
27F
100
AcDbEntity
100
AcDbLine
  8
color#ffffffff
 62
256
370
-1
  6
BYLAYER
 10
0.4593978605192534
 20
1.6852914148925757
 30
0.0
 11
0.4576984860143128
 21
1.7121433983622036
 31
0.0
  0
LINE
  5
280
100
AcDbEntity
100
AcDbLine
  8
color#ffffffff
 62
256
370
-1
  6
BYLAYER
 10
0.4576984860143128
 20
1.7121433983622036
 30
0.0
 11
0.4566387742055778
 21
1.7390486341581948
 31
0.0
  0
LINE
  5
281
100
AcDbEntity
100
AcDbLine
  8
color#ffffffff
 62
256
370
-1
  6
BYLAYER
 10
0.4566387742055778
 20
1.7390486341581948
 30
0.0
 11
0.4562249042363133
 21
1.7659858294489108
 31
0.0
  0
LINE
  5
282
100
AcDbEntity
100
AcDbLine
  8
color#ffffffff
 62
256
370
-1
  6
BYLAYER
 10
0.4562249042363133
 20
1.7659858294489108
 30
0.0
 11
0.4564630552497849
 21
1.7929336914027121
 31
0.0
  0
LINE
  5
283
100
AcDbEntity
100
AcDbLine
  8
color#ffffffff
 62
256
370
-1
  6
BYLAYER
 10
0.4564630552497849
 20
1.7929336914027121
 30
0.0
 11
0.4573594063892579
 21
1.8198709271879621
 31
0.0
  0
LINE
  5
284
100
AcDbEntity
100
AcDbLine
  8
color#ffffffff
 62
256
370
-1
  6
BYLAYER
 10
0.4573594063892579
 20
1.8198709271879621
 30
0.0
 11
0.4589201367979976
 21
1.8467762439730204
 31
0.0
  0
LINE
  5
285
100
AcDbEntity
100
AcDbLine
  8
color#ffffffff
 62
256
370
-1
  6
BYLAYER
 10
0.4589201367979976
 20
1.8467762439730204
 30
0.0
 11
0.4611514256192694
 21
1.8736283489262493
 31
0.0
  0
LINE
  5
286
100
AcDbEntity
100
AcDbLine
  8
color#ffffffff
 62
256
370
-1
  6
BYLAYER
 10
0.4611514256192694
 20
1.8736283489262493
 30
0.0
 11
0.4640594519963387
 21
1.9004059492160101
 31
0.0
  0
LINE
  5
287
100
AcDbEntity
100
AcDbLine
  8
color#ffffffff
 62
256
370
-1
  6
BYLAYER
 10
0.4640594519963387
 20
1.9004059492160101
 30
0.0
 11
0.4676503950724709
 21
1.9270877520106646
 31
0.0
  0
LINE
  5
288
100
AcDbEntity
100
AcDbLine
  8
color#ffffffff
 62
256
370
-1
  6
BYLAYER
 10
0.4676503950724709
 20
1.9270877520106646
 30
0.0
 11
0.4719304339909311
 21
1.9536524644785744
 31
0.0
  0
LINE
  5
289
100
AcDbEntity
100
AcDbLine
  8
color#ffffffff
 62
256
370
-1
  6
BYLAYER
 10
0.4719304339909311
 20
1.9536524644785744
 30
0.0
 11
0.4769057478949848
 21
1.9800787937881001
 31
0.0
  0
LINE
  5
28A
100
AcDbEntity
100
AcDbLine
  8
color#ffffffff
 62
256
370
-1
  6
BYLAYER
 10
0.4769057478949848
 20
1.9800787937881001
 30
0.0
 11
0.4825825159278976
 21
2.0063454471076039
 31
0.0
  0
LINE
  5
28B
100
AcDbEntity
100
AcDbLine
  8
color#ffffffff
 62
256
370
-1
  6
BYLAYER
 10
0.4825825159278976
 20
2.0063454471076039
 30
0.0
 11
0.4889669172329342
 21
2.0324311316054473
 31
0.0
  0
LINE
  5
28C
100
AcDbEntity
100
AcDbLine
  8
color#ffffffff
 62
256
370
-1
  6
BYLAYER
 10
0.4889669172329342
 20
2.0324311316054473
 30
0.0
 11
0.4960651309533605
 21
2.0583145544499919
 31
0.0
  0
LINE
  5
28D
100
AcDbEntity
100
AcDbLine
  8
color#ffffffff
 62
256
370
-1
  6
BYLAYER
 10
0.4960651309533605
 20
2.0583145544499919
 30
0.0
 11
0.503883336232442
 21
2.0839744228095984
 31
0.0
  0
LINE
  5
28E
100
AcDbEntity
100
AcDbLine
  8
color#ffffffff
 62
256
370
-1
  6
BYLAYER
 10
0.503883336232442
 20
2.0839744228095984
 30
0.0
 11
0.5124277122134435
 21
2.1093894438526295
 31
0.0
  0
LINE
  5
28F
100
AcDbEntity
100
AcDbLine
  8
color#ffffffff
 62
256
370
-1
  6
BYLAYER
 10
0.5124277122134435
 20
2.1093894438526295
 30
0.0
 11
0.5217044380396305
 21
2.1345383247474459
 31
0.0
  0
LINE
  5
290
100
AcDbEntity
100
AcDbLine
  8
color#ffffffff
 62
256
370
-1
  6
BYLAYER
 10
0.5217044380396305
 20
2.1345383247474459
 30
0.0
 11
0.531719692854269
 21
2.1593997726624083
 31
0.0
  0
LINE
  5
291
100
AcDbEntity
100
AcDbLine
  8
color#ffffffff
 62
256
370
-1
  6
BYLAYER
 10
0.531719692854269
 20
2.1593997726624083
 30
0.0
 11
0.5424796558006233
 21
2.1839524947658795
 31
0.0
  0
LINE
  5
292
100
AcDbEntity
100
AcDbLine
  8
color#ffffffff
 62
256
370
-1
  6
BYLAYER
 10
0.5424796558006233
 20
2.1839524947658795
 30
0.0
 11
0.5539905060219593
 21
2.208175198226221
 31
0.0
  0
LINE
  5
293
100
AcDbEntity
100
AcDbLine
  8
color#ffffffff
 62
256
370
-1
  6
BYLAYER
 10
0.5539905060219593
 20
2.208175198226221
 30
0.0
 11
0.5662584226615427
 21
2.2320465902117927
 31
0.0
  0
LINE
  5
294
100
AcDbEntity
100
AcDbLine
  8
color#ffffffff
 62
256
370
-1
  6
BYLAYER
 10
0.5662584226615427
 20
2.2320465902117927
 30
0.0
 11
0.579289584862638
 21
2.2555453778909587
 31
0.0
  0
LINE
  5
295
100
AcDbEntity
100
AcDbLine
  8
color#ffffffff
 62
256
370
-1
  6
BYLAYER
 10
0.579289584862638
 20
2.2555453778909587
 30
0.0
 11
0.5930901717685115
 21
2.2786502684320777
 31
0.0
  0
LINE
  5
296
100
AcDbEntity
100
AcDbLine
  8
color#ffffffff
 62
256
370
-1
  6
BYLAYER
 10
0.5930901717685115
 20
2.2786502684320777
 30
0.0
 11
0.6076663625224278
 21
2.301339969003513
 31
0.0
  0
LINE
  5
297
100
AcDbEntity
100
AcDbLine
  8
color#ffffffff
 62
256
370
-1
  6
BYLAYER
 10
0.6076663625224278
 20
2.301339969003513
 30
0.0
 11
0.5662368407132198
 21
2.3716965280345272
 31
0.0
  0
LINE
  5
298
100
AcDbEntity
100
AcDbLine
  8
color#ffffffff
 62
256
370
-1
  6
BYLAYER
 10
0.5662368407132198
 20
2.3716965280345272
 30
0.0
 11
0.529435748547995
 21
2.4446203460383398
 31
0.0
  0
LINE
  5
299
100
AcDbEntity
100
AcDbLine
  8
color#ffffffff
 62
256
370
-1
  6
BYLAYER
 10
0.529435748547995
 20
2.4446203460383398
 30
0.0
 11
0.5069391648341729
 21
2.498362380989787
 31
0.0
  0
LINE
  5
29A
100
AcDbEntity
100
AcDbLine
  8
color#ffffffff
 62
256
370
-1
  6
BYLAYER
 10
0.5069391648341729
 20
2.498362380989787
 30
0.0
 11
0.4916989659216012
 21
2.5423894967576772
 31
0.0
  0
LINE
  5
29B
100
AcDbEntity
100
AcDbLine
  8
color#ffffffff
 62
256
370
-1
  6
BYLAYER
 10
0.4916989659216012
 20
2.5423894967576772
 30
0.0
 11
0.4820884721574418
 21
2.5760307840872634
 31
0.0
  0
LINE
  5
29C
100
AcDbEntity
100
AcDbLine
  8
color#ffffffff
 62
256
370
-1
  6
BYLAYER
 10
0.4820884721574418
 20
2.5760307840872634
 30
0.0
 11
0.4741886585531463
 21
2.6102172308602838
 31
0.0
  0
LINE
  5
29D
100
AcDbEntity
100
AcDbLine
  8
color#ffffffff
 62
256
370
-1
  6
BYLAYER
 10
0.4741886585531463
 20
2.6102172308602838
 30
0.0
 11
0.4697916459300358
 21
2.631379171604701
 31
0.0
  0
LINE
  5
29E
100
AcDbEntity
100
AcDbLine
  8
color#ffffffff
 62
256
370
-1
  6
BYLAYER
 10
0.4697916459300358
 20
2.631379171604701
 30
0.0
 11
0.4660249527936476
 21
2.652636527670964
 31
0.0
  0
LINE
  5
29F
100
AcDbEntity
100
AcDbLine
  8
color#ffffffff
 62
256
370
-1
  6
BYLAYER
 10
0.4660249527936476
 20
2.652636527670964
 30
0.0
 11
0.4628827381489092
 21
2.6739751004906052
 31
0.0
  0
LINE
  5
2A0
100
AcDbEntity
100
AcDbLine
  8
color#ffffffff
 62
256
370
-1
  6
BYLAYER
 10
0.4628827381489092
 20
2.6739751004906052
 30
0.0
 11
0.4603591610007471
 21
2.6953806914951537
 31
0.0
  0
LINE
  5
2A1
100
AcDbEntity
100
AcDbLine
  8
color#ffffffff
 62
256
370
-1
  6
BYLAYER
 10
0.4603591610007471
 20
2.6953806914951537
 30
0.0
 11
0.458448380354089
 21
2.7168391021161402
 31
0.0
  0
LINE
  5
2A2
100
AcDbEntity
100
AcDbLine
  8
color#ffffffff
 62
256
370
-1
  6
BYLAYER
 10
0.458448380354089
 20
2.7168391021161402
 30
0.0
 11
0.4571445552138616
 21
2.7383361337850953
 31
0.0
  0
LINE
  5
2A3
100
AcDbEntity
100
AcDbLine
  8
color#ffffffff
 62
256
370
-1
  6
BYLAYER
 10
0.4571445552138616
 20
2.7383361337850953
 30
0.0
 11
0.4564418445849918
 21
2.759857587933551
 31
0.0
  0
LINE
  5
2A4
100
AcDbEntity
100
AcDbLine
  8
color#ffffffff
 62
256
370
-1
  6
BYLAYER
 10
0.4564418445849918
 20
2.759857587933551
 30
0.0
 11
0.4563344074724071
 21
2.7813892659930359
 31
0.0
  0
LINE
  5
2A5
100
AcDbEntity
100
AcDbLine
  8
color#ffffffff
 62
256
370
-1
  6
BYLAYER
 10
0.4563344074724071
 20
2.7813892659930359
 30
0.0
 11
0.4568164028810341
 21
2.8029169693950813
 31
0.0
  0
LINE
  5
2A6
100
AcDbEntity
100
AcDbLine
  8
color#ffffffff
 62
256
370
-1
  6
BYLAYER
 10
0.4568164028810341
 20
2.8029169693950813
 30
0.0
 11
0.4578819898158001
 21
2.8244264995712181
 31
0.0
  0
LINE
  5
2A7
100
AcDbEntity
100
AcDbLine
  8
color#ffffffff
 62
256
370
-1
  6
BYLAYER
 10
0.4578819898158001
 20
2.8244264995712181
 30
0.0
 11
0.4595253272816322
 21
2.845903657952976
 31
0.0
  0
LINE
  5
2A8
100
AcDbEntity
100
AcDbLine
  8
color#ffffffff
 62
256
370
-1
  6
BYLAYER
 10
0.4595253272816322
 20
2.845903657952976
 30
0.0
 11
0.4617405742834573
 21
2.8673342459718869
 31
0.0
  0
LINE
  5
2A9
100
AcDbEntity
100
AcDbLine
  8
color#ffffffff
 62
256
370
-1
  6
BYLAYER
 10
0.4617405742834573
 20
2.8673342459718869
 30
0.0
 11
0.4645218898262027
 21
2.8887040650594802
 31
0.0
  0
LINE
  5
2AA
100
AcDbEntity
100
AcDbLine
  8
color#ffffffff
 62
256
370
-1
  6
BYLAYER
 10
0.4645218898262027
 20
2.8887040650594802
 30
0.0
 11
0.4678634329147953
 21
2.9099989166472864
 31
0.0
  0
LINE
  5
2AB
100
AcDbEntity
100
AcDbLine
  8
color#ffffffff
 62
256
370
-1
  6
BYLAYER
 10
0.4678634329147953
 20
2.9099989166472864
 30
0.0
 11
0.4717593625541619
 21
2.931204602166837
 31
0.0
  0
LINE
  5
2AC
100
AcDbEntity
100
AcDbLine
  8
color#ffffffff
 62
256
370
-1
  6
BYLAYER
 10
0.4717593625541619
 20
2.931204602166837
 30
0.0
 11
0.47620383774923
 21
2.9523069230496617
 31
0.0
  0
LINE
  5
2AD
100
AcDbEntity
100
AcDbLine
  8
color#ffffffff
 62
256
370
-1
  6
BYLAYER
 10
0.47620383774923
 20
2.9523069230496617
 30
0.0
 11
0.4811910175049267
 21
2.9732916807272916
 31
0.0
  0
LINE
  5
2AE
100
AcDbEntity
100
AcDbLine
  8
color#ffffffff
 62
256
370
-1
  6
BYLAYER
 10
0.4811910175049267
 20
2.9732916807272916
 30
0.0
 11
0.4867150608261785
 21
2.9941446766312572
 31
0.0
  0
LINE
  5
2AF
100
AcDbEntity
100
AcDbLine
  8
color#ffffffff
 62
256
370
-1
  6
BYLAYER
 10
0.4867150608261785
 20
2.9941446766312572
 30
0.0
 11
0.492770126717913
 21
3.0148517121930891
 31
0.0
  0
LINE
  5
2B0
100
AcDbEntity
100
AcDbLine
  8
color#ffffffff
 62
256
370
-1
  6
BYLAYER
 10
0.492770126717913
 20
3.0148517121930891
 30
0.0
 11
0.4993503741850571
 21
3.0353985888443171
 31
0.0
  0
LINE
  5
2B1
100
AcDbEntity
100
AcDbLine
  8
color#ffffffff
 62
256
370
-1
  6
BYLAYER
 10
0.4993503741850571
 20
3.0353985888443171
 30
0.0
 11
0.5064499622325376
 21
3.0557711080164727
 31
0.0
  0
LINE
  5
2B2
100
AcDbEntity
100
AcDbLine
  8
color#ffffffff
 62
256
370
-1
  6
BYLAYER
 10
0.5064499622325376
 20
3.0557711080164727
 30
0.0
 11
0.5140630498652818
 21
3.0759550711410863
 31
0.0
  0
LINE
  5
2B3
100
AcDbEntity
100
AcDbLine
  8
color#ffffffff
 62
256
370
-1
  6
BYLAYER
 10
0.5140630498652818
 20
3.0759550711410863
 30
0.0
 11
0.5221837960882171
 21
3.0959362796496874
 31
0.0
  0
LINE
  5
2B4
100
AcDbEntity
100
AcDbLine
  8
color#ffffffff
 62
256
370
-1
  6
BYLAYER
 10
0.5221837960882171
 20
3.0959362796496874
 30
0.0
 11
0.5308063599062698
 21
3.1157005349738083
 31
0.0
  0
LINE
  5
2B5
100
AcDbEntity
100
AcDbLine
  8
color#ffffffff
 62
256
370
-1
  6
BYLAYER
 10
0.5308063599062698
 20
3.1157005349738083
 30
0.0
 11
0.5399249003243675
 21
3.1352336385449786
 31
0.0
  0
LINE
  5
2B6
100
AcDbEntity
100
AcDbLine
  8
color#ffffffff
 62
256
370
-1
  6
BYLAYER
 10
0.5399249003243675
 20
3.1352336385449786
 30
0.0
 11
0.5495335763474372
 21
3.1545213917947286
 31
0.0
  0
LINE
  5
2B7
100
AcDbEntity
100
AcDbLine
  8
color#ffffffff
 62
256
370
-1
  6
BYLAYER
 10
0.5495335763474372
 20
3.1545213917947286
 30
0.0
 11
0.5596265469804058
 21
3.1735495961545892
 31
0.0
  0
LINE
  5
2B8
100
AcDbEntity
100
AcDbLine
  8
color#ffffffff
 62
256
370
-1
  6
BYLAYER
 10
0.5596265469804058
 20
3.1735495961545892
 30
0.0
 11
0.5701979712282006
 21
3.1923040530560911
 31
0.0
  0
LINE
  5
2B9
100
AcDbEntity
100
AcDbLine
  8
color#ffffffff
 62
256
370
-1
  6
BYLAYER
 10
0.5701979712282006
 20
3.1923040530560911
 30
0.0
 11
0.5812420080957482
 21
3.2107705639307649
 31
0.0
  0
LINE
  5
2BA
100
AcDbEntity
100
AcDbLine
  8
color#ffffffff
 62
256
370
-1
  6
BYLAYER
 10
2.1185934455044357
 20
2.2804572919334491
 30
0.0
 11
2.1114634032842412
 21
2.2772493704943702
 31
0.0
  0
LINE
  5
2BB
100
AcDbEntity
100
AcDbLine
  8
color#ffffffff
 62
256
370
-1
  6
BYLAYER
 10
2.1114634032842412
 20
2.2772493704943702
 30
0.0
 11
2.1047003102469812
 21
2.2735454449453254
 31
0.0
  0
LINE
  5
2BC
100
AcDbEntity
100
AcDbLine
  8
color#ffffffff
 62
256
370
-1
  6
BYLAYER
 10
2.1047003102469812
 20
2.2735454449453254
 30
0.0
 11
2.098311044745881
 21
2.2693763787455001
 31
0.0
  0
LINE
  5
2BD
100
AcDbEntity
100
AcDbLine
  8
color#ffffffff
 62
256
370
-1
  6
BYLAYER
 10
2.098311044745881
 20
2.2693763787455001
 30
0.0
 11
2.0923024851341641
 21
2.2647730353540791
 31
0.0
  0
LINE
  5
2BE
100
AcDbEntity
100
AcDbLine
  8
color#ffffffff
 62
256
370
-1
  6
BYLAYER
 10
2.0923024851341641
 20
2.2647730353540791
 30
0.0
 11
2.0866815097650555
 21
2.2597662782302468
 31
0.0
  0
LINE
  5
2BF
100
AcDbEntity
100
AcDbLine
  8
color#ffffffff
 62
256
370
-1
  6
BYLAYER
 10
2.0866815097650555
 20
2.2597662782302468
 30
0.0
 11
2.0814549969917802
 21
2.2543869708331896
 31
0.0
  0
LINE
  5
2C0
100
AcDbEntity
100
AcDbLine
  8
color#ffffffff
 62
256
370
-1
  6
BYLAYER
 10
2.0814549969917802
 20
2.2543869708331896
 30
0.0
 11
2.0766298251675623
 21
2.2486659766220916
 31
0.0
  0
LINE
  5
2C1
100
AcDbEntity
100
AcDbLine
  8
color#ffffffff
 62
256
370
-1
  6
BYLAYER
 10
2.0766298251675623
 20
2.2486659766220916
 30
0.0
 11
2.0722128726456259
 21
2.2426341590561383
 31
0.0
  0
LINE
  5
2C2
100
AcDbEntity
100
AcDbLine
  8
color#ffffffff
 62
256
370
-1
  6
BYLAYER
 10
2.0722128726456259
 20
2.2426341590561383
 30
0.0
 11
2.0682110177791966
 21
2.2363223815945141
 31
0.0
  0
LINE
  5
2C3
100
AcDbEntity
100
AcDbLine
  8
color#ffffffff
 62
256
370
-1
  6
BYLAYER
 10
2.0682110177791966
 20
2.2363223815945141
 30
0.0
 11
2.0646311389214973
 21
2.2297615076964057
 31
0.0
  0
LINE
  5
2C4
100
AcDbEntity
100
AcDbLine
  8
color#ffffffff
 62
256
370
-1
  6
BYLAYER
 10
2.0646311389214973
 20
2.2297615076964057
 30
0.0
 11
2.0614801144257546
 21
2.2229824008209969
 31
0.0
  0
LINE
  5
2C5
100
AcDbEntity
100
AcDbLine
  8
color#ffffffff
 62
256
370
-1
  6
BYLAYER
 10
2.0614801144257546
 20
2.2229824008209969
 30
0.0
 11
2.0587648226451916
 21
2.2160159244274724
 31
0.0
  0
LINE
  5
2C6
100
AcDbEntity
100
AcDbLine
  8
color#ffffffff
 62
256
370
-1
  6
BYLAYER
 10
2.0587648226451916
 20
2.2160159244274724
 30
0.0
 11
2.0564921419330329
 21
2.208892941975019
 31
0.0
  0
LINE
  5
2C7
100
AcDbEntity
100
AcDbLine
  8
color#ffffffff
 62
256
370
-1
  6
BYLAYER
 10
2.0564921419330329
 20
2.208892941975019
 30
0.0
 11
2.0546689506425033
 21
2.2016443169228199
 31
0.0
  0
LINE
  5
2C8
100
AcDbEntity
100
AcDbLine
  8
color#ffffffff
 62
256
370
-1
  6
BYLAYER
 10
2.0546689506425033
 20
2.2016443169228199
 30
0.0
 11
2.0533021271268277
 21
2.1943009127300614
 31
0.0
  0
LINE
  5
2C9
100
AcDbEntity
100
AcDbLine
  8
color#ffffffff
 62
256
370
-1
  6
BYLAYER
 10
2.0533021271268277
 20
2.1943009127300614
 30
0.0
 11
2.0523985497392294
 21
2.1868935928559288
 31
0.0
  0
LINE
  5
2CA
100
AcDbEntity
100
AcDbLine
  8
color#ffffffff
 62
256
370
-1
  6
BYLAYER
 10
2.0523985497392294
 20
2.1868935928559288
 30
0.0
 11
2.051965096832935
 21
2.1794532207596058
 31
0.0
  0
LINE
  5
2CB
100
AcDbEntity
100
AcDbLine
  8
color#ffffffff
 62
256
370
-1
  6
BYLAYER
 10
2.051965096832935
 20
2.1794532207596058
 30
0.0
 11
2.0520086467611658
 21
2.1720106599002786
 31
0.0
  0
LINE
  5
2CC
100
AcDbEntity
100
AcDbLine
  8
color#ffffffff
 62
256
370
-1
  6
BYLAYER
 10
2.0520086467611658
 20
2.1720106599002786
 30
0.0
 11
2.0525360778771495
 21
2.1645967737371326
 31
0.0
  0
LINE
  5
2CD
100
AcDbEntity
100
AcDbLine
  8
color#ffffffff
 62
256
370
-1
  6
BYLAYER
 10
2.0525360778771495
 20
2.1645967737371326
 30
0.0
 11
2.0535542685341093
 21
2.1572424257293514
 31
0.0
  0
LINE
  5
2CE
100
AcDbEntity
100
AcDbLine
  8
color#ffffffff
 62
256
370
-1
  6
BYLAYER
 10
2.0535542685341093
 20
2.1572424257293514
 30
0.0
 11
2.0550700970852693
 21
2.1499784793361219
 31
0.0
  0
LINE
  5
2CF
100
AcDbEntity
100
AcDbLine
  8
color#ffffffff
 62
256
370
-1
  6
BYLAYER
 10
2.0550700970852693
 20
2.1499784793361219
 30
0.0
 11
2.0570904418838549
 21
2.1428357980166277
 31
0.0
  0
LINE
  5
2D0
100
AcDbEntity
100
AcDbLine
  8
color#ffffffff
 62
256
370
-1
  6
BYLAYER
 10
2.0570904418838549
 20
2.1428357980166277
 30
0.0
 11
2.0596221812830908
 21
2.1358452452300543
 31
0.0
  0
LINE
  5
2D1
100
AcDbEntity
100
AcDbLine
  8
color#ffffffff
 62
256
370
-1
  6
BYLAYER
 10
2.0596221812830908
 20
2.1358452452300543
 30
0.0
 11
2.0626721936362
 21
2.1290376844355876
 31
0.0
  0
LINE
  5
2D2
100
AcDbEntity
100
AcDbLine
  8
color#ffffffff
 62
256
370
-1
  6
BYLAYER
 10
2.0626721936362
 20
2.1290376844355876
 30
0.0
 11
2.0662473572964082
 21
2.1224439790924121
 31
0.0
  0
LINE
  5
2D3
100
AcDbEntity
100
AcDbLine
  8
color#ffffffff
 62
256
370
-1
  6
BYLAYER
 10
2.0662473572964082
 20
2.1224439790924121
 30
0.0
 11
2.0703545506169401
 21
2.1160949926597126
 31
0.0
  0
LINE
  5
2D4
100
AcDbEntity
100
AcDbLine
  8
color#ffffffff
 62
256
370
-1
  6
BYLAYER
 10
2.0703545506169401
 20
2.1160949926597126
 30
0.0
 11
2.0750006519510191
 21
2.1100215885966751
 31
0.0
  0
LINE
  5
2D5
100
AcDbEntity
100
AcDbLine
  8
color#ffffffff
 62
256
370
-1
  6
BYLAYER
 10
2.0750006519510191
 20
2.1100215885966751
 30
0.0
 11
2.0801925396518719
 21
2.1042546303624823
 31
0.0
  0
LINE
  5
2D6
100
AcDbEntity
100
AcDbLine
  8
color#ffffffff
 62
256
370
-1
  6
BYLAYER
 10
2.0801925396518719
 20
2.1042546303624823
 30
0.0
 11
2.0859370920727196
 21
2.0988249814163229
 31
0.0
  0
LINE
  5
2D7
100
AcDbEntity
100
AcDbLine
  8
color#ffffffff
 62
256
370
-1
  6
BYLAYER
 10
2.0859370920727196
 20
2.0988249814163229
 30
0.0
 11
2.0918951219845203
 21
2.0929665830598645
 31
0.0
  0
LINE
  5
2D8
100
AcDbEntity
100
AcDbLine
  8
color#ffffffff
 62
256
370
-1
  6
BYLAYER
 10
2.0918951219845203
 20
2.0929665830598645
 30
0.0
 11
2.0982222616555863
 21
2.0877644540575551
 31
0.0
  0
LINE
  5
2D9
100
AcDbEntity
100
AcDbLine
  8
color#ffffffff
 62
256
370
-1
  6
BYLAYER
 10
2.0982222616555863
 20
2.0877644540575551
 30
0.0
 11
2.1048800091648392
 21
2.0832071203187104
 31
0.0
  0
LINE
  5
2DA
100
AcDbEntity
100
AcDbLine
  8
color#ffffffff
 62
256
370
-1
  6
BYLAYER
 10
2.1048800091648392
 20
2.0832071203187104
 30
0.0
 11
2.1118298625911982
 21
2.079283107752647
 31
0.0
  0
LINE
  5
2DB
100
AcDbEntity
100
AcDbLine
  8
color#ffffffff
 62
256
370
-1
  6
BYLAYER
 10
2.1118298625911982
 20
2.079283107752647
 30
0.0
 11
2.1190333200135845
 21
2.0759809422686799
 31
0.0
  0
LINE
  5
2DC
100
AcDbEntity
100
AcDbLine
  8
color#ffffffff
 62
256
370
-1
  6
BYLAYER
 10
2.1190333200135845
 20
2.0759809422686799
 30
0.0
 11
2.1264518795109191
 21
2.0732891497761252
 31
0.0
  0
LINE
  5
2DD
100
AcDbEntity
100
AcDbLine
  8
color#ffffffff
 62
256
370
-1
  6
BYLAYER
 10
2.1264518795109191
 20
2.0732891497761252
 30
0.0
 11
2.1340470391621227
 21
2.0711962561842987
 31
0.0
  0
LINE
  5
2DE
100
AcDbEntity
100
AcDbLine
  8
color#ffffffff
 62
256
370
-1
  6
BYLAYER
 10
2.1340470391621227
 20
2.0711962561842987
 30
0.0
 11
2.1417802970461159
 21
2.0696907874025166
 31
0.0
  0
LINE
  5
2DF
100
AcDbEntity
100
AcDbLine
  8
color#ffffffff
 62
256
370
-1
  6
BYLAYER
 10
2.1417802970461159
 20
2.0696907874025166
 30
0.0
 11
2.1496131512418186
 21
2.0687612693400941
 31
0.0
  0
LINE
  5
2E0
100
AcDbEntity
100
AcDbLine
  8
color#ffffffff
 62
256
370
-1
  6
BYLAYER
 10
2.1496131512418186
 20
2.0687612693400941
 30
0.0
 11
2.1575070998281523
 21
2.068396227906347
 31
0.0
  0
LINE
  5
2E1
100
AcDbEntity
100
AcDbLine
  8
color#ffffffff
 62
256
370
-1
  6
BYLAYER
 10
2.1575070998281523
 20
2.068396227906347
 30
0.0
 11
2.1654236408840379
 21
2.0685841890105916
 31
0.0
  0
LINE
  5
2E2
100
AcDbEntity
100
AcDbLine
  8
color#ffffffff
 62
256
370
-1
  6
BYLAYER
 10
2.1654236408840379
 20
2.0685841890105916
 30
0.0
 11
2.173324272488395
 21
2.069313678562144
 31
0.0
  0
LINE
  5
2E3
100
AcDbEntity
100
AcDbLine
  8
color#ffffffff
 62
256
370
-1
  6
BYLAYER
 10
2.173324272488395
 20
2.069313678562144
 30
0.0
 11
2.1811704927201441
 21
2.0705732224703186
 31
0.0
  0
LINE
  5
2E4
100
AcDbEntity
100
AcDbLine
  8
color#ffffffff
 62
256
370
-1
  6
BYLAYER
 10
2.1811704927201441
 20
2.0705732224703186
 30
0.0
 11
2.1889237996582076
 21
2.0723513466444334
 31
0.0
  0
LINE
  5
2E5
100
AcDbEntity
100
AcDbLine
  8
color#ffffffff
 62
256
370
-1
  6
BYLAYER
 10
2.1889237996582076
 20
2.0723513466444334
 30
0.0
 11
2.1965456913815045
 21
2.0746365769938016
 31
0.0
  0
LINE
  5
2E6
100
AcDbEntity
100
AcDbLine
  8
color#ffffffff
 62
256
370
-1
  6
BYLAYER
 10
2.1965456913815045
 20
2.0746365769938016
 30
0.0
 11
2.2039976659689557
 21
2.0774174394277414
 31
0.0
  0
LINE
  5
2E7
100
AcDbEntity
100
AcDbLine
  8
color#ffffffff
 62
256
370
-1
  6
BYLAYER
 10
2.2039976659689557
 20
2.0774174394277414
 30
0.0
 11
2.211241221499483
 21
2.0806824598555669
 31
0.0
  0
LINE
  5
2E8
100
AcDbEntity
100
AcDbLine
  8
color#ffffffff
 62
256
370
-1
  6
BYLAYER
 10
2.211241221499483
 20
2.0806824598555669
 30
0.0
 11
2.2182378560520055
 21
2.0844201641865947
 31
0.0
  0
LINE
  5
2E9
100
AcDbEntity
100
AcDbLine
  8
color#ffffffff
 62
256
370
-1
  6
BYLAYER
 10
2.2182378560520055
 20
2.0844201641865947
 30
0.0
 11
2.2249490677054449
 21
2.088619078330141
 31
0.0
  0
LINE
  5
2EA
100
AcDbEntity
100
AcDbLine
  8
color#ffffffff
 62
256
370
-1
  6
BYLAYER
 10
2.2249490677054449
 20
2.088619078330141
 30
0.0
 11
2.2313363545387221
 21
2.0932677281955208
 31
0.0
  0
LINE
  5
2EB
100
AcDbEntity
100
AcDbLine
  8
color#ffffffff
 62
256
370
-1
  6
BYLAYER
 10
2.2313363545387221
 20
2.0932677281955208
 30
0.0
 11
2.2373612146307562
 21
2.0983546396920509
 31
0.0
  0
LINE
  5
2EC
100
AcDbEntity
100
AcDbLine
  8
color#ffffffff
 62
256
370
-1
  6
BYLAYER
 10
2.2373612146307562
 20
2.0983546396920509
 30
0.0
 11
2.2429851460604682
 21
2.103868338729046
 31
0.0
  0
LINE
  5
2ED
100
AcDbEntity
100
AcDbLine
  8
color#ffffffff
 62
256
370
-1
  6
BYLAYER
 10
2.2429851460604682
 20
2.103868338729046
 30
0.0
 11
2.2481696469067809
 21
2.1097973512158217
 31
0.0
  0
LINE
  5
2EE
100
AcDbEntity
100
AcDbLine
  8
color#ffffffff
 62
256
370
-1
  6
BYLAYER
 10
2.2481696469067809
 20
2.1097973512158217
 30
0.0
 11
2.2528762152486128
 21
2.1161302030616955
 31
0.0
  0
LINE
  5
2EF
100
AcDbEntity
100
AcDbLine
  8
color#ffffffff
 62
256
370
-1
  6
BYLAYER
 10
2.2528762152486128
 20
2.1161302030616955
 30
0.0
 11
2.2570663491648846
 21
2.1228554201759824
 31
0.0
  0
LINE
  5
2F0
100
AcDbEntity
100
AcDbLine
  8
color#ffffffff
 62
256
370
-1
  6
BYLAYER
 10
2.2570663491648846
 20
2.1228554201759824
 30
0.0
 11
2.2607015467345186
 21
2.1299615284679971
 31
0.0
  0
LINE
  5
2F1
100
AcDbEntity
100
AcDbLine
  8
color#ffffffff
 62
256
370
-1
  6
BYLAYER
 10
2.2607015467345186
 20
2.1299615284679971
 30
0.0
 11
2.2637433060364334
 21
2.1374370538470568
 31
0.0
  0
LINE
  5
2F2
100
AcDbEntity
100
AcDbLine
  8
color#ffffffff
 62
256
370
-1
  6
BYLAYER
 10
2.2637433060364334
 20
2.1374370538470568
 30
0.0
 11
2.2661531251495517
 21
2.1452705222224768
 31
0.0
  0
LINE
  5
2F3
100
AcDbEntity
100
AcDbLine
  8
color#ffffffff
 62
256
370
-1
  6
BYLAYER
 10
2.2661531251495517
 20
2.1452705222224768
 30
0.0
 11
2.2678925021527916
 21
2.1534504595035737
 31
0.0
  0
LINE
  5
2F4
100
AcDbEntity
100
AcDbLine
  8
color#ffffffff
 62
256
370
-1
  6
BYLAYER
 10
2.2678925021527916
 20
2.1534504595035737
 30
0.0
 11
2.2700776795673279
 21
2.16207556415364
 31
0.0
  0
LINE
  5
2F5
100
AcDbEntity
100
AcDbLine
  8
color#ffffffff
 62
256
370
-1
  6
BYLAYER
 10
2.2700776795673279
 20
2.16207556415364
 30
0.0
 11
2.2714297954279439
 21
2.170650206305651
 31
0.0
  0
LINE
  5
2F6
100
AcDbEntity
100
AcDbLine
  8
color#ffffffff
 62
256
370
-1
  6
BYLAYER
 10
2.2714297954279439
 20
2.170650206305651
 30
0.0
 11
2.2719832103775568
 21
2.1791462979934848
 31
0.0
  0
LINE
  5
2F7
100
AcDbEntity
100
AcDbLine
  8
color#ffffffff
 62
256
370
-1
  6
BYLAYER
 10
2.2719832103775568
 20
2.1791462979934848
 30
0.0
 11
2.2717722850590842
 21
2.1875357512510187
 31
0.0
  0
LINE
  5
2F8
100
AcDbEntity
100
AcDbLine
  8
color#ffffffff
 62
256
370
-1
  6
BYLAYER
 10
2.2717722850590842
 20
2.1875357512510187
 30
0.0
 11
2.2708313801154443
 21
2.1957904781121305
 31
0.0
  0
LINE
  5
2F9
100
AcDbEntity
100
AcDbLine
  8
color#ffffffff
 62
256
370
-1
  6
BYLAYER
 10
2.2708313801154443
 20
2.1957904781121305
 30
0.0
 11
2.2691948561895554
 21
2.2038823906106968
 31
0.0
  0
LINE
  5
2FA
100
AcDbEntity
100
AcDbLine
  8
color#ffffffff
 62
256
370
-1
  6
BYLAYER
 10
2.2691948561895554
 20
2.2038823906106968
 30
0.0
 11
2.2668970739243357
 21
2.2117834007805959
 31
0.0
  0
LINE
  5
2FB
100
AcDbEntity
100
AcDbLine
  8
color#ffffffff
 62
256
370
-1
  6
BYLAYER
 10
2.2668970739243357
 20
2.2117834007805959
 30
0.0
 11
2.2639723939627014
 21
2.219465420655705
 31
0.0
  0
LINE
  5
2FC
100
AcDbEntity
100
AcDbLine
  8
color#ffffffff
 62
256
370
-1
  6
BYLAYER
 10
2.2639723939627014
 20
2.219465420655705
 30
0.0
 11
2.2604551769475725
 21
2.2269003622699008
 31
0.0
  0
LINE
  5
2FD
100
AcDbEntity
100
AcDbLine
  8
color#ffffffff
 62
256
370
-1
  6
BYLAYER
 10
2.2604551769475725
 20
2.2269003622699008
 30
0.0
 11
2.2563797835218651
 21
2.2340601376570626
 31
0.0
  0
LINE
  5
2FE
100
AcDbEntity
100
AcDbLine
  8
color#ffffffff
 62
256
370
-1
  6
BYLAYER
 10
2.2563797835218651
 20
2.2340601376570626
 30
0.0
 11
2.2517805743284978
 21
2.2409166588510656
 31
0.0
  0
LINE
  5
2FF
100
AcDbEntity
100
AcDbLine
  8
color#ffffffff
 62
256
370
-1
  6
BYLAYER
 10
2.2517805743284978
 20
2.2409166588510656
 30
0.0
 11
2.2466919100103886
 21
2.2474418378857894
 31
0.0
  0
LINE
  5
300
100
AcDbEntity
100
AcDbLine
  8
color#ffffffff
 62
256
370
-1
  6
BYLAYER
 10
2.2466919100103886
 20
2.2474418378857894
 30
0.0
 11
2.2411481512104556
 21
2.2536075867951091
 31
0.0
  0
LINE
  5
301
100
AcDbEntity
100
AcDbLine
  8
color#ffffffff
 62
256
370
-1
  6
BYLAYER
 10
2.2411481512104556
 20
2.2536075867951091
 30
0.0
 11
2.2351836585716165
 21
2.259385817612904
 31
0.0
  0
LINE
  5
302
100
AcDbEntity
100
AcDbLine
  8
color#ffffffff
 62
256
370
-1
  6
BYLAYER
 10
2.2351836585716165
 20
2.259385817612904
 30
0.0
 11
2.2288327927367884
 21
2.2647484423730511
 31
0.0
  0
LINE
  5
303
100
AcDbEntity
100
AcDbLine
  8
color#ffffffff
 62
256
370
-1
  6
BYLAYER
 10
2.2288327927367884
 20
2.2647484423730511
 30
0.0
 11
2.2221299143488902
 21
2.2696673731094275
 31
0.0
  0
LINE
  5
304
100
AcDbEntity
100
AcDbLine
  8
color#ffffffff
 62
256
370
-1
  6
BYLAYER
 10
2.2221299143488902
 20
2.2696673731094275
 30
0.0
 11
2.2151093840508396
 21
2.2741145218559109
 31
0.0
  0
LINE
  5
305
100
AcDbEntity
100
AcDbLine
  8
color#ffffffff
 62
256
370
-1
  6
BYLAYER
 10
2.2151093840508396
 20
2.2741145218559109
 30
0.0
 11
2.2078055624855537
 21
2.2780618006463791
 31
0.0
  0
LINE
  5
306
100
AcDbEntity
100
AcDbLine
  8
color#ffffffff
 62
256
370
-1
  6
BYLAYER
 10
2.2078055624855537
 20
2.2780618006463791
 30
0.0
 11
2.2002528102959515
 21
2.2814811215147088
 31
0.0
  0
LINE
  5
307
100
AcDbEntity
100
AcDbLine
  8
color#ffffffff
 62
256
370
-1
  6
BYLAYER
 10
2.2002528102959515
 20
2.2814811215147088
 30
0.0
 11
2.1924854881249503
 21
2.2843443964947778
 31
0.0
  0
LINE
  5
308
100
AcDbEntity
100
AcDbLine
  8
color#ffffffff
 62
256
370
-1
  6
BYLAYER
 10
2.1924854881249503
 20
2.2843443964947778
 30
0.0
 11
2.1845379566154675
 21
2.2866235376204642
 31
0.0
  0
LINE
  5
309
100
AcDbEntity
100
AcDbLine
  8
color#ffffffff
 62
256
370
-1
  6
BYLAYER
 10
2.1845379566154675
 20
2.2866235376204642
 30
0.0
 11
2.1764445764104208
 21
2.2882904569256448
 31
0.0
  0
LINE
  5
30A
100
AcDbEntity
100
AcDbLine
  8
color#ffffffff
 62
256
370
-1
  6
BYLAYER
 10
2.1764445764104208
 20
2.2882904569256448
 30
0.0
 11
2.1682397081527314
 21
2.289317066444196
 31
0.0
  0
LINE
  5
30B
100
AcDbEntity
100
AcDbLine
  8
color#ffffffff
 62
256
370
-1
  6
BYLAYER
 10
2.1682397081527314
 20
2.289317066444196
 30
0.0
 11
2.1599577124853133
 21
2.2896752782099963
 31
0.0
  0
LINE
  5
30C
100
AcDbEntity
100
AcDbLine
  8
color#ffffffff
 62
256
370
-1
  6
BYLAYER
 10
2.1599577124853133
 20
2.2896752782099963
 30
0.0
 11
2.1516329500510847
 21
2.2893370042569243
 31
0.0
  0
LINE
  5
30D
100
AcDbEntity
100
AcDbLine
  8
color#ffffffff
 62
256
370
-1
  6
BYLAYER
 10
2.1516329500510847
 20
2.2893370042569243
 30
0.0
 11
2.1432997814929657
 21
2.288274156618856
 31
0.0
  0
LINE
  5
30E
100
AcDbEntity
100
AcDbLine
  8
color#ffffffff
 62
256
370
-1
  6
BYLAYER
 10
2.1432997814929657
 20
2.288274156618856
 30
0.0
 11
2.1349925674538719
 21
2.2864586473296686
 31
0.0
  0
LINE
  5
30F
100
AcDbEntity
100
AcDbLine
  8
color#ffffffff
 62
256
370
-1
  6
BYLAYER
 10
2.1349925674538719
 20
2.2864586473296686
 30
0.0
 11
2.1267456685767234
 21
2.2838623884232407
 31
0.0
  0
LINE
  5
310
100
AcDbEntity
100
AcDbLine
  8
color#ffffffff
 62
256
370
-1
  6
BYLAYER
 10
2.1267456685767234
 20
2.2838623884232407
 30
0.0
 11
2.1185934455044357
 21
2.2804572919334491
 31
0.0
  0
LINE
  5
311
100
AcDbEntity
100
AcDbLine
  8
color#ffffffff
 62
256
370
-1
  6
BYLAYER
 10
2.6685469770118906
 20
2.2613752444812856
 30
0.0
 11
2.6605937043463235
 21
2.2580482833177702
 31
0.0
  0
LINE
  5
312
100
AcDbEntity
100
AcDbLine
  8
color#ffffffff
 62
256
370
-1
  6
BYLAYER
 10
2.6605937043463235
 20
2.2580482833177702
 30
0.0
 11
2.6531262952759995
 21
2.2541033821637209
 31
0.0
  0
LINE
  5
313
100
AcDbEntity
100
AcDbLine
  8
color#ffffffff
 62
256
370
-1
  6
BYLAYER
 10
2.6531262952759995
 20
2.2541033821637209
 30
0.0
 11
2.646148981661721
 21
2.2495826202123084
 31
0.0
  0
LINE
  5
314
100
AcDbEntity
100
AcDbLine
  8
color#ffffffff
 62
256
370
-1
  6
BYLAYER
 10
2.646148981661721
 20
2.2495826202123084
 30
0.0
 11
2.6396659953642856
 21
2.2445280766567057
 31
0.0
  0
LINE
  5
315
100
AcDbEntity
100
AcDbLine
  8
color#ffffffff
 62
256
370
-1
  6
BYLAYER
 10
2.6396659953642856
 20
2.2445280766567057
 30
0.0
 11
2.6336815682444952
 21
2.2389818306900842
 31
0.0
  0
LINE
  5
316
100
AcDbEntity
100
AcDbLine
  8
color#ffffffff
 62
256
370
-1
  6
BYLAYER
 10
2.6336815682444952
 20
2.2389818306900842
 30
0.0
 11
2.6281999321631475
 21
2.2329859615056153
 31
0.0
  0
LINE
  5
317
100
AcDbEntity
100
AcDbLine
  8
color#ffffffff
 62
256
370
-1
  6
BYLAYER
 10
2.6281999321631475
 20
2.2329859615056153
 30
0.0
 11
2.6232253189810439
 21
2.2265825482964714
 31
0.0
  0
LINE
  5
318
100
AcDbEntity
100
AcDbLine
  8
color#ffffffff
 62
256
370
-1
  6
BYLAYER
 10
2.6232253189810439
 20
2.2265825482964714
 30
0.0
 11
2.6187619605589827
 21
2.219813670255824
 31
0.0
  0
LINE
  5
319
100
AcDbEntity
100
AcDbLine
  8
color#ffffffff
 62
256
370
-1
  6
BYLAYER
 10
2.6187619605589827
 20
2.219813670255824
 30
0.0
 11
2.6148140887577651
 21
2.2127214065768452
 31
0.0
  0
LINE
  5
31A
100
AcDbEntity
100
AcDbLine
  8
color#ffffffff
 62
256
370
-1
  6
BYLAYER
 10
2.6148140887577651
 20
2.2127214065768452
 30
0.0
 11
2.6113859354381894
 21
2.2053478364527073
 31
0.0
  0
LINE
  5
31B
100
AcDbEntity
100
AcDbLine
  8
color#ffffffff
 62
256
370
-1
  6
BYLAYER
 10
2.6113859354381894
 20
2.2053478364527073
 30
0.0
 11
2.6084817324610574
 21
2.1977350390765809
 31
0.0
  0
LINE
  5
31C
100
AcDbEntity
100
AcDbLine
  8
color#ffffffff
 62
256
370
-1
  6
BYLAYER
 10
2.6084817324610574
 20
2.1977350390765809
 30
0.0
 11
2.6061057116871673
 21
2.1899250936416386
 31
0.0
  0
LINE
  5
31D
100
AcDbEntity
100
AcDbLine
  8
color#ffffffff
 62
256
370
-1
  6
BYLAYER
 10
2.6061057116871673
 20
2.1899250936416386
 30
0.0
 11
2.6042621049773196
 21
2.1819600793410521
 31
0.0
  0
LINE
  5
31E
100
AcDbEntity
100
AcDbLine
  8
color#ffffffff
 62
256
370
-1
  6
BYLAYER
 10
2.6042621049773196
 20
2.1819600793410521
 30
0.0
 11
2.6029551441923138
 21
2.1738820753679935
 31
0.0
  0
LINE
  5
31F
100
AcDbEntity
100
AcDbLine
  8
color#ffffffff
 62
256
370
-1
  6
BYLAYER
 10
2.6029551441923138
 20
2.1738820753679935
 30
0.0
 11
2.6021890611929495
 21
2.1657331609156341
 31
0.0
  0
LINE
  5
320
100
AcDbEntity
100
AcDbLine
  8
color#ffffffff
 62
256
370
-1
  6
BYLAYER
 10
2.6021890611929495
 20
2.1657331609156341
 30
0.0
 11
2.6019680878400271
 21
2.1575554151771472
 31
0.0
  0
LINE
  5
321
100
AcDbEntity
100
AcDbLine
  8
color#ffffffff
 62
256
370
-1
  6
BYLAYER
 10
2.6019680878400271
 20
2.1575554151771472
 30
0.0
 11
2.6022964559943462
 21
2.1493909173457024
 31
0.0
  0
LINE
  5
322
100
AcDbEntity
100
AcDbLine
  8
color#ffffffff
 62
256
370
-1
  6
BYLAYER
 10
2.6022964559943462
 20
2.1493909173457024
 30
0.0
 11
2.6031783975167055
 21
2.1412817466144736
 31
0.0
  0
LINE
  5
323
100
AcDbEntity
100
AcDbLine
  8
color#ffffffff
 62
256
370
-1
  6
BYLAYER
 10
2.6031783975167055
 20
2.1412817466144736
 30
0.0
 11
2.6046181442679064
 21
2.1332699821766306
 31
0.0
  0
LINE
  5
324
100
AcDbEntity
100
AcDbLine
  8
color#ffffffff
 62
256
370
-1
  6
BYLAYER
 10
2.6046181442679064
 20
2.1332699821766306
 30
0.0
 11
2.6066199281087483
 21
2.1253977032253468
 31
0.0
  0
LINE
  5
325
100
AcDbEntity
100
AcDbLine
  8
color#ffffffff
 62
256
370
-1
  6
BYLAYER
 10
2.6066199281087483
 20
2.1253977032253468
 30
0.0
 11
2.6091879809000305
 21
2.1177069889537941
 31
0.0
  0
LINE
  5
326
100
AcDbEntity
100
AcDbLine
  8
color#ffffffff
 62
256
370
-1
  6
BYLAYER
 10
2.6091879809000305
 20
2.1177069889537941
 30
0.0
 11
2.6123265345025519
 21
2.1102399185551439
 31
0.0
  0
LINE
  5
327
100
AcDbEntity
100
AcDbLine
  8
color#ffffffff
 62
256
370
-1
  6
BYLAYER
 10
2.6123265345025519
 20
2.1102399185551439
 30
0.0
 11
2.6160398207771158
 21
2.1030385712225672
 31
0.0
  0
LINE
  5
328
100
AcDbEntity
100
AcDbLine
  8
color#ffffffff
 62
256
370
-1
  6
BYLAYER
 10
2.6160398207771158
 20
2.1030385712225672
 30
0.0
 11
2.6203320715845182
 21
2.0961450261492365
 31
0.0
  0
LINE
  5
329
100
AcDbEntity
100
AcDbLine
  8
color#ffffffff
 62
256
370
-1
  6
BYLAYER
 10
2.6203320715845182
 20
2.0961450261492365
 30
0.0
 11
2.6252075187855599
 21
2.0896013625283252
 31
0.0
  0
LINE
  5
32A
100
AcDbEntity
100
AcDbLine
  8
color#ffffffff
 62
256
370
-1
  6
BYLAYER
 10
2.6252075187855599
 20
2.0896013625283252
 30
0.0
 11
2.6306703942410419
 21
2.0834496595530023
 31
0.0
  0
LINE
  5
32B
100
AcDbEntity
100
AcDbLine
  8
color#ffffffff
 62
256
370
-1
  6
BYLAYER
 10
2.6306703942410419
 20
2.0834496595530023
 30
0.0
 11
2.6367249298117623
 21
2.0777319964164414
 31
0.0
  0
LINE
  5
32C
100
AcDbEntity
100
AcDbLine
  8
color#ffffffff
 62
256
370
-1
  6
BYLAYER
 10
2.6367249298117623
 20
2.0777319964164414
 30
0.0
 11
2.6433753573585235
 21
2.0724904523118135
 31
0.0
  0
LINE
  5
32D
100
AcDbEntity
100
AcDbLine
  8
color#ffffffff
 62
256
370
-1
  6
BYLAYER
 10
2.6433753573585235
 20
2.0724904523118135
 30
0.0
 11
2.6506259087421218
 21
2.0677671064322922
 31
0.0
  0
LINE
  5
32E
100
AcDbEntity
100
AcDbLine
  8
color#ffffffff
 62
256
370
-1
  6
BYLAYER
 10
2.6506259087421218
 20
2.0677671064322922
 30
0.0
 11
2.6575852589497861
 21
2.0631934663775304
 31
0.0
  0
LINE
  5
32F
100
AcDbEntity
100
AcDbLine
  8
color#ffffffff
 62
256
370
-1
  6
BYLAYER
 10
2.6575852589497861
 20
2.0631934663775304
 30
0.0
 11
2.6647801063639451
 21
2.0593104246437983
 31
0.0
  0
LINE
  5
330
100
AcDbEntity
100
AcDbLine
  8
color#ffffffff
 62
256
370
-1
  6
BYLAYER
 10
2.6647801063639451
 20
2.0593104246437983
 30
0.0
 11
2.6721756048773444
 21
2.0561010402557884
 31
0.0
  0
LINE
  5
331
100
AcDbEntity
100
AcDbLine
  8
color#ffffffff
 62
256
370
-1
  6
BYLAYER
 10
2.6721756048773444
 20
2.0561010402557884
 30
0.0
 11
2.6797369083827292
 21
2.0535483722381946
 31
0.0
  0
LINE
  5
332
100
AcDbEntity
100
AcDbLine
  8
color#ffffffff
 62
256
370
-1
  6
BYLAYER
 10
2.6797369083827292
 20
2.0535483722381946
 30
0.0
 11
2.687429170772845
 21
2.0516354796157086
 31
0.0
  0
LINE
  5
333
100
AcDbEntity
100
AcDbLine
  8
color#ffffffff
 62
256
370
-1
  6
BYLAYER
 10
2.687429170772845
 20
2.0516354796157086
 30
0.0
 11
2.6952175459404373
 21
2.0503454214130232
 31
0.0
  0
LINE
  5
334
100
AcDbEntity
100
AcDbLine
  8
color#ffffffff
 62
256
370
-1
  6
BYLAYER
 10
2.6952175459404373
 20
2.0503454214130232
 30
0.0
 11
2.7030671877782511
 21
2.0496612566548325
 31
0.0
  0
LINE
  5
335
100
AcDbEntity
100
AcDbLine
  8
color#ffffffff
 62
256
370
-1
  6
BYLAYER
 10
2.7030671877782511
 20
2.0496612566548325
 30
0.0
 11
2.7109432501790325
 21
2.0495660443658288
 31
0.0
  0
LINE
  5
336
100
AcDbEntity
100
AcDbLine
  8
color#ffffffff
 62
256
370
-1
  6
BYLAYER
 10
2.7109432501790325
 20
2.0495660443658288
 30
0.0
 11
2.7188108870355263
 21
2.0500428435707052
 31
0.0
  0
LINE
  5
337
100
AcDbEntity
100
AcDbLine
  8
color#ffffffff
 62
256
370
-1
  6
BYLAYER
 10
2.7188108870355263
 20
2.0500428435707052
 30
0.0
 11
2.7266352522404786
 21
2.0510747132941543
 31
0.0
  0
LINE
  5
338
100
AcDbEntity
100
AcDbLine
  8
color#ffffffff
 62
256
370
-1
  6
BYLAYER
 10
2.7266352522404786
 20
2.0510747132941543
 30
0.0
 11
2.7343814996866342
 21
2.0526447125608689
 31
0.0
  0
LINE
  5
339
100
AcDbEntity
100
AcDbLine
  8
color#ffffffff
 62
256
370
-1
  6
BYLAYER
 10
2.7343814996866342
 20
2.0526447125608689
 30
0.0
 11
2.7420147832667383
 21
2.054735900395543
 31
0.0
  0
LINE
  5
33A
100
AcDbEntity
100
AcDbLine
  8
color#ffffffff
 62
256
370
-1
  6
BYLAYER
 10
2.7420147832667383
 20
2.054735900395543
 30
0.0
 11
2.7495002568735374
 21
2.0573313358228678
 31
0.0
  0
LINE
  5
33B
100
AcDbEntity
100
AcDbLine
  8
color#ffffffff
 62
256
370
-1
  6
BYLAYER
 10
2.7495002568735374
 20
2.0573313358228678
 30
0.0
 11
2.7568030743997762
 21
2.0604140778675371
 31
0.0
  0
LINE
  5
33C
100
AcDbEntity
100
AcDbLine
  8
color#ffffffff
 62
256
370
-1
  6
BYLAYER
 10
2.7568030743997762
 20
2.0604140778675371
 30
0.0
 11
2.7638883897382005
 21
2.0639671855542443
 31
0.0
  0
LINE
  5
33D
100
AcDbEntity
100
AcDbLine
  8
color#ffffffff
 62
256
370
-1
  6
BYLAYER
 10
2.7638883897382005
 20
2.0639671855542443
 30
0.0
 11
2.7707213567815554
 21
2.0679737179076816
 31
0.0
  0
LINE
  5
33E
100
AcDbEntity
100
AcDbLine
  8
color#ffffffff
 62
256
370
-1
  6
BYLAYER
 10
2.7707213567815554
 20
2.0679737179076816
 30
0.0
 11
2.7772671294225866
 21
2.0724167339525419
 31
0.0
  0
LINE
  5
33F
100
AcDbEntity
100
AcDbLine
  8
color#ffffffff
 62
256
370
-1
  6
BYLAYER
 10
2.7772671294225866
 20
2.0724167339525419
 30
0.0
 11
2.7834908615540379
 21
2.0772792927135191
 31
0.0
  0
LINE
  5
340
100
AcDbEntity
100
AcDbLine
  8
color#ffffffff
 62
256
370
-1
  6
BYLAYER
 10
2.7834908615540379
 20
2.0772792927135191
 30
0.0
 11
2.7893577070686568
 21
2.0825444532153052
 31
0.0
  0
LINE
  5
341
100
AcDbEntity
100
AcDbLine
  8
color#ffffffff
 62
256
370
-1
  6
BYLAYER
 10
2.7893577070686568
 20
2.0825444532153052
 30
0.0
 11
2.794832819859189
 21
2.0881952744825929
 31
0.0
  0
LINE
  5
342
100
AcDbEntity
100
AcDbLine
  8
color#ffffffff
 62
256
370
-1
  6
BYLAYER
 10
2.794832819859189
 20
2.0881952744825929
 30
0.0
 11
2.7998813538183773
 21
2.0942148155400764
 31
0.0
  0
LINE
  5
343
100
AcDbEntity
100
AcDbLine
  8
color#ffffffff
 62
256
370
-1
  6
BYLAYER
 10
2.7998813538183773
 20
2.0942148155400764
 30
0.0
 11
2.8044684628389693
 21
2.1005861354124473
 31
0.0
  0
LINE
  5
344
100
AcDbEntity
100
AcDbLine
  8
color#ffffffff
 62
256
370
-1
  6
BYLAYER
 10
2.8044684628389693
 20
2.1005861354124473
 30
0.0
 11
2.8085593008137111
 21
2.1072922931243987
 31
0.0
  0
LINE
  5
345
100
AcDbEntity
100
AcDbLine
  8
color#ffffffff
 62
256
370
-1
  6
BYLAYER
 10
2.8085593008137111
 20
2.1072922931243987
 30
0.0
 11
2.812119021635346
 21
2.1143163477006244
 31
0.0
  0
LINE
  5
346
100
AcDbEntity
100
AcDbLine
  8
color#ffffffff
 62
256
370
-1
  6
BYLAYER
 10
2.812119021635346
 20
2.1143163477006244
 30
0.0
 11
2.8151127791966193
 21
2.1216413581658164
 31
0.0
  0
LINE
  5
347
100
AcDbEntity
100
AcDbLine
  8
color#ffffffff
 62
256
370
-1
  6
BYLAYER
 10
2.8151127791966193
 20
2.1216413581658164
 30
0.0
 11
2.8175057273902797
 21
2.1292503835446679
 31
0.0
  0
LINE
  5
348
100
AcDbEntity
100
AcDbLine
  8
color#ffffffff
 62
256
370
-1
  6
BYLAYER
 10
2.8175057273902797
 20
2.1292503835446679
 30
0.0
 11
2.8192630201090689
 21
2.1371264828618726
 31
0.0
  0
LINE
  5
349
100
AcDbEntity
100
AcDbLine
  8
color#ffffffff
 62
256
370
-1
  6
BYLAYER
 10
2.8192630201090689
 20
2.1371264828618726
 30
0.0
 11
2.8203498112457352
 21
2.1452527151421217
 31
0.0
  0
LINE
  5
34A
100
AcDbEntity
100
AcDbLine
  8
color#ffffffff
 62
256
370
-1
  6
BYLAYER
 10
2.8203498112457352
 20
2.1452527151421217
 30
0.0
 11
2.8207312546930208
 21
2.1536121394101091
 31
0.0
  0
LINE
  5
34B
100
AcDbEntity
100
AcDbLine
  8
color#ffffffff
 62
256
370
-1
  6
BYLAYER
 10
2.8207312546930208
 20
2.1536121394101091
 30
0.0
 11
2.8212344177446207
 21
2.1616517501659831
 31
0.0
  0
LINE
  5
34C
100
AcDbEntity
100
AcDbLine
  8
color#ffffffff
 62
256
370
-1
  6
BYLAYER
 10
2.8212344177446207
 20
2.1616517501659831
 30
0.0
 11
2.8210702439577084
 21
2.1695564073025015
 31
0.0
  0
LINE
  5
34D
100
AcDbEntity
100
AcDbLine
  8
color#ffffffff
 62
256
370
-1
  6
BYLAYER
 10
2.8210702439577084
 20
2.1695564073025015
 30
0.0
 11
2.8202672398320821
 21
2.1773067910502624
 31
0.0
  0
LINE
  5
34E
100
AcDbEntity
100
AcDbLine
  8
color#ffffffff
 62
256
370
-1
  6
BYLAYER
 10
2.8202672398320821
 20
2.1773067910502624
 30
0.0
 11
2.8188539118675369
 21
2.1848835816398657
 31
0.0
  0
LINE
  5
34F
100
AcDbEntity
100
AcDbLine
  8
color#ffffffff
 62
256
370
-1
  6
BYLAYER
 10
2.8188539118675369
 20
2.1848835816398657
 30
0.0
 11
2.8168587665638722
 21
2.1922674593019109
 31
0.0
  0
LINE
  5
350
100
AcDbEntity
100
AcDbLine
  8
color#ffffffff
 62
256
370
-1
  6
BYLAYER
 10
2.8168587665638722
 20
2.1922674593019109
 30
0.0
 11
2.814310310420884
 21
2.1994391042669963
 31
0.0
  0
LINE
  5
351
100
AcDbEntity
100
AcDbLine
  8
color#ffffffff
 62
256
370
-1
  6
BYLAYER
 10
2.814310310420884
 20
2.1994391042669963
 30
0.0
 11
2.8112370499383683
 21
2.2063791967657216
 31
0.0
  0
LINE
  5
352
100
AcDbEntity
100
AcDbLine
  8
color#ffffffff
 62
256
370
-1
  6
BYLAYER
 10
2.8112370499383683
 20
2.2063791967657216
 30
0.0
 11
2.8076674916161233
 21
2.2130684170286861
 31
0.0
  0
LINE
  5
353
100
AcDbEntity
100
AcDbLine
  8
color#ffffffff
 62
256
370
-1
  6
BYLAYER
 10
2.8076674916161233
 20
2.2130684170286861
 30
0.0
 11
2.8036301419539447
 21
2.2194874452864886
 31
0.0
  0
LINE
  5
354
100
AcDbEntity
100
AcDbLine
  8
color#ffffffff
 62
256
370
-1
  6
BYLAYER
 10
2.8036301419539447
 20
2.2194874452864886
 30
0.0
 11
2.7991535074516309
 21
2.2256169617697283
 31
0.0
  0
LINE
  5
355
100
AcDbEntity
100
AcDbLine
  8
color#ffffffff
 62
256
370
-1
  6
BYLAYER
 10
2.7991535074516309
 20
2.2256169617697283
 30
0.0
 11
2.7942660946089792
 21
2.2314376467090051
 31
0.0
  0
LINE
  5
356
100
AcDbEntity
100
AcDbLine
  8
color#ffffffff
 62
256
370
-1
  6
BYLAYER
 10
2.7942660946089792
 20
2.2314376467090051
 30
0.0
 11
2.7889964099257849
 21
2.2369301803349169
 31
0.0
  0
LINE
  5
357
100
AcDbEntity
100
AcDbLine
  8
color#ffffffff
 62
256
370
-1
  6
BYLAYER
 10
2.7889964099257849
 20
2.2369301803349169
 30
0.0
 11
2.7833729599018464
 21
2.2420752428780637
 31
0.0
  0
LINE
  5
358
100
AcDbEntity
100
AcDbLine
  8
color#ffffffff
 62
256
370
-1
  6
BYLAYER
 10
2.7833729599018464
 20
2.2420752428780637
 30
0.0
 11
2.77742425103696
 21
2.2468535145690449
 31
0.0
  0
LINE
  5
359
100
AcDbEntity
100
AcDbLine
  8
color#ffffffff
 62
256
370
-1
  6
BYLAYER
 10
2.77742425103696
 20
2.2468535145690449
 30
0.0
 11
2.7711787898309233
 21
2.2512456756384589
 31
0.0
  0
LINE
  5
35A
100
AcDbEntity
100
AcDbLine
  8
color#ffffffff
 62
256
370
-1
  6
BYLAYER
 10
2.7711787898309233
 20
2.2512456756384589
 30
0.0
 11
2.764665082783532
 21
2.2552324063169054
 31
0.0
  0
LINE
  5
35B
100
AcDbEntity
100
AcDbLine
  8
color#ffffffff
 62
256
370
-1
  6
BYLAYER
 10
2.764665082783532
 20
2.2552324063169054
 30
0.0
 11
2.7579116363945846
 21
2.2587943868349836
 31
0.0
  0
LINE
  5
35C
100
AcDbEntity
100
AcDbLine
  8
color#ffffffff
 62
256
370
-1
  6
BYLAYER
 10
2.7579116363945846
 20
2.2587943868349836
 30
0.0
 11
2.7509469571638769
 21
2.2619122974232928
 31
0.0
  0
LINE
  5
35D
100
AcDbEntity
100
AcDbLine
  8
color#ffffffff
 62
256
370
-1
  6
BYLAYER
 10
2.7509469571638769
 20
2.2619122974232928
 30
0.0
 11
2.7437995515912066
 21
2.2645668183124315
 31
0.0
  0
LINE
  5
35E
100
AcDbEntity
100
AcDbLine
  8
color#ffffffff
 62
256
370
-1
  6
BYLAYER
 10
2.7437995515912066
 20
2.2645668183124315
 30
0.0
 11
2.7364979261763711
 21
2.2667386297329992
 31
0.0
  0
LINE
  5
35F
100
AcDbEntity
100
AcDbLine
  8
color#ffffffff
 62
256
370
-1
  6
BYLAYER
 10
2.7364979261763711
 20
2.2667386297329992
 30
0.0
 11
2.7290705874191663
 21
2.2684084119155958
 31
0.0
  0
LINE
  5
360
100
AcDbEntity
100
AcDbLine
  8
color#ffffffff
 62
256
370
-1
  6
BYLAYER
 10
2.7290705874191663
 20
2.2684084119155958
 30
0.0
 11
2.7215460418193884
 21
2.2695568450908201
 31
0.0
  0
LINE
  5
361
100
AcDbEntity
100
AcDbLine
  8
color#ffffffff
 62
256
370
-1
  6
BYLAYER
 10
2.7215460418193884
 20
2.2695568450908201
 30
0.0
 11
2.7139527958768377
 21
2.27016460948927
 31
0.0
  0
LINE
  5
362
100
AcDbEntity
100
AcDbLine
  8
color#ffffffff
 62
256
370
-1
  6
BYLAYER
 10
2.7139527958768377
 20
2.27016460948927
 30
0.0
 11
2.7063193560913086
 21
2.2702123853415461
 31
0.0
  0
LINE
  5
363
100
AcDbEntity
100
AcDbLine
  8
color#ffffffff
 62
256
370
-1
  6
BYLAYER
 10
2.7063193560913086
 20
2.2702123853415461
 30
0.0
 11
2.6986742289625982
 21
2.2696808528782477
 31
0.0
  0
LINE
  5
364
100
AcDbEntity
100
AcDbLine
  8
color#ffffffff
 62
256
370
-1
  6
BYLAYER
 10
2.6986742289625982
 20
2.2696808528782477
 30
0.0
 11
2.6910459209905051
 21
2.2685506923299723
 31
0.0
  0
LINE
  5
365
100
AcDbEntity
100
AcDbLine
  8
color#ffffffff
 62
256
370
-1
  6
BYLAYER
 10
2.6910459209905051
 20
2.2685506923299723
 30
0.0
 11
2.6834629386748241
 21
2.2668025839273209
 31
0.0
  0
LINE
  5
366
100
AcDbEntity
100
AcDbLine
  8
color#ffffffff
 62
256
370
-1
  6
BYLAYER
 10
2.6834629386748241
 20
2.2668025839273209
 30
0.0
 11
2.6759537885153546
 21
2.2644172079008924
 31
0.0
  0
LINE
  5
367
100
AcDbEntity
100
AcDbLine
  8
color#ffffffff
 62
256
370
-1
  6
BYLAYER
 10
2.6759537885153546
 20
2.2644172079008924
 30
0.0
 11
2.6685469770118906
 21
2.2613752444812856
 31
0.0
  0
ENDSEC
  0
SECTION
  2
OBJECTS
  0
DICTIONARY
  5
C
100
AcDbDictionary
280
0
281
1
  3
ACAD_GROUP
350
D
  3
ACAD_LAYOUT
350
1A
  3
ACAD_MLINESTYLE
350
17
  3
ACAD_PLOTSETTINGS
350
19
  3
ACAD_PLOTSTYLENAME
350
E
  3
AcDbVariableDictionary
350
368
  0
DICTIONARY
  5
D
100
AcDbDictionary
280
0
281
1
  0
ACDBDICTIONARYWDFLT
  5
E
100
AcDbDictionary
281
1
  3
Normal
350
F
100
AcDbDictionaryWithDefault
340
F
  0
ACDBPLACEHOLDER
  5
F
  0
DICTIONARY
  5
17
100
AcDbDictionary
280
0
281
1
  3
Standard
350
18
  0
MLINESTYLE
  5
18
100
AcDbMlineStyle
  2
STANDARD
 70
0
  3

 62
256
 51
90.0
 52
90.0
 71
2
 49
0.5
 62
256
  6
BYLAYER
 49
-0.5
 62
256
  6
BYLAYER
  0
DICTIONARY
  5
19
100
AcDbDictionary
280
0
281
1
  0
DICTIONARY
  5
1A
100
AcDbDictionary
281
1
  3
Layout1
350
1E
  3
Layout2
350
26
  3
Model
350
22
  0
LAYOUT
  5
1E
100
AcDbPlotSettings
  1

  2
C:\Program Files\AutoCAD 2002\plotters\DWF ePlot (optimized for plotting).pc3
  4

  6

 40
0.0
 41
0.0
 42
0.0
 43
0.0
 44
0.0
 45
0.0
 46
0.0
 47
0.0
 48
0.0
 49
0.0
140
0.0
141
0.0
142
1.0
143
1.0
 70
688
 72
0
 73
0
 74
5
  7

 75
16
147
1.0
148
0.0
149
0.0
100
AcDbLayout
  1
Layout1
 70
1
 71
1
 10
0.0
 20
0.0
 11
420.0
 21
297.0
 12
0.0
 22
0.0
 32
0.0
 14
100000000000000000000.0
 24
100000000000000000000.0
 34
100000000000000000000.0
 15
-100000000000000000000.0
 25
-100000000000000000000.0
 35
-100000000000000000000.0
146
0.0
 13
0.0
 23
0.0
 33
0.0
 16
1.0
 26
0.0
 36
0.0
 17
0.0
 27
1.0
 37
0.0
 76
0
330
1B
  0
LAYOUT
  5
22
100
AcDbPlotSettings
  1

  2
C:\Program Files\AutoCAD 2002\plotters\DWF ePlot (optimized for plotting).pc3
  4

  6

 40
0.0
 41
0.0
 42
0.0
 43
0.0
 44
0.0
 45
0.0
 46
0.0
 47
0.0
 48
0.0
 49
0.0
140
0.0
141
0.0
142
1.0
143
1.0
 70
1712
 72
0
 73
0
 74
0
  7

 75
0
147
1.0
148
0.0
149
0.0
100
AcDbLayout
  1
Model
 70
1
 71
0
 10
0.0
 20
0.0
 11
12.0
 21
9.0
 12
0.0
 22
0.0
 32
0.0
 14
0.0
 24
0.0
 34
0.0
 15
0.0
 25
0.0
 35
0.0
146
0.0
 13
0.0
 23
0.0
 33
0.0
 16
1.0
 26
0.0
 36
0.0
 17
0.0
 27
1.0
 37
0.0
 76
0
330
1F
  0
LAYOUT
  5
26
100
AcDbPlotSettings
  1

  2
C:\Program Files\AutoCAD 2002\plotters\DWF ePlot (optimized for plotting).pc3
  4

  6

 40
0.0
 41
0.0
 42
0.0
 43
0.0
 44
0.0
 45
0.0
 46
0.0
 47
0.0
 48
0.0
 49
0.0
140
0.0
141
0.0
142
1.0
143
1.0
 70
688
 72
0
 73
0
 74
5
  7

 75
16
147
1.0
148
0.0
149
0.0
100
AcDbLayout
  1
Layout2
 70
1
 71
2
 10
0.0
 20
0.0
 11
12.0
 21
9.0
 12
0.0
 22
0.0
 32
0.0
 14
0.0
 24
0.0
 34
0.0
 15
0.0
 25
0.0
 35
0.0
146
0.0
 13
0.0
 23
0.0
 33
0.0
 16
1.0
 26
0.0
 36
0.0
 17
0.0
 27
1.0
 37
0.0
 76
0
330
23
  0
DICTIONARY
  5
368
100
AcDbDictionary
281
1
  3
DIMASSOC
350
36A
  3
HIDETEXT
350
369
  0
DICTIONARYVAR
  5
369
100
DictionaryVariables
280
0
  1
2
  0
DICTIONARYVAR
  5
36A
100
DictionaryVariables
280
0
  1
1
  0
ENDSEC
  0
EOF
